<svg width="60mm" height="80mm" viewBox="0 0 60 80" xmlns="http://www.w3.org/2000/svg"><path d="m54.122 38.145c.12437-3.0268.15187-5.6825-.46093-7.4966-3.618-10.71-7.3187-2.7162-6.228 7.446l-18.98-1.2985c-1.4304-.097856-2.9994-1.0039-3.0602-2.0068-.58887-9.7192-.028268-20.975-6.0825-31.198-1.4932-2.5215-4.541-6.4122-5.9123-.42928-1.9686 8.5891-2.4647 17.648-2.4064 26.973-2.3359.07734-2.1299 1.4729.01298 1.417.01591 1.3274.04205 2.6599.07579 3.997-2.1104-.01895-6.1893-1.3498-6.1893.60651v3.3559h-.66889c.52804-11.741-.77726-12.166-.93645.13491-.35294-.019563-.78595-.089473-.78595.35414s.43301.3737.78595.35414c.15919 12.301 1.4645 11.876.93645.13491h.6689v3.3559c0 1.9563 4.0789.62546 6.1893.60651-.03375 1.3371-.05989 2.6697-.07579 3.997-2.1429-.05592-2.3489 1.3397-.01298 1.417-.05832 9.3253.43778 18.384 2.4064 26.973 1.3713 5.9829 4.419 2.0922 5.9123-.42928 6.0542-10.223 5.4936-21.479 6.0825-31.198.06077-1.0029 1.6298-1.9089 3.0602-2.0068l18.98-1.2985c-1.0907 10.162 2.6101 18.156 6.228 7.446.6128-1.8141.5853-4.4698.46093-7.4966-.046392-1.1288 1.9652-1.2877 3.3779-1.855-1.4127-.56736-3.4243-.72624-3.3779-1.855z"/></svg>