<svg xmlns:rdf="http://www.w3.org/1999/02/22-rdf-syntax-ns#" xmlns:svg="http://www.w3.org/2000/svg" xmlns="http://www.w3.org/2000/svg" viewBox="0 0 60 80" height="80mm" width="60mm"><path d="M55.077116 39.120901C54.344263 38.986895 53.941615 38.453252 53.882069 37.907007L52.631273 26.432901c-.20619-1.89148-3.240257-3.065311-4.136845-.435582L44.458482 37.834905 29.838419 36.620641 27.98342 35.533572 22.775151 4.986918C21.592242-1.9508757 13.983088-1.5160189 13.500153 5.4579815L11.359768 36.366991C8.840026 35.877658 3.4046736 35.854148 3.4046736 36.982998v1.40279C1.8140178 38.399486.0 38.773017.0 40c0 1.226983 1.8140178 1.600514 3.4046736 1.614211v1.402791c0 1.128849 5.4353524 1.10534 7.9550944.616005l2.140385 30.90901c.482935 6.974001 8.092089 7.408858 9.274998.471064l5.208269-30.546653 1.854999-1.08707 14.620063-1.214264 4.035946 11.837586c.896588 2.62973 3.930655 1.455898 4.136845-.435582l1.250796-11.474105c.05955-.546246.462194-1.079888 1.195047-1.213895 1.6427-.300379 4.922883-.08137 4.922883-.879098.0-.797728-3.280183-.57872-4.922883-.879099z"/></svg>