<svg xmlns:rdf="http://www.w3.org/1999/02/22-rdf-syntax-ns#" xmlns:svg="http://www.w3.org/2000/svg" xmlns="http://www.w3.org/2000/svg" viewBox="0 0 60 80" height="80mm" width="60mm"><path d="m55.084193 41.293681-.780287 11.308612c-.147428 2.136674-5.302439 2.725503-5.800131.857898l-2.965089-11.12664-15.29362 1.325835c-1.409533.122192-2.867689.369298-3.017109 1.24785L22.572246 72.28188c-.726348 4.270783-7.265053 6.647835-7.896898.43749L11.700251 43.477406 5.7197673 43.180176C4.949919 43.141941 4.1932699 42.787672 4.1932699 42.169137V41.452219H3.3511833c-.04709 10.495766-.1869602 10.696937-.4421626.0H1.7288043C.88664706 41.452219.0 40.697256.0 40 0 39.302743.88664706 38.54778 1.7288043 38.54778h1.1802164c.2552024-10.696938.395073-10.495766.4421626.0h.8420866v-.716919c0-.618535.7566491-.972803 1.5264974-1.011038L11.700251 36.522592 14.675348 7.2806289c.631845-6.2103445 7.17055-3.8332929 7.896898.4374894l4.655711 27.3746437c.14942.878553 1.607576 1.125658 3.017109 1.247851l15.29362 1.325836 2.965089-11.126641c.497692-1.867606 5.652703-1.278776 5.800131.857897L55.084193 38.706318 59.999999 40z"/></svg>