<svg xmlns:rdf="http://www.w3.org/1999/02/22-rdf-syntax-ns#" xmlns:svg="http://www.w3.org/2000/svg" xmlns="http://www.w3.org/2000/svg" viewBox="0 0 60 80" height="80mm" width="60mm"><path d="m13.149212 36.17212.129307-4.099604-3.103322.10633-1.0461943-.15359-.2586096.330807-1.7985154-.02362C6.3531901 32.323043 5.8877464 32.164116 5.861111 31.753533L5.790583 30.666606c-.8024713-.005-2.0061799.171138-2.0453695-1.004222-.016819-.50397 1.0881843-.934554 2.033614-.968786l.023504-.827009c.011998-.421931.320075-.716051 1.1402339-.744307l2.0571249-.07089.082288.413507 4.3590707-.17468v0L15.635428 2.6624565c.291595-3.27259573 5.184071-3.7068714 5.851675-.3007473l4.35551 22.2217928.660277 8.386917c1.854551 1.596282 3.313175 3.544399 6.970175 3.893552l16.274978 1.553854c.527469.05037.7528-.475859.831204-.86882l2.493614-12.497674c.169059-.847302 1.830922-1.002363 2.0417-.06746L58.5 39.999998 55.114561 55.016126c-.218453.933121-1.872641.779842-2.0417-.06746L50.579247 42.450999c-.0784-.39296-.303735-.919181-.831204-.86882l-16.274978 1.553853c-3.657.349153-5.115624 2.297269-6.970175 3.893552l-.660277 8.386914-4.35551 22.221793c-.667604 3.406124-5.56008 2.971848-5.851675-.300748l-2.19438-24.62776v0L9.0819773 52.535102 8.9996893 52.948609 6.9425644 52.877729C6.1224053 52.849469 5.8143215 52.555349 5.8023303 52.133419L5.7788263 51.306408C4.8333966 51.272178 3.7284078 50.841593 3.7452123 50.337623 3.7844013 49.162264 4.9881105 49.33839 5.7905818 49.3334l.070528-1.086926c.026635-.410583.4920792-.56947 1.2107668-.578908l1.7985153-.02362.2586096.330806 1.0461935-.15359 3.103324.10633-.129308-4.099602C9.7825163 43.899595 1.5 42.814408 1.5 40.000001 1.5 37.185593 9.7825163 36.100406 13.149212 36.17212z"/></svg>