<svg xmlns:rdf="http://www.w3.org/1999/02/22-rdf-syntax-ns#" xmlns:svg="http://www.w3.org/2000/svg" xmlns="http://www.w3.org/2000/svg" viewBox="0 0 60 80" height="80mm" width="60mm"><path d="M58.238427 40.43554 60 40.565127l-1.761573.296201-.131181.444295-5.771963.259174-1.106119 13.532067c-.09203 1.1258-3.215401 2.619647-3.710357.54979L44.3385 42.346897 27.373421 42.879187 24.52492 77.349465c-.191962 2.32297-5.950798 4.060852-6.446607 1.036708L14.855009 58.725889H9.7261623V56.893151H9.3508108L8.9478984 60.169865 8.8585413 56.79598 8.3198486 56.554627 8.815044 56.261397 9.0337014 53.282989 9.3508086 56.170931H9.72616v-1.414409h4.584942L13.65564 49.340053H7.9586384V47.936462H7.6006905L7.0375108 51.444665 7.14539 47.903912 6.6094594 47.655965 7.1767575 47.406754 7.4390176 44.332915 7.6006883 47.328235H7.9586361V45.95226H13.243355L12.56871 42.638531 5.8832919 42.503979C4.2263576 42.47062.0 42.04193.0 40 0 37.95807 4.2263576 37.529379 5.8832919 37.49602l6.6854181-.134551.674645-3.31373H7.9586361V32.671765H7.6006883L7.4390176 35.667084 7.1767575 32.593246 6.6094594 32.344035 7.14539 32.096087 7.0375108 28.555334 7.6006905 32.063538H7.9586384V30.659947H13.65564l.655462-5.416469H9.72616V23.829069H9.3508086L9.0337014 26.717011 8.815044 23.738603 8.3198486 23.445373 8.8585413 23.204019 8.9478984 19.830135 9.3508108 23.106848H9.7261623V21.274111H14.855009L18.078313 1.6138277c.495809-3.024145 6.254645-1.28626216 6.446607 1.0367074l2.848501 34.4702779 16.965079.53229 3.180307-13.299757c.494956-2.069857 3.61833-.57601 3.710357.54979l1.106119 13.532067 5.771963.259174.131181.444295L60 39.434873 58.238427 39.564459z"/></svg>