<svg xmlns:rdf="http://www.w3.org/1999/02/22-rdf-syntax-ns#" xmlns:svg="http://www.w3.org/2000/svg" xmlns="http://www.w3.org/2000/svg" viewBox="0 0 60 80" height="80mm" width="60mm"><path d="m54.999996 40.609842-1.323089.59647.05293 6.613051-.979086 1.024376H51.90397l.13231.298236 1.95817.259335c-2.342851.264275-4.641374.38766-6.774212.0l.688004-.246371-.06615-7.481822-16.485683.907671-3.770924 33.388112c-.526035 4.657567-4.365226 5.237927-4.549667 1.954551L22.027282 59.969843h-4.210044v-1.589049h-.324159v.246371c-.737279-.02053-.950769-.258276-1.250318-.460318.332112-.219562.613952-.471971 1.250318-.492741v.317688h.324159v-1.59782h4.097777L21.565545 49.45318H16.85361v-1.705464h-.355518v.307155c-.603136-.007-1.123679-.265406-1.356568-.5593.33568-.335483.796423-.402508 1.356568-.435524v.284233h.355518v-1.54954h4.537488l-.0655-3.135762C16.968996 42.817904 5 42.016812 5 40 5 37.983188 16.968996 37.182096 21.325613 37.341023l.06549-3.135762h-4.537492v-1.54954h-.355517v.284233c-.560141-.03299-1.020885-.100042-1.356565-.435525.232889-.293893.753432-.552273 1.356569-.559299v.307155h.355517v-1.705464h4.711938l.349469-6.940795h-4.097778v-1.59782h-.324159v.317687c-.636367-.02074-.918207-.273178-1.250319-.49274.29955-.202042.513039-.439789 1.250319-.460318v.24637h.324159v-1.589048h4.210042L23.035811 2.0765488c.184443-3.2833758 4.023635-2.70301538 4.54967 1.9545512l3.770922 33.388112 16.485685.90767.06615-7.481821-.688004-.24637c2.132839-.38766 4.431362-.264275 6.774213.0l-1.958171.259335-.132309.298235h.846777l.979085 1.024377-.05292 6.61305L55 39.390159z"/></svg>