<svg xmlns:rdf="http://www.w3.org/1999/02/22-rdf-syntax-ns#" xmlns:svg="http://www.w3.org/2000/svg" xmlns="http://www.w3.org/2000/svg" viewBox="0 0 60 80" height="80mm" width="60mm"><path d="m1.7613934 42.394613 17.5283246.678009c.459119 1.99069.435 3.687541.48301 5.42825-2.001721.01672-5.723404-.255754-5.73527.957843l-.0099 1.012275-1.291697.174234.01753.37623c-1.249534.07735-1.146881.834563.038.81581l.02214.475469 1.195739.03055-.004.413465c-.01384 1.416227 4.314661 1.252639 6.518542 1.212244l2.481751 23.234554c.435744 4.079513 6.006086 3.566145 6.615966-.696614L32.950993 53.23567c1.887568-.54355 3.858214-1.022333 5.241221-1.959225-1.408203-.789875-3.059096-1.368934-4.747172-1.91569l.859216-6.552526 16.776202-.805465 2.105081 10.013833-.408129.282997-.02148.609537c.07767.243641.444934.478323.773295.457151l4.725691-.304767c.27543-.28859.06418-.486963-.04296-.696617L56.493526 52.10367c.06695-.679061 1.014623-1.246552 1.67547-1.85038l-.193365-9.121291C59.007154 41.16207 60 41.062815 60 40.000001 60 38.937188 59.007154 38.837933 57.975631 38.868004l.193322-9.121291c-.660847-.603827-1.608525-1.171318-1.67547-1.85038l1.718432-.261228c.107143-.209655.318391-.408026.04296-.696616l-4.725691-.304768c-.328361-.02117-.695622.213511-.773295.457152l.02148.609537.408129.282996-2.105081 10.013833-16.776202-.805465-.859216-6.552525c1.688076-.546757 3.338969-1.125815 4.747172-1.91569-1.383007-.936892-3.353653-1.415676-5.241221-1.959225L29.621488 3.4930716C29.011608-.76968672 23.441266-1.2830549 23.005522 2.7964575L20.523771 26.031011c-2.203881-.0404-6.532379-.203982-6.518542 1.212245l.004.413465-1.195739.03055-.02214.475469c-1.184878-.01875-1.287531.738462-.038.815811l-.01753.37623 1.291697.174233.0099 1.012276c.01187 1.213597 3.733549.941108 5.73527.957842-.04801 1.740709-.02389 3.437559-.48301 5.428251L1.7613934 37.60539C.59927533 37.650341.0 39.182412.0 40.000001c0 .81759.59927533 2.349661 1.7613934 2.394612z"/></svg>