<svg xmlns:rdf="http://www.w3.org/1999/02/22-rdf-syntax-ns#" xmlns:svg="http://www.w3.org/2000/svg" xmlns="http://www.w3.org/2000/svg" width="60mm" height="80mm" viewBox="0 0 60 80"
   ><path d="m56.309418 38.883592-.984154-9.802859c-.188874-1.881307-3.486842-2.46046-4.094086.176278L49.28255 37.718217C43.680306 36.938994 38.100608 36.212121 32.80779 36.15133l-.904076-6.450292c4.075364-1.106028 4.080473-1.367287-.305305-2.178243L28.801577 8.4526039C28.350016 5.37363 23.64924 5.0280986 23.159648 8.3641892L20.564897 26.044883c-2.750376-.07856-7.729769-.63918-7.66657.803031l.02754.628435c-3.8291476.408481-3.3558878 1.617021.08469 1.932556l.0354.807822c.04005.913994 4.441219.935598 6.849722 1.008688l-.590494 4.730049C13.224415 35.952127.0 37.185236.0 40c0 2.814764 13.224415 4.047872 19.305178 4.044535l.590494 4.73005c-2.408503.07309-6.80967.09469-6.849722 1.008686l-.0354.807823c-3.4405738.315534-3.9138336 1.524074-.08469 1.932555l-.02754.628435c-.0632 1.442212 4.916194.881589 7.66657.803032l2.594751 17.680694c.489592 3.336091 5.190368 2.99056 5.641929-.08841l2.796832-19.070192c4.385778-.810957 4.380669-1.072215.305305-2.178244l.904076-6.45029c5.292818-.06079 10.872516-.787665 16.47476-1.566888l1.948628 8.461207c.607244 2.636738 3.905212 2.057584 4.094086.176277l.984161-9.802861C57.474732 41.108136 60 40.446165 60 40 60 39.553835 57.474732 38.891854 56.309418 38.883592z"/></svg>