<svg xmlns:rdf="http://www.w3.org/1999/02/22-rdf-syntax-ns#" xmlns:svg="http://www.w3.org/2000/svg" xmlns="http://www.w3.org/2000/svg" viewBox="0 0 60 80" height="80mm" width="60mm"><path d="m57.999999 40.517248c0 .278431-.124868.452553-.316024.462281l-2.59472.132084-.848274 9.906151c-.125392 1.464344-2.740641 1.387291-3.093704-.08256l-2.228798-9.27875-13.931242.787076c-.409171.833225-.844876.757709-1.298361.07336l-5.810912.328304-.169921 4.027665c1.588757.972625 1.155637 1.53758-.08186 1.94035L26.36438 78.721965c-.06495 1.539537-4.128404 1.748177-4.291267.297189L19.857177 59.276805 15.367412 58.971264 15.239931 58.025519c-1.448908-.252523-1.322002-.606135.0834-.750141l.05249-.918915 4.108007-.405923-.705608-6.286443-4.264577-.284644-.356906-.934871c-1.263463-.225595-1.584472-.457885.0474-.704069l.257845-.958347 3.948099-.397865-.395384-3.522596C12.276588 42.7951 2 43.296554 2 40 2 36.703444 12.276588 37.204898 18.014703 37.138294l.395384-3.522597-3.948099-.397865-.257845-.958346c-1.631876-.246185-1.310867-.478475-.0474-.70407l.356906-.934871 4.264577-.284643.705608-6.286444-4.108007-.405923-.05249-.918915c-1.405406-.144006-1.532312-.497617-.08341-.750141l.127481-.945745 4.489765-.305541 2.215933-19.74234451c.162863-1.45098761 4.226316-1.24234782 4.291267.29718921l1.2618 29.9087563c1.237497.402771 1.670617.967725.08186 1.94035l.169922 4.027665 5.810912.328304c.453485-.684354.88919-.759869 1.29836.07336l13.931243.787076 2.228798-9.278757c.353062-1.469844 2.968312-1.546896 3.093704-.08256l.848274 9.906151 2.59472.132083C57.875132 39.030166 58 39.204318 58 39.482749z"/></svg>