<svg xmlns:rdf="http://www.w3.org/1999/02/22-rdf-syntax-ns#" xmlns:svg="http://www.w3.org/2000/svg" xmlns="http://www.w3.org/2000/svg" viewBox="0 0 60 80" height="80mm" width="60mm"><path d="m55.151911 40.812227 1.560848 1.01235c.474488.307748.581063.64555.520282.988802l-1.265232 7.145292c-.61414 3.468301-5.701282 3.288085-5.865005.153029l-.453647-8.686633-18.52855 1.631444c-1.313962.115695-2.586391 1.467327-2.72577 2.813413-1.083404 10.463236-3.261981 20.81745-5.183981 31.197203-.804688 4.345709-7.201434 3.489132-7.55858-.133177L13.963304 59.803786c-.317413.0036-.811433.09441-.85285-.266356l-.06689-.582659c-.03861-.336323.513214-.365204.819403-.382889L13.662296 55.608647C12.05934 55.695585 7.7752453 55.712455 7.8094161 54.74298l.033446-.9489-2.7926599-.499421c-.4008281-.07168-.3642192-.80007.01672-.882313l2.7759375-.599305.01672-.832373c.018872-.939133 3.5395983-1.059883 5.5351523-.915604L13.294398 43.60588C8.9130998 43.827845.0 44.39012.0 40 0 35.60988 8.9130998 36.172154 13.294398 36.394119l.100334-6.459183c-1.995554.144278-5.5162805.02352-5.5351526-.915605L7.8428594 28.186958 5.0669219 27.587653C4.6859827 27.505414 4.6493738 26.777021 5.0502019 26.705341L7.8428618 26.205919 7.8094168 25.25702c-.034171-.969476 4.2499242-.952603 5.8528802-.865668l.200671-2.963235c-.306189-.01768-.858013-.04657-.819403-.382889l.06689-.58266c.04142-.360765.535437-.26991.85285-.266355L15.652276 3.0660492c.357146-3.62230844 6.753892-4.4788862 7.55858-.1331779 1.922 10.3797537 4.100577 20.7339677 5.183981 31.1972037.139379 1.346086 1.411808 2.697718 2.72577 2.813413l18.52855 1.631444.453647-8.686632c.163723-3.135056 5.250865-3.315273 5.865005.153028l1.265232 7.145292c.06078.343252-.04579.681054-.520282.988802L55.151911 39.187772 59.999999 40z"/></svg>