<svg xmlns:rdf="http://www.w3.org/1999/02/22-rdf-syntax-ns#" xmlns:svg="http://www.w3.org/2000/svg" xmlns="http://www.w3.org/2000/svg" viewBox="0 0 60 80" height="80mm" width="60mm"><path d="m2.1659372 37.31878 10.9259788-.464308-.07721-4.636089-4.8088271-.09864.065037-2.271474-1.6631927-.325991.022383-.782329 1.6792109-.23331.064575-2.254722L13.646 26.003918 16.204064 6.1021748c1.292727-10.0574255 7.565259-6.00148936 8.454088.1549947l4.211446 29.1706335 2.246105 1.642978 18.803407 1.614016.551471-7.737773c.417169-5.853358 8.829099-.758367 6.948532 7.145929L55.45588 39.583515 60 39.999999l-4.54412.416483 1.963237 1.490562c1.880567 7.904297-6.531363 12.999287-6.948532 7.14593L49.919114 41.3152 31.115707 42.929217 28.869602 44.572195 24.658156 73.742831c-.888829 6.156484-7.161361 10.21242-8.454088.154994L13.646004 53.99608 8.3738958 53.74808 8.3093212 51.493358 6.6301103 51.260049 6.607727 50.477719 8.2709197 50.151728 8.2058829 47.880254 13.01471 47.781614 13.091916 43.145525 2.1659372 42.681217C.67628382 41.678498.27254717 40.829935.0 39.999999.27254717 39.170063.67628382 38.321499 2.1659372 37.31878z"/></svg>