<svg xmlns:rdf="http://www.w3.org/1999/02/22-rdf-syntax-ns#" xmlns:svg="http://www.w3.org/2000/svg" xmlns="http://www.w3.org/2000/svg" viewBox="0 0 60 80" height="80mm" width="60mm"><path d="m54.073408 40.643182c1.938414 1.144331 3.104076 2.908125 3.112339 5.096351.0284 7.521583-4.919208 11.033508-6.735528 7.185961L45.370284 42.164556 32.745151 43.500397c-2.437353.257896-4.136222 1.571196-4.158575 3.215912l-.373524 27.483682c-.11167 8.216587-10.15442 7.448419-11.579264-.692658L15.825456 68.888798 7.3539931 68.663259 15.727263 68.327755 13.35972 54.80041 7.2934074 54.245274 13.172766 53.732213 11.850265 46.175887c-1.111169-.545062-1.528577-.984515-1.77842-1.731734L5.7578556 44.409223C4.9943084 44.403287 4.2259483 43.883238 4.2259483 43.289719V41.453028C2.3328965 41.621334.44526031 40.957461.0 40 .44526031 39.042538 2.3328965 38.378665 4.2259483 38.546971V36.71028c0-.593519.7683601-1.113567 1.5319073-1.119504l4.3139894-.03493c.249843-.747219.667251-1.186672 1.77842-1.731734L13.172766 26.267786 7.2934074 25.754725 13.35972 25.199589 15.727263 11.672244 7.3539931 11.33674 15.825456 11.111201 16.633788 6.4926658c1.424844-8.1410773 11.467594-8.9092449 11.579264-.692658L28.586576 33.28369c.02235 1.644717 1.721222 2.958016 4.158575 3.215913l12.625133 1.33584 5.079935-10.760938c1.81632-3.847547 6.763926-.335622 6.735528 7.185961-.0083 2.188226-1.173925 3.95202-3.112339 5.096351L59.999999 40z"/></svg>