<svg xmlns:rdf="http://www.w3.org/1999/02/22-rdf-syntax-ns#" xmlns:svg="http://www.w3.org/2000/svg" xmlns="http://www.w3.org/2000/svg" viewBox="0 0 60 80" height="80mm" width="60mm"><path d="m54.689439 39.373986 1.21118-1.001645c.321282-3.570947-1.114273-8.340685-3.260869-8.388727-2.504764-.05606-3.701879 5.055044-4.068323 8.357423L32.298136 37.433305C30.931937 37.35709 30.221894 36.133497 30.124224 34.991811L27.732918 7.0398193C27.407256 3.2331468 19.373259 2.7921318 18.944098 6.9146155L15.900623 36.149951 6.6149091 36.650777C5.5000565 36.71091 4.6396217 37.391169 3.9130453 38.247137 1.5790704 38.057505.62165226 38.902564.0 39.999999c.62165226 1.097435 1.5790704 1.942495 3.9130453 1.752862.7265764.855968 1.5870112 1.536227 2.7018638 1.596359l9.2857139.500828 3.043475 29.235335c.429161 4.122485 8.463158 3.681469 8.78882-.125203l2.391306-27.951993c.09768-1.141685.807713-2.365289 2.173912-2.441494l16.273291-.907732c.366444 3.302379 1.563559 8.413477 4.068323 8.357424 2.146596-.04805 3.582151-4.817781 3.260869-8.388728l-1.21118-1.001644 5.31056-.626014z"/></svg>