<svg xmlns:rdf="http://www.w3.org/1999/02/22-rdf-syntax-ns#" xmlns:svg="http://www.w3.org/2000/svg" xmlns="http://www.w3.org/2000/svg" viewBox="0 0 60 80" height="80mm" width="60mm"><path d="m53.424659 41.26234 1.303041.520955c-.204982 3.823374-1.256047 9.515485-3.628467 9.45744-2.413848-.05906-4.017692-4.178254-4.550618-9.196959l-18.422987 1.582918c-1.224608.10522-2.17205 1.585887-2.325426 2.825213l-3.568326 28.833171c-.631143 5.099837-9.006947 5.020302-9.22152-.681256L11.947878 46.371761C11.686323 44.981481 11.013329 43.79019 9.5823584 42.965479v1.001843l-1.5436012.04007C6.4836741 44.333599 4.8096042 45.064172 3.6084194 44.187717 2.9659023 44.017319 2.2516134 44.076491 1.7841603 43.346168 1.1003197 52.956546.33686541 50.650503.30070161 41.242289.06984978 40.977133.0 40.67876.0 39.999998.0 39.321237.06984978 39.022864.30070161 38.757709.33687675 29.349495 1.1003197 27.043452 1.7841603 36.653829c.4674531-.730323 1.181742-.67115 1.8242591-.84155 1.2011848-.876454 2.8752547-.145882 4.4303378.180329l1.5436012.04007v1.001844C11.013329 36.209807 11.686323 35.018517 11.947878 33.628237L13.010356 5.3961772c.214573-5.70155809 8.590377-5.78109309 9.22152-.6812554l3.568326 28.8331672c.153376 1.239326 1.100818 2.719995 2.325426 2.825214l18.422987 1.582918c.532926-5.018704 2.13677-9.1379 4.550618-9.196959 2.37242-.05804 3.423485 5.634066 3.628467 9.45744l-1.303041.520955 6.57534 1.262341z"/></svg>