<svg xmlns:rdf="http://www.w3.org/1999/02/22-rdf-syntax-ns#" xmlns:svg="http://www.w3.org/2000/svg" xmlns="http://www.w3.org/2000/svg" viewBox="0 0 60 80" height="80mm" width="60mm"><path d="m54.617249 39.088237-1.537928-9.739286c-.252745-1.600567-3.34379-2.257111-3.720125-.704545l-2.265327 9.345571C40.322624 36.801946 33.379276 36.815117 26.414963 36.974605l-.103914-4.330874c1.236478-.01153 1.990712-.634998 2.814289-1.17048C28.1351 30.901062 27.378109 30.442134 26.269483 30.488654L25.438171 4.8349604C25.352109 2.1791441 20.647272-.28889472 19.722895 3.2808232L12.843782 29.846276c-2.509171-.133109-6.3122577.201019-7.4818142 1.574863 1.4334355 1.317871 4.9252982 1.637187 7.5441622 1.740639v3.688496C8.9158291 36.90553.0 36.098015.0 40c0 3.901984 8.9158291 3.094469 12.90613 3.149726v3.688495c-2.618864.103452-6.1107267.422768-7.5441622 1.740639 1.1695565 1.373844 4.9726432 1.707973 7.4818142 1.574863l6.879113 26.565453c.924377 3.569718 5.629214 1.101679 5.715276-1.554137l.831312-25.653694c1.108626.04652 1.865617-.412407 2.855855-.984597-.823577-.535482-1.577811-1.158958-2.814289-1.17048l.103914-4.330874c6.964313.159488 13.907661.17266 20.678906-1.015371l2.265327 9.34557c.376335 1.552565 3.46738.896022 3.720125-.704544L54.617249 40.911763 59.999999 40z"/></svg>