<svg xmlns:rdf="http://www.w3.org/1999/02/22-rdf-syntax-ns#" xmlns:svg="http://www.w3.org/2000/svg" xmlns="http://www.w3.org/2000/svg" viewBox="0 0 60 80" height="80mm" width="60mm"><path d="m7.5442066 42.751637 7.4656184-.07919 4.007859 27.456958c.451772 3.094992 6.034131 1.937926 6.306482-.494898l1.748528-15.618991 1.119842-.593877.05894-2.63286-.746562-.554285.314342-6.176332 1.611002-1.266939 19.705305-1.643063 2.671906 9.917763c.379245 1.407712 3.755918.864116 3.988211-.811634L57.151276 40.475098 60 39.999996 57.151276 39.524895 55.795678 29.745703c-.232293-1.675746-3.608966-2.219342-3.988211-.81163l-2.671906 9.917763L29.430256 37.208773 27.819254 35.941834 27.504912 29.765502 28.251474 29.211217 28.192536 26.578358 27.072694 25.98448 25.324166 10.365489C25.051815 7.932666 19.469456 6.7756017 19.017684 9.8705928L15.009825 37.327551 7.5442066 37.248367C5.0294711 38.165577.0 38.503698.0 40.000001c0 1.496304 5.0294711 1.834426 7.5442066 2.751636z"/></svg>