<svg xmlns:rdf="http://www.w3.org/1999/02/22-rdf-syntax-ns#" xmlns:svg="http://www.w3.org/2000/svg" xmlns="http://www.w3.org/2000/svg" viewBox="0 0 60 80" height="80mm" width="60mm"><path d="m3.0099513 41.642786c.7551731.694547 1.4602334 1.420226 3.4872873 1.32483.660243.939148 3.7961624.891784 5.8848884.927382v3.668144c-4.4725551-.155305-4.7629711 2.010069.0 1.929797v21.808586c0 9.49964 12.904067 9.670519 12.904067.07494V43.550542c7.001104-.19857 14.002209-.861663 21.003313-2.119727l4.614363 7.445533v1.66928c0 3.056843 6.699735 1.584172 6.682873-1.801765L57.560223 43.418057 55.862986 41.536801 53.794476 40.397448 60.000001 40l-6.205525-.397449 2.06851-1.139352 1.697237-1.881256.02652-5.325807c.01686-3.385937-6.682873-4.858608-6.682873-1.801764v1.669279l-4.614363 7.445534C39.288403 37.311121 32.287298 36.648028 25.286194 36.449457V8.6235304c0-9.59557507-12.904067-9.42469627-12.904067.074944V30.50706c-4.7629711-.08027-4.4725551 2.085103.0 1.929797v3.668145C10.293401 36.1406 7.1574816 36.093236 6.4972386 37.032383 4.4701847 36.936987 3.7651244 37.662667 3.0099513 38.357214 1.8278101 38.389739.99384859 39.407946.0 40c.99384859.592054 1.8278101 1.610261 3.0099513 1.642786z"/></svg>