<svg xmlns:rdf="http://www.w3.org/1999/02/22-rdf-syntax-ns#" xmlns:svg="http://www.w3.org/2000/svg" xmlns="http://www.w3.org/2000/svg" viewBox="0 0 60 80" height="80mm" width="60mm"><path d="m18.157597 43.373693.08278 2.427651-5.214718.213158-.283794.37895-.01182.864483-1.643649.438161 1.679117.307899-.02364.994745c-.0069.290923.196513.426318.543939.426318h1.371672l.94598.414476 2.639927-.09255 7.909853 28.035151c.316095 1.12035 1.020908 2.322102 1.688996 2.210658 1.338749-.223316 2.418625-2.205408 2.408077-3.801662L30.041483 44.628967c.668697-.68192 1.438749-1.318425 2.459551-1.302644 5.093063.07873 10.795575-.992529 16.286424-1.701825l3.94656 8.047125c1.09775 2.238339 4.665198.801764 4.640563-.611281l-.11706-6.715705C56.830928 41.958674 56.324189 41.741263 56.195626 40.728511L57.5 39.999997 56.195626 39.271488c.128563-1.012756.635302-1.230163 1.061895-1.616125l.11706-6.715705c.02463-1.413046-3.542813-2.84962-4.640563-.611282L48.787458 38.3755C43.296609 37.666202 37.594097 36.594943 32.501034 36.673673 31.480232 36.689446 30.71018 36.052952 30.041483 35.371034L30.250306 3.8088657C30.260853 2.212612 29.180977.23051983 27.842228.00720353 27.17414-.10424017 26.469328 1.0975122 26.153232 2.2178616l-7.909853 28.0351524-2.639926-.09255-.94598.414476h-1.371672c-.347427.0-.550855.135395-.543939.426322l.02364.994744-1.679118.307895 1.643649.438161.01182.864483.283795.378951 5.214718.213157-.08278 2.427651C14.316899 36.736763 4.5 37.350289 4.5 40.000001c0 2.649709 9.816899 3.26323 13.657597 3.373692z"/></svg>