<svg xmlns:rdf="http://www.w3.org/1999/02/22-rdf-syntax-ns#" xmlns:svg="http://www.w3.org/2000/svg" xmlns="http://www.w3.org/2000/svg" viewBox="0 0 60 80" height="80mm" width="60mm"><path d="m53.631771 39.486741c1.002197-.404322 2.014391-.838241 2.20074-1.651345.940053-4.101762-.971351-8.772712-2.281791-8.808395-2.66169-.0725-4.011636 6.405414-5.212712 9.92661C40.681836 37.669873 33.499592 37.331446 26.188897 36.736805L22.711566 7.9143354C21.545814-1.7482202 17.438258-1.6160648 17.106559 3.2557009L15.395314 28.389235c-2.544221.134015-5.318654-.629471-7.3301603 1.581389 1.1040185 1.881402 4.4973503 1.479637 7.2606143 1.706247l-.292094 4.022844-.445095.762955C11.287711 36.398975 2.5955011 36.851894 1.5 40c1.0955011 3.148106 9.787711 3.601025 13.088579 3.537331l.445095.762954.292094 4.022845c-2.763264.22661-6.1565958-.175155-7.2606143 1.706246 2.0115063 2.21086 4.7859393 1.447374 7.3301603 1.58139l1.711245 25.133533c.331699 4.871766 4.439255 5.003922 5.605007-4.658634l3.477331-28.822469c7.310695-.594641 14.492939-.933069 22.149111-2.216805 1.201076 3.521194 2.551022 9.999106 5.212712 9.926609 1.31044-.03571 3.221844-4.706634 2.281791-8.808395-.186349-.813104-1.198543-1.247024-2.20074-1.651346L58.5 40z"/></svg>