<svg xmlns:rdf="http://www.w3.org/1999/02/22-rdf-syntax-ns#" xmlns:svg="http://www.w3.org/2000/svg" xmlns="http://www.w3.org/2000/svg" viewBox="0 0 60 80" height="80mm" width="60mm"><path d="m53.929477 40.811996v9.473222c0 2.81778-5.005991 3.354841-5.724293.78943l-2.60825-9.315332-15.649475 1.872093c-1.995418.238706-3.194846 2.412127-3.416117 3.879519l-4.431708 29.38954c-.641343 4.253145-7.865851 4.061292-8.10172-.157888l-.964101-17.245717-5.1092839-.496129 5.0664179-.270622-.13879-2.48268-2.053966-.246909 2.025051-.270329-.166817-2.984014-1.919694-.148797 1.897106-.255388-.08222-1.470753c-4.6968377.08285-4.2682399-2.096293-.10661-1.90701L12.192026 44.438901 4.81479 44.566492C3.9566598 44.581357 3.378513 44.051346 3.378513 43.705241V40.595186H2.9541587C3.0189217 50.971956 1.3463521 52.010319 1.5994892 41.631864.80646248 41.248545.0 40.832252.0 40.000001.0 39.16775.80646248 38.751455 1.5994892 38.368137 1.3463521 27.989682 3.0189217 29.028045 2.9541587 39.404816H3.378513V36.29476c0-.346105.5781468-.876117 1.436276-.861252l7.377236.127592.252981-4.525332c-4.1616299.189284-4.5902277-1.989861.10661-1.907009l.08222-1.470752-1.897106-.255388 1.919694-.148799.166817-2.984013-2.025051-.270329 2.053966-.24691.13879-2.482678-5.0664179-.270624 5.1092839-.496128.964101-17.2457183c.235869-4.21918057 7.460377-4.4110343 8.10172-.1578887l4.431708 29.389543c.221271 1.467391 1.420699 3.640812 3.416117 3.879517l15.649475 1.872094 2.60825-9.315333c.718302-2.565409 5.724293-2.028349 5.724293.789431v9.473222l6.070522.811996z"/></svg>