<svg xmlns:rdf="http://www.w3.org/1999/02/22-rdf-syntax-ns#" xmlns:svg="http://www.w3.org/2000/svg" xmlns="http://www.w3.org/2000/svg" viewBox="0 0 60 80" height="80mm" width="60mm"><path d="m4.5904599 40.653777.054932 2.666831 1.317472.698153 7.4465801.433987 1.77572 35.077497c3.804521.885845 6.950817.308121 10.205633-.0283l.639807-.755589 4.467783-34.444558c6.88544.153195 13.388786-.732 19.699638-2.140328l3.267318 11.020828c1.957619 2.060932 3.890532 1.185065 5.656111.613754L60 42.641797 55.895591 40.933968 59.459949 40 55.895591 39.066032 60 37.358204 59.121454 26.20395c-1.765579-.571311-3.698492-1.447179-5.656111.613753l-3.267318 11.02083C43.887173 36.430206 37.383827 35.545011 30.498387 35.698205L26.030604 1.2536462 25.390797.49805689C22.135981.16163476 18.989685-.41608977 15.185164.46975508L13.409444 35.547253 5.9628637 35.98124 4.6453917 36.679392 4.5904599 39.346223.0 40z"/></svg>