<svg xmlns:rdf="http://www.w3.org/1999/02/22-rdf-syntax-ns#" xmlns:svg="http://www.w3.org/2000/svg" xmlns="http://www.w3.org/2000/svg" width="60mm" height="80mm" viewBox="0 0 60 80"
   ><path d="m57.541453 40.739779 1.963782 1.506463-.188308 10.760439c-.04625 2.642637-4.629988 4.078347-5.151563 2.407649L49.928441 41.842725 31.578982 43.36919 25.682176 76.467379 16.399465 76.999999 13.888569 43.920824c-2.949358.01582-9.5870637-.01765-9.5870637-1.958013V41.398857C2.6904275 41.376044 1.0544565 41.264029.0 40 1.0544565 38.735971 2.6904275 38.623955 4.3015053 38.601142v-.563954c0-1.940366 6.6377057-1.973831 9.5870637-1.958013L16.399465 3l9.282711.5326202 5.896806 33.0981888 18.349459 1.526465 4.236923-13.571606c.521575-1.670697 5.105315-.234985 5.151563 2.40765l.188308 10.76044-1.963782 1.506461L60.204662 40z"/></svg>