<svg xmlns:rdf="http://www.w3.org/1999/02/22-rdf-syntax-ns#" xmlns:svg="http://www.w3.org/2000/svg" xmlns="http://www.w3.org/2000/svg" viewBox="0 0 60 80" height="80mm" width="60mm"><path d="m3.6704844 41.636614.00859.434735.6790815-.02557.2492857.690455 5.5100254.127863.266479-.255723 5.088824.136386-.01719 5.574779-1.813756-.01705c-.894393-.0084-.972267 1.748579-.07736 1.773022l1.873927.05114-.152964 22.859833c-.0053.79241.712438 1.933254 1.993679 1.9529l3.926569.06028c1.674016.02571 4.402152-1.467672 5.562229-2.795519l.137536-21.39556-2.561605-4.142724.01719-3.818811c9.085206-.152604 18.041303-.660912 26.871061-1.517293l1.048711 9.683406c.04549.420007.303808.802601.773641.818317l1.530083.05115c-.444257.123532-.625812.407123-.567333.750122.140083.821671.953348.730083 1.73639.630784 1.089532-.138161 1.688307-.945727 1.736386-1.773015L58.126073 40.545544C58.810755 40.493932 60 40.478323 60 39.999999 60 39.521675 58.810755 39.506065 58.126073 39.454454L57.489969 28.509473c-.04806-.827289-.646854-1.634856-1.736386-1.773017-.783042-.09929-1.596307-.190885-1.73639.630786-.05848.342999.123076.626589.567333.750122l-1.530083.05115c-.469833.01572-.728156.39831-.773641.818317l-1.048711 9.683404C42.402333 37.813853 33.446236 37.305545 24.36103 37.152941L24.343837 33.33413 26.905442 29.191405 26.767906 7.7958443C25.60783 6.4679975 22.879694 4.9746302 21.205678 5.000327l-3.926569.060275c-1.281241.019667-1.998985 1.1604898-1.993679 1.9528998l.152964 22.8598352-1.873927.05114c-.894903.02444-.81703 1.781431.07736 1.773022l1.813755-.01705.01719 5.574779-5.088824.136386-.266478-.255724-5.5100262.127865-.2492857.690453-.6790815-.02556-.00859.434735C2.1677355 38.66904.0 39.258772.0 39.999999c0 .741227 2.1677355 1.330959 3.6704844 1.636615z"/></svg>