<svg xmlns:rdf="http://www.w3.org/1999/02/22-rdf-syntax-ns#" xmlns:svg="http://www.w3.org/2000/svg" xmlns="http://www.w3.org/2000/svg" viewBox="0 0 60 80" height="80mm" width="60mm"><path d="m54.645588 39.389264-.244773-8.336612c-.118353-4.030939-4.759698-5.443431-5.81336-2.442968l-3.335034 9.497028-13.584907-.732891-1.621621-1.190945-.581336-9.802393.795511-.18322-.795511-.305373-.856706-9.313799C27.485428 4.3754996 17.802913-1.3307826 16.945282 10.484601l-.943245 12.994859-4.222336.396988 4.191739.519123.0306.366449-4.314127.519132 4.161142.641276-.64253 10.352063L7.8633332 36.885228 7.3718081 37.60821 7.2744501 37.133162 6.5388575 37.305908 6.4523205 37.6298 5.3095981 37.66216 4.7755995 38.040034C3.0045289 38.136245.0 38.347827.0 40.000001c0 1.652173 3.0045289 1.863756 4.7755996 1.959967l.5339986.377876 1.1427224.03236.086537.323892.7355926.172745.097358-.475047.4915251.722982 7.3431917.610738.642529 10.352062-4.161143.641276 4.314127.519131-.0306.36645-4.191739.519123 4.222336.396988.943245 12.994859c.857631 11.815384 10.540146 6.109101 11.66257-6.093491l.856705-9.313798.795511-.305373-.795511-.183221.581336-9.802392 1.621622-1.190945 13.584906-.732891 3.335035 9.497028c1.053661 3.000462 5.695006 1.58797 5.813359-2.442968L54.645588 40.610738 60 40.000001z"/></svg>