<svg xmlns:rdf="http://www.w3.org/1999/02/22-rdf-syntax-ns#" xmlns:svg="http://www.w3.org/2000/svg" xmlns="http://www.w3.org/2000/svg" viewBox="0 0 60 80" height="80mm" width="60mm"><path d="m55.663233 39.654892-.569795-9.443364c-.125258-2.075922-4.71184-1.180614-5.080666.423537L48.09763 38.964682 30.687245 38.352901 28.47138 36.141079 25.047293 8.387256C24.603582 4.7907781 16.502874 3.4704596 16.093836 7.3667723L12.870593 38.069819 8.3938644 38.513508 8.1700326 37.470846 3.603766 38.535687 3.4918501 39.2234 1.8802255 39.112481 1.701156 33.011804C.44092333 34.22886.97068792 36.998211 1.0520319 39.37869.6007639 39.555885.0 39.555354.0 40c0 .444646.6007639.444114 1.0520319.62131-.081344 2.380478-.61110857 5.149831.6491241 6.366886l.1790695-6.100677 1.6116246-.110919.1119159.687713 4.5662666 1.064841.2238318-1.042663 4.4767286.44369 3.223243 30.703046c.409038 3.896314 8.509746 2.575995 8.953457-1.020483L28.47138 43.858922 30.687245 41.6471 48.09763 41.035319l1.915142 8.329617c.368826 1.604151 4.955408 2.499458 5.080666.423536L55.663233 40.345108 60 40z"/></svg>