<svg xmlns:rdf="http://www.w3.org/1999/02/22-rdf-syntax-ns#" xmlns:svg="http://www.w3.org/2000/svg" xmlns="http://www.w3.org/2000/svg" viewBox="0 0 60 80" height="80mm" width="60mm"><path d="m3.6062794 41.79302-.017617 1.354536c-.00481.370128.3283681.429645.5907581.334236.4861604.95224 1.1359134 1.02736 1.8075496.985116.5797661.727231 2.3341061.651633 4.1597059.527328l.61101 1.225238-1.8267901.0622v.267436l1.9514871-.02487.293033.96402.82299 8.98717-.816753.01865-.0187.255.866637-.0062 1.637268 17.858095c.22283 2.430453 8.19258 1.429323 8.525427-.978388l1.066147-7.712173.31174-.174145.31174-3.103529-.16834-.186585 2.15645-16.958926c.09191-.722823.879417-1.717445 1.596887-1.792849l21.659635-2.276334c.216739-.02278.458029.172774.473843.422923l.614239 9.715287c.121151 1.916237 5.023032 1.563915 5.078773-.202301l.149894-4.749676.211618-.193502.0088-2.031805L55.443278 44.176685 55.361318 40.67172 60 39.999983l-4.638678-.671702.08196-3.504965.220433-.202305-.0088-2.031804-.211618-.193503-.149894-4.749676C55.237663 26.879813 50.335781 26.52749 50.21463 28.443727l-.614239 9.715287c-.01582.250149-.257104.445703-.473843.422924L27.46691 36.305603c-.71747-.0754-1.504976-1.070025-1.596887-1.792849l-2.15645-16.958926.16834-.186584-.31174-3.103529-.31174-.174145-1.066147-7.712174C21.859439 3.9696853 13.889689 2.9685551 13.666859 5.3990076L12.029591 23.257103l-.866637-.0062.0187.255.816753.01865-.82299 8.987169-.293033.964021-1.9514871-.02487v.267435l1.8267901.0622-.61101 1.225239c-1.8255998-.124306-3.5799398-.199904-4.1597059.527327-.6716362-.04225-1.3213892.03288-1.8075496.985117-.26239-.09541-.595573-.03589-.5907581.334235l.017617 1.354536C2.3895589 38.196296.0 38.612476.0 39.999983c0 1.387505 2.3895589 1.803686 3.6062794 1.793037z"/></svg>