<svg xmlns:rdf="http://www.w3.org/1999/02/22-rdf-syntax-ns#" xmlns:svg="http://www.w3.org/2000/svg" xmlns="http://www.w3.org/2000/svg" viewBox="0 0 60 80" height="80mm" width="60mm"><path d="m3.2651632 42.001287.04849-1.436406.4041037.03223.139075 3.337658c1.4941223 1.240398 3.1628238 1.144397 4.9148132.410842L8.5659086 43.432626h1.2344181v24.079945c0 3.564718 2.6781783 7.342352 5.3758983 7.483454 2.803486.146634 6.831126-3.785349 6.831126-8.305138V47.17586l-1.051542-3.37804c7.403686-.122997 19.261872-.818536 26.608569-2.556363.301211 4.383398 1.307102 11.347465 4.571919 11.343813 2.892924-.0027 4.75265-6.144919 5.326287-10.385181l-4.57192-1.98572 7.109335-.21437-7.109335-.214368 4.57192-1.985722C56.888947 33.559648 55.029221 27.417815 52.136297 27.414729 48.87148 27.411078 47.865589 34.375144 47.564378 38.758542 40.217681 37.020714 28.359495 36.325176 20.955809 36.202179l1.051542-3.37804V13.309113c0-4.5197895-4.02764-8.451773-6.831126-8.3051387-2.69772.1411016-5.3758983 3.9187361-5.3758983 7.4834537V36.567373H8.5659086L8.7716449 35.654389C7.0196555 34.920834 5.350954 34.824834 3.8568317 36.065232L3.7177567 39.40289 3.313653 39.435121 3.265163 37.998714C1.5905012 38.094557.0 38.81774.0 39.999999c0 1.182259 1.5905012 1.905443 3.2651632 2.001288z"/></svg>