<svg xmlns:rdf="http://www.w3.org/1999/02/22-rdf-syntax-ns#" xmlns:svg="http://www.w3.org/2000/svg" xmlns="http://www.w3.org/2000/svg" viewBox="0 0 60 80" height="80mm" width="60mm"><path d="m57.030938 40.323456c1.26897 15.449019-8.075486 16.721537-9.044572 1.440829l-17.560567 1.411432.02936.499884c-5.496691.480053-3.709058 3.096899-2.61085 4.97777L22.350287 76.22669c-1.058523 5.312502-8.171809 4.455593-8.574724.882142L10.897745 51.585488C8.1776365 51.714492 6.8771477 50.96872 5.0833774 50.526909L3.9674879 55.231674 4.5841637 50.232867C2.9276722 49.580093 2.796817 48.837024 4.6722602 48.027511L3.8500266 43.234529 5.4063973 47.82167C7.1647492 47.300188 8.776419 46.455566 10.897745 46.733694l.146828-3.91083C8.2179596 42.438483 5.1218511 42.539842 3.4095436 40.14703L2 40 3.4095436 39.85297c1.7123075-2.392812 4.808416-2.291454 7.6350294-2.675834l-.146828-3.91083C8.776419 33.544434 7.1647492 32.699812 5.4063973 32.17833L3.8500266 36.76547 4.6722602 31.972489C2.796817 31.162976 2.9276722 30.419907 4.5841637 29.767132L3.9674879 24.768326 5.0833774 29.47309C6.8771477 29.03128 8.1776365 28.285508 10.897745 28.414512L13.775563 2.8911671c.402915-3.57344994 7.516201-4.4303586 8.574724.8821427l5.494029 27.5733192c-1.098208 1.88087-2.885842 4.497717 2.61085 4.97777l-.02936.499884 17.560566 1.411431C48.955454 22.955007 58.29991 24.227524 57.03094 39.676543L58 40z"/></svg>