<?xml version="1.0" encoding="UTF-8"?><svg width="60mm" height="80mm" version="1.1" viewBox="0 0 60 80" xmlns="http://www.w3.org/2000/svg"><path d="m55.855 40.096c-0.05257 0.48163-0.76759 0.49114-1.3479 0.50308l-0.69536 10.126c-0.06066 0.8835-4.838 2.0315-5.3275 0.14985l-2.4391-9.3765c-5.2119 0.41076-10.4 0.65227-15.555 0.66364v9.8689l-4.1166 25.743c-0.322 2.0136-4.2344 3.3189-4.4177 0.96881l-1.9924-25.556c-0.073049-0.937-1.0805-2.3548-1.8828-2.3548h-2.1824c-0.23687 0-0.50082-0.24168-0.50082-0.47237v-0.49197c-2.9489-0.05016-2.792-1.7459 0-1.6424v-0.49196c0-0.27661 0.27652-0.386 0.53708-0.386h2.292c0.5965 0 1.7625-1.1521 1.7625-1.5592v-3.633h-12.542c-1.9543 0-4.4479-0.36465-4.4479-2.1554 0-1.7907 2.4936-2.1554 4.4479-2.1554h12.542v-3.633c0-0.40702-1.166-1.5592-1.7625-1.5592h-2.292c-0.26056 0-0.53708-0.1094-0.53708-0.386v-0.49196c-2.792 0.1035-2.9489-1.5922 0-1.6424v-0.49197c0-0.2307 0.26395-0.47237 0.50082-0.47237h2.1824c0.80234 0 1.8098-1.4178 1.8828-2.3548l1.9924-25.556c0.18322-2.3501 4.0957-1.0448 4.4177 0.96881l4.1166 25.743v9.8689c5.1549 0.01135 10.343 0.25287 15.555 0.66364l2.4391-9.3765c0.48947-1.8816 5.2668-0.73365 5.3275 0.14985l0.69536 10.126c0.58033 0.01189 1.2954 0.02143 1.3479 0.50308l1.1447 0.09634z"/></svg>