<svg xmlns:rdf="http://www.w3.org/1999/02/22-rdf-syntax-ns#" xmlns:svg="http://www.w3.org/2000/svg" xmlns="http://www.w3.org/2000/svg" viewBox="0 0 60 80" height="80mm" width="60mm"><path d="m2.616688 38.327127.3738124-7.940523.4548867 7.756619 1.9714271-.420001.2312852-.55264 1.1233822-.176838.1431772.342639.4295279-.03322.1343766-.408726 1.0881294-.20967.033045.441545.5275243-.04976.077866-.484553 1.479675-.296997v.719023c1.260126-.09647 1.88568-.664607 2.024818-1.594358L12.83422 33.200075 12.429256 32.54358 12.865372 31.9496 14.485225 4.9080565c.279899-4.6725907 8.311555-3.549989 9.376466 2.1883261l4.890715 26.3537904c.294717 1.5881 1.828955 3.230814 3.769277 3.376287l16.971382 1.272471 1.013247-6.587449c.326629-2.123523 4.966601-2.764045 6.211647.574752l.198244 5.548483-2.75339 1.834756L60 40l-5.837187.530526 2.75339 1.834757-.198244 5.548482c-1.245046 3.338797-5.885018 2.698274-6.211647.574752l-1.013247-6.587448-16.971382 1.272469c-1.940322.145475-3.47456 1.788189-3.769277 3.376288l-4.890715 26.353791c-1.064911 5.738315-9.096567 6.860917-9.376466 2.188327l-1.619853-27.041545-.436116-.59398.404964-.656495-.124599-2.219597c-.139138-.929751-.764692-1.497914-2.024818-1.594359v.719023L9.2051284 43.407995 9.1272623 42.92344 8.599738 42.873683 8.5666927 43.315228 7.4785633 43.105558 7.3441867 42.696832 6.9146588 42.663616 6.7714816 43.006255 5.6480994 42.829417 5.4168142 42.276778 3.4453871 41.856777 2.9905004 49.613395 2.616688 41.672872C1.6439137 41.320494.0 41.302072.0 40 0 38.697926 1.6439137 38.679506 2.616688 38.327127z"/></svg>