<svg xmlns:rdf="http://www.w3.org/1999/02/22-rdf-syntax-ns#" xmlns:svg="http://www.w3.org/2000/svg" xmlns="http://www.w3.org/2000/svg" viewBox="0 0 60 80" height="80mm" width="60mm"><path d="m53.522613 40.249328-1.999 1.323368h2.208419c1.391889.658489 2.602737 1.243895 2.684373 1.97546.73457 6.582743-3.541996 15.341544-6.168345 10.644474L45.164887 45.101677C44.61714 44.122068 43.65072 43.374148 42.366286 43.605696l-3.61724.652092-7.101212 3.011141c-1.040094.441033-1.668657 1.593843-1.838511 2.651638l-3.553961 22.132796c-1.544265 9.617133-10.991457 9.90736-11.496524 4.068528l-1.958533-22.641677-1.67265.0033-.03753-.433928 1.67265-.0033-.55284-6.391094C12.172778 46.22586 11.856432 45.918703 11.527966 45.933409L7.8932334 46.096151C7.0320603 46.13472 6.3451068 45.429899 6.3451068 44.739974V42.876887C4.8497725 42.41992 3.5 41.47261 3.5 39.999998 3.5 38.527386 4.8497725 37.580075 6.3451068 37.12311v-1.863089c0-.689924.6869535-1.394745 1.5481266-1.356175l3.6347326.16274c.328466.0147.644812-.29245.681967-.721783l.55284-6.391094-1.67265-.0033.03753-.433927 1.67265.0033 1.958533-22.6416734c.505067-5.8388316 9.952259-5.5486045 11.496524 4.0685281L29.809323 30.07943c.169854 1.057796.798417 2.210605 1.838511 2.651639l7.101212 3.011139 3.61724.652093c1.284434.231548 2.250854-.516372 2.798601-1.495982l5.083173-9.090952c2.626349-4.697067 6.902915 4.061731 6.168345 10.644474-.08163.731564-1.292484 1.316972-2.684373 1.97546h-2.208419l1.999 1.323368 2.836677.24933z"/></svg>