<svg xmlns:rdf="http://www.w3.org/1999/02/22-rdf-syntax-ns#" xmlns:svg="http://www.w3.org/2000/svg" xmlns="http://www.w3.org/2000/svg" viewBox="0 0 60 80" height="80mm" width="60mm"><path d="m55.471211 39.410898 2.379534-.768435-1.023452-8.37595c-.331132-2.709982-4.425394-2.379761-4.989338-.204914l-2.251607 8.68332C41.588024 37.429091 33.696445 36.597741 25.97015 36.51646L21.753041 7.2878804C21.287852 4.0636847 14.156105 2.3185383 14.009543 6.3098218L13.278586 26.216191c-1.293063.0036-1.346515.4017-.01397.381175l-.322521 8.782532-.737412.688308-1.970149-.08965c-1.3152622-.895922-4.6392418-1.1926-6.7292046.742819v1.434413H2.9680175C2.6823114 28.455156 1.7798104 29.041223 1.7782472 38.130142.77188198 38.108479.0 38.826606.0 40.000001c0 1.173395.77188198 1.891522 1.7782472 1.86986.00145 9.088918.9040642 9.674985 1.1897703-.02565h.5373119v1.434414c2.0899628 1.935418 5.4139424 1.638741 6.7292076.742817l1.970149-.08965.737412.688307.322521 8.782532c-1.332548-.0205-1.279096.377552.01397.381175l.730957 19.906369c.146562 3.991281 7.278309 2.246138 7.743498-.978058L25.97015 43.483541c7.726295-.08128 15.617874-.912629 23.616198-2.228459l2.251607 8.683321c.563944 2.174847 4.658206 2.505069 4.989338-.204914l1.023452-8.37595-2.379534-.768435 4.528788-.589103z"/></svg>