<svg xmlns:rdf="http://www.w3.org/1999/02/22-rdf-syntax-ns#" xmlns:svg="http://www.w3.org/2000/svg" xmlns="http://www.w3.org/2000/svg" viewBox="0 0 60 80" height="80mm" width="60mm"><path d="m53.698377 40.3664 2.229668 1.271632-.192952 7.392689c-.0803 3.076448-4.559732 4.371673-5.424094.431062l-1.843764-8.405681-22.875529 1.939773c2.69613 2.517867 4.188983 6.087626 5.02934 10.227786l-5.730382 23.317653c-1.011343 4.115275-8.896075 5.025835-8.944246.152402l-.27609-27.932352c-2.34432.220186-2.448194-1.614911-.01546-1.562545L15.612908 42.951703 8.2452743 42.768819C5.7105493 42.705901 4.2331902 40.978499 3 39.999998 4.2331902 39.021499 5.7105493 37.294096 8.2452698 37.231179l7.3676332-.182884.04196-4.247116c-2.432731.05237-2.328857-1.782731.01546-1.562545l.2761-27.9323515c.04815-4.8734317 7.932903-3.96287285 8.944246.152403l5.730382 23.3176515c-.840357 4.14016-2.33321 7.709918-5.02934 10.227786l22.875529 1.939772 1.843764-8.405681c.864362-3.94061 5.343798-2.645386 5.424094.431063l.192952 7.392689-2.229668 1.271632 3.301622.3664z"/></svg>