<svg xmlns:rdf="http://www.w3.org/1999/02/22-rdf-syntax-ns#" xmlns:svg="http://www.w3.org/2000/svg" xmlns="http://www.w3.org/2000/svg" viewBox="0 0 60 80" height="80mm" width="60mm"><path d="m55.598673 40.794124c.817839 4.250496.898106 11.051228-2.527217 11.464177-2.882835.34755-4.033582-6.792262-5.8495-10.684501L28.62281 44.057232c-.818609.109308-1.230257.743559-1.334596 1.357212l-5.428656 31.927679c-.50481 2.968951-8.496955 3.740615-8.633865.816758L12.745811 67.910516 9.3525319 67.968258 9.3098769 67.057263 12.703156 66.999521 12.244104 57.196 9.1631767 57.239291 9.1233487 56.388662 12.204276 56.345371 11.86034 49.000363 8.4335078 48.8075l.099384-1.516048.7666823-.0722.056791-2.165777h-4.969238c-1.355017.0-1.2428941-2.176859-1.2636065-3.638502C1.3829225 41.519125.30831487 41.074993.0 39.999999c.30831487-1.074994 1.3829225-1.519127 3.1235206-1.414973.020713-1.461642-.09141-3.638502 1.2636065-3.638502h4.9692374l-.056791-2.165776-.7666823-.0722-.099384-1.516047 3.4268318-.192863.343936-7.345008-3.0809269-.04329.039828-.850629 3.0809279.04329.459052-9.803521-3.3932797-.05774.042655-.910995 3.3932787.05774.479882-10.2483646c.13691-2.923857 8.129055-2.15219334 8.633865.8167573l5.428656 31.9276803c.104339.613652.515987 1.247903 1.334596 1.35721l18.599146 2.483434c1.815918-3.892239 2.966665-11.032052 5.8495-10.684501 3.425323.412948 3.345056 7.21368 2.527217 11.464177l4.401326.794124z"/></svg>