<svg xmlns:rdf="http://www.w3.org/1999/02/22-rdf-syntax-ns#" xmlns:svg="http://www.w3.org/2000/svg" xmlns="http://www.w3.org/2000/svg" viewBox="0 0 60 80" height="80mm" width="60mm"><path d="m6.1780793 39.382234.1611979-1.386729c.042909-.369134.2054727-.407623.4836382-.37819l.4340332.453825 7.6016744-.882459.347221-5.710787-3.191353-.193805C11.7519 30.943709 11.803569 30.37105 11.783228 29.851642l-1.004469-.378206.161213-.88246 1.153269.113506c.05449-.454505.192942-.852106.595944-1.070407L16.030051 28.454181 20.34425 1.2479862C20.419675.77251615 20.546843.30851742 21.01066.0l3.437315.1070151.736577.67748554L29.00769 37.368448l17.001693 1.055767 1.636892-10.589543 1.847725-.100828.06206-.958094 2.418147.03773.322425 11.799795-.768857.655539L55 40.000005l-3.472221.73119.768857.655539-.322427 11.799795-2.418146.03773L49.494004 52.26617 47.646279 52.165344 46.009385 41.5758 29.007694 42.631566 25.184555 79.215514 24.447978 79.892984 21.010663 80C20.546843 79.691499 20.419646 79.227501 20.34425 78.752016L16.030051 51.545835 12.689185 52.365942C12.286183 52.147641 12.147716 51.75004 12.093241 51.295535l-1.153269.113505-.161213-.882459 1.004469-.378206c.02034-.519408-.03133-1.092067.231263-1.432448l3.191353-.193804-.347221-5.710787-7.6016744-.88246-.4340332.453825c-.2781655.02943-.4407887-.0091-.4836382-.378189L6.1780793 40.617783 5 40.000039z"/></svg>