<svg xmlns:rdf="http://www.w3.org/1999/02/22-rdf-syntax-ns#" xmlns:svg="http://www.w3.org/2000/svg" xmlns="http://www.w3.org/2000/svg" viewBox="0 0 60 80" height="80mm" width="60mm"><path d="m55.586993 41.285255-.538632 10.104763c-.11556 2.167907-2.674643 3.650537-3.836376.609388L47.364619 41.927885 34.371507 42.880746c-1.525262.11186-3.066165.92351-3.253774 2.149473l-4.900047 32.020044c-.455709 2.977902-4.580782 3.967963-5.005721 1.72361L16.159609 52.089264h-5.689732c-.293802.0-.497462-.279443-.497462-.423067v-1.425895c-2.359865.142464-2.3540074-1.398023.0-1.300541v-1.34755c0-.201687.136387-.37606.388643-.37606h4.881354L14.30967 42.985473C10.101391 42.976774 1.5 42.51986 1.5 40c0-2.519861 8.601391-2.976761 12.80967-2.985474l.932742-4.230677h-4.881354c-.252256.0-.388643-.174374-.388643-.37606V31.06024c-2.3540074.09748-2.359865-1.443007.0-1.300543v-1.425895c0-.143623.20366-.423067.497462-.423067h5.689732L21.211965 1.2261263c.424939-2.2443527 4.550012-1.25429259 5.005721 1.7236094L31.117733 34.96978c.187609 1.225963 1.728512 2.037613 3.253774 2.149473l12.993112.952861 3.847366-10.07152c1.161733-3.041149 3.720816-1.558518 3.836376.609387L55.586993 38.714745 58.499999 40z"/></svg>