<svg xmlns:rdf="http://www.w3.org/1999/02/22-rdf-syntax-ns#" xmlns:svg="http://www.w3.org/2000/svg" xmlns="http://www.w3.org/2000/svg" width="60mm" height="80mm" viewBox="0 0 60 80"
   ><path d="m55.507203 39.510924c.217829-4.5794-.598629-13.462546-2.874547-13.47922-2.495155-.01829-3.717721 8.561175-3.496389 12.906656L33.390789 37.435366C30.925173 37.200009 27.408047 36.015637 27.21931 34.930377l-.831907-4.783542 1.067688-.01194-.109227-.62807-1.067689.01195-.30791-1.770511 1.185018.01195-.112416-.646405-1.185019-.01195L22.170835 5.9012076C21.22875.48413683 13.180775-3.1683332 13.144377 3.9443489L13.017987 28.64129c-2.681335-.0068-2.680492 1.655232-.009 1.75429l-.03059 5.9719C11.029837 35.704834 6.6398799 34.750966 6.6398799 36.827012v2.81513L5.2554008 39.200783 4 39.999997l1.2554207.799216 1.3844792-.44136v2.81513c0 2.076045 4.3899571 1.122178 6.3385501.459531l.03059 5.971901c-2.671533.09906-2.672376 1.761038.009 1.754291l.126392 24.696944c.03637 7.112684 8.084373 3.46021 9.026456-1.95686l3.687015-21.200645 1.185017-.01194.112416-.646404-1.185017.01194.30791-1.770511 1.06769.01194.109226-.628071-1.067687-.01195.831907-4.783541c.188737-1.085261 3.705863-2.269633 6.171477-2.504988l15.745478-1.502997c-.221332 4.345482 1.001234 12.924945 3.496391 12.906658 2.275918-.01666 3.092376-8.89982 2.874546-13.479221l.492779-.489073z"/></svg>