<svg xmlns:rdf="http://www.w3.org/1999/02/22-rdf-syntax-ns#" xmlns:svg="http://www.w3.org/2000/svg" xmlns="http://www.w3.org/2000/svg" viewBox="0 0 60 80" height="80mm" width="60mm"><path d="m3.266653 38.228228v-1.585272c0-.335573.3923687-.692624.8680508-.683832L9.4360175 36.052364 10.52108 33.93868V5.3728317c0-6.4421302 8.039218-5.24504201 9.460877.2015954l7.590129 29.0791869c.402473 1.541947 4.210407 2.819198 7.037416 3.046193l15.09789 1.212263 3.007177-11.749611c.80155-3.131807 3.586926-2.586479 4.035557.159843L58.480909 37.917395 55.44273 39.253991 59.999999 40l-4.557269.746008 3.038179 1.336596-1.730783 10.595094c-.448631 2.746322-3.234007 3.29165-4.035557.159842l-3.007177-11.749611-15.09789 1.212263c-2.827009.226995-6.634943 1.504247-7.037416 3.046193L19.981957 74.425572C18.560298 79.87221 10.52108 81.069298 10.52108 74.627168V46.061314L9.4360175 43.94763 4.1347038 44.040876C3.6590217 44.049668 3.266653 43.692616 3.266653 43.357043V41.771771C1.5986066 41.730274.38140697 41.198248.0 40 .38140697 38.801751 1.5986066 38.269725 3.266653 38.228228z"/></svg>