<svg xmlns:rdf="http://www.w3.org/1999/02/22-rdf-syntax-ns#" xmlns:svg="http://www.w3.org/2000/svg" xmlns="http://www.w3.org/2000/svg" viewBox="0 0 60 80" height="80mm" width="60mm"><path d="m55.981665 40.52898-1.558442 11.607677c-.219287 1.633306-3.241757 2.79683-3.636363 1.057986L48.097784 41.34514 27.318564 42.765887 20.563481 76.508938c-.551607 2.755396-7.585073 5.45504-7.778716 1.496208L11.617959 54.151055c-2.0814831.04009-5.9647885.02052-5.9647885-2.241114-4.4484913-.929113-4.92239656-2.072485.0-2.67519.0-2.150956 3.067734-2.31502 5.6226125-2.236908L11.122995 42.796102C6.8098221 42.47732 1.2075037 41.891493.0 39.999999 1.2075037 38.108506 6.8098221 37.522678 11.122995 37.203898l.152788-4.201742c-2.5548785.07815-5.6226125-.08595-5.6226125-2.236907-4.92239656-.602705-4.4484913-1.746078.0-2.675191.0-2.261633 3.8833054-2.281213 5.9647885-2.241114L12.784765 1.994853c.193643-3.9588315 7.227109-1.25918864 7.778716 1.4962078l6.755083 33.7430522 20.77922 1.420746 2.689076-11.849502c.394606-1.738844 3.417076-.57532 3.636363 1.057985l1.558442 11.607678 4.018334.528979z"/></svg>