<svg xmlns:rdf="http://www.w3.org/1999/02/22-rdf-syntax-ns#" xmlns:svg="http://www.w3.org/2000/svg" xmlns="http://www.w3.org/2000/svg" viewBox="0 0 60 80" height="80mm" width="60mm"><path d="M57.370678 38.542419C57.13045 35.168473 57.122156 31.748797 56.416164 28.518162 56.120283 27.164204 53.93248 26.421904 52.815421 28.111698c-1.89643 2.86876-2.73155 6.746167-4.15247 10.190528L32.95326 37.140915C31.468052 37.031124 30.094965 36.172317 29.904244 35.224748L23.696325 4.3816185C22.917361.51144613 17.579532-2.6266093 17.289986 3.2730348L16.099063 27.5387C14.041918 26.834717 9.849301 26.304279 10.06232 29.160516H9.3847263c-.121994-6.212322-.4040101-6.344358-.5338616-.04106-2.673126.949169-1.5606199 1.523251.0 2.052933-.024007 5.127273.4235913 4.994218.5338616.0h.6981267c.159924 2.536472 3.039308 2.439696 5.441283 1.991345v3.941631C10.889556 37.258203 1.5 37.251199 1.5 40.000001c0 2.748804 9.389556 2.741799 14.024136 2.894636v3.941631c-2.401975-.448353-5.281359-.545129-5.441283 1.991344H9.3847263c-.1102703-4.994219-.557869-5.127273-.5338616.0-1.5606199.529681-2.673126 1.103763.0 2.052933.1298515 6.3033.4118676 6.171263.5338616-.04106H10.06232c-.213019 2.856237 3.979598 2.325801 6.036743 1.621817l1.190923 24.265665c.289546 5.89964 5.627375 2.761589 6.406339-1.108584l6.207919-30.84313c.190721-.947567 1.563808-1.806375 3.049016-1.916166l15.709691-1.161312c1.42092 3.444361 2.25604 7.321768 4.15247 10.190528 1.117059 1.689793 3.304862.947494 3.600743-.406464.705992-3.230635.714286-6.650312.954514-10.024258.04649-.652914.680646-1.01299 1.129321-1.457582-.448675-.444591-1.082834-.804667-1.129321-1.457582z"/></svg>