<svg xmlns:rdf="http://www.w3.org/1999/02/22-rdf-syntax-ns#" xmlns:svg="http://www.w3.org/2000/svg" xmlns="http://www.w3.org/2000/svg" viewBox="0 0 60 80" height="80mm" width="60mm"><path d="M1.4345213 39.736361C1.941548 37.2322 12.555266 36.899401 18.0836 36.978534l.245906-3.940188c-1.710776.06916-3.099723-.338094-4.195765-1.178954v-.449864c-2.66729-.20355-2.547588-1.565608.0-1.783944v-.558451c1.094008-.837412 2.769749-1.022401 4.595361-1.039341L20.604962 6.2044191C20.77161 4.2656729 25.656328 4.8660707 25.90835 6.5993065l4.433978 30.4939015 5.431037.18226c1.391956-1.413528 3.086394-1.23007 5.01092.168156l6.554965.219975 3.042927-10.947096c.298872-1.075205 2.15069-1.010307 2.26046.109693l1.097627 11.199379c1.493565-.0108 3.501263.362572 4.325303 1.842798L59.999999 40 58.065567 40.131627c-.82404 1.480226-2.831738 1.853563-4.325303 1.842798l-1.097627 11.199379c-.10977 1.12-1.961588 1.184898-2.26046.109692L47.33925 42.336401 40.784285 42.556375c-1.924526 1.398227-3.618964 1.581684-5.01092.168156l-5.431037.18226-4.433978 30.493901c-.252022 1.733237-5.13674 2.333634-5.303388.394888l-1.87586-21.823373c-1.825612-.01694-3.501353-.201929-4.595361-1.039341v-.558451c-2.547588-.218336-2.66729-1.580394.0-1.783943v-.449864c1.096042-.840861 2.484989-1.248115 4.195765-1.178954L18.0836 43.021466C12.555266 43.100599 1.941548 42.767849 1.4345213 40.263688L0 40z"/></svg>