<svg xmlns:rdf="http://www.w3.org/1999/02/22-rdf-syntax-ns#" xmlns:svg="http://www.w3.org/2000/svg" xmlns="http://www.w3.org/2000/svg" viewBox="0 0 60 80" height="80mm" width="60mm"><path d="m2.2432392 38.382956c-.1935063-10.486249 1.2822407-10.556217.7215096.0h.327959v.941065h.3148406v-1.974912c0-1.002397 1.5952447-1.245918 2.8466836-1.245918h6.218102L13.1929 35.41396V7.2293211c0-3.6532857 8.007731-2.5348332 8.756619 1.3121211l5.205482 26.7399738c.208462 1.070847 1.693633 1.62508 3.069696 1.749586l15.820739 1.431481 2.964748-11.531367c.483963-1.88237 3.896415-.901918 4.040455.609704l.983876 10.325213c-.270296.356692-.584386.512474-1.088823.68923-.275024.09637-.487725.602543.288604.689232l6.765703.755503-6.765703.755504c-.776158.08824-.563628.59286-.288604.68923.504437.176756.818527.332539 1.088823.689232l-.983876 10.325213c-.14404 1.511621-3.556492 2.492074-4.040455.609704L46.045436 41.537514 30.224697 42.968993c-1.376063.124508-2.861234.67874-3.069696 1.749588L21.949519 71.458556C21.200631 75.305511 13.1929 76.423964 13.1929 72.770678V44.586036L12.672334 43.896804H6.454232c-1.2514389.0-2.8466836-.24352-2.8466836-1.245917V40.675975H3.2927078v.941065h-.327959c.5607311 10.556217-.9150159 10.486249-.7215096.0C.5643465 41.222768.27368567 40.598426.0 39.999998.27368567 39.401571.5643465 38.777228 2.2432392 38.382956z"/></svg>