<svg xmlns:rdf="http://www.w3.org/1999/02/22-rdf-syntax-ns#" xmlns:svg="http://www.w3.org/2000/svg" xmlns="http://www.w3.org/2000/svg" viewBox="0 0 60 80" height="80mm" width="60mm"><path d="m55.969737 37.438634v-6.872035c0-1.782221-3.417648-2.676256-4.351708-.691815l-3.813511 8.101928c-5.394752-.82976-10.684947-1.235557-15.968733-1.411894-1.817742-.0607-2.451761-.78003-3.327207-1.41321V3.5089233c0-2.4709315-2.836206-4.9837902-3.569745-2.4597887L16.512205 30.043893c-1.740867.0049-5.320462.01568-5.320462.830179v.592324c-2.5056709.505769-2.3646924.932783.0 1.293628v.467445c0 .80876 3.429509.837503 5.323672.815316v2.706838C11.88053 36.639411 3 37.621015 3 39.999999c0 2.378985 8.88053 3.360588 13.515415 3.250377v2.706838c-1.894163-.0222-5.323672.0066-5.323672.815316v.467445c-2.3646924.360845-2.5056709.787858.0 1.293628v.592323c0 .814498 3.579595.825259 5.320462.830179l8.426628 28.99476c.733539 2.524005 3.569745.01113 3.569745-2.459791V44.84839c.875446-.63318 1.509465-1.352515 3.327207-1.41321 5.283786-.176336 10.573981-.582133 15.968733-1.411894l3.813511 8.101929c.93406 1.984441 4.351708 1.090406 4.351708-.691815v-6.872035c-1.244307-1.308522-.0493-1.858518 1.030262-2.561366-1.07956-.702848-2.274569-1.252844-1.030262-2.561365z"/></svg>