<svg xmlns:rdf="http://www.w3.org/1999/02/22-rdf-syntax-ns#" xmlns:svg="http://www.w3.org/2000/svg" xmlns="http://www.w3.org/2000/svg" viewBox="0 0 60 80" height="80mm" width="60mm"><path d="M54.017597 39.519446C55.031142 39.517849 56.367702 39.048613 56.425374 38.392 57.13425 30.321532 52.86023 26.449746 51.017133 30.278064L46.92391 38.780137 32.799543 37.4171C32.348794 37.3736 31.748367 36.75297 31.633947 36.267003L26.264344 13.461094c-1.480172-6.2866149-7.571915-7.9146247-8.0675-3.371876l-2.540739 23.289471c-.185296 1.698501-1.81656 1.841583-3.116989 2.666136-1.973221-.05663-5.8049117.363216-5.8017895 1.28079-2.1544783.420444-5.7270764 1.538469-6.06129619 2.489558H0v.369652h.67603031c.33421979.951088 3.90681789 2.069113 6.06129619 2.489558-.00314.917574 3.8285685 1.337422 5.8017895 1.28079 1.300429.824552 2.931693.967635 3.116989 2.666136l2.540739 23.289472c.495585 4.542749 6.587328 2.914739 8.0675-3.371876l5.369603-22.805909c.11442-.485969.714847-1.106604 1.165596-1.150098l14.124367-1.363038 4.093223 8.502074c1.843097 3.828319 6.117117-.0435 5.408241-8.113937-.05767-.656611-1.394232-1.125877-2.407777-1.127446l5.982402-.480552z"/></svg>