<svg xmlns:rdf="http://www.w3.org/1999/02/22-rdf-syntax-ns#" xmlns:svg="http://www.w3.org/2000/svg" xmlns="http://www.w3.org/2000/svg" viewBox="0 0 60 80" height="80mm" width="60mm"><path d="m56.547066 40.791657 1.452929.139223-3.740521.355791-1.63841 10.905765-1.097426.01547-.04637.788926-3.245905-.01547-.618271-10.874825-18.408926.371266-.278221 12.700183-2.102109 20.481167c-.575488 5.607075-6.174888 5.70432-6.800948.74252l-1.91275-15.159399c-1.97361-.128111-3.713766.483633-5.923808-.393787l-.28417 4.025315-.196732-4.331591c-.553707-.342029-1.030032-.69568.03267-1.280374l.154569-4.362299.231847 4.114792c1.837583-1.240896 3.791102-.567302 5.703524-.572358l-.741922-7.51801c-2.020648-.127148-4.075451.531907-6.059027-.448601l-.324589 3.836345-.108199-4.006508c-1.0671105-.602871-.8542532-1.15005-.03091-1.670669l.108196-4.17668.293676 4.08386c1.804977-1.011901 3.951043-.373876 5.981743-.293911L16.995324 42.40643 6.3499555 42.275171C4.0961455 42.24739 2 41.238729 2 40 2 38.76127 4.0961455 37.752609 6.3499555 37.724828l10.6453685-.131259-.04832-5.841368c-2.0307.08001-4.176766.71799-5.981743-.293911l-.293675 4.08386-.108197-4.17668c-.8233382-.520619-1.0361955-1.067798.03091-1.670669l.108199-4.006508.32459 3.836345c1.983575-.980508 4.038378-.321453 6.059026-.4486l.741923-7.518011c-1.912422-.0047-3.865941.668538-5.703524-.572358l-.231849 4.114792-.154568-4.362299c-1.062705-.584694-.58638-.938345-.03267-1.280375l.196732-4.33159.284167 4.025316c2.210042-.87742 3.950198-.265677 5.923808-.393787L20.02289 3.5983266c.62606-4.9617995 6.22546-4.8645544 6.800948.742521l2.102109 20.4811654.278221 12.700184 18.408926.371266.618271-10.874825 3.245905-.01547.04637.788926 1.097426.01547 1.63841 10.905764L58 39.069119 56.547071 39.208342z"/></svg>