<svg xmlns:rdf="http://www.w3.org/1999/02/22-rdf-syntax-ns#" xmlns:svg="http://www.w3.org/2000/svg" xmlns="http://www.w3.org/2000/svg" viewBox="0 0 60 80" height="80mm" width="60mm"><path d="m59.014119 38.881464-.200257-6.680415c-.128931-4.30107-4.347991-5.913131-5.129652-3.064406l-2.598884 9.471493-19.301566-.585053-1.176393-4.290391 7.123715-1.343456 2.265646.151681.588197-.823409-.52284-.780071-2.113153.303361L29.300263 29.723993 21.982024 6.4293713C20.828662 2.7581227 17.095252 2.084774 16.806164 7.0422559L15.527599 28.968095C9.8012038 28.78724.0 30.091043.0 31.726071c0 1.63503 10.197692 3.156333 15.250318 2.895858l-.23106 3.416816C11.765406 38.048805 8.4626163 37.771336 5.7612338 38.605666 5.6566568 33.382908 5.0543609 33.08733 5.0834395 38.728266 4.0463835 38.790586 3.5844269 39.329519 3.2811265 40c.3033004.670479.765257 1.209413 1.802313 1.271732-.029105 5.640937.5732173 5.34536.6777943.122601 2.7013825.83433 6.0041722.556867 9.2580242.566921l.23106 3.416816C10.197692 45.117595.0 46.638899.0 48.273928c0 1.635028 9.8012038 2.938831 15.527599 2.757975l1.278565 21.92584c.289088 4.957482 4.022498 4.284134 5.17586.612885l7.318239-23.294622 8.648669-1.516804 2.113153.30336.52284-.780071-.588197-.823408-2.265646.151681-7.123715-1.343457 1.176393-4.290391 19.301566-.585053 2.598884 9.471494c.781661 2.848723 5.000721 1.236663 5.129652-3.064406L59.014119 41.118535 59.999999 40z"/></svg>