<svg xmlns:rdf="http://www.w3.org/1999/02/22-rdf-syntax-ns#" xmlns:svg="http://www.w3.org/2000/svg" xmlns="http://www.w3.org/2000/svg" viewBox="0 0 60 80" height="80mm" width="60mm"><path d="m54.409591 51.641257 3.154983.195899v0l-8.108855.223873 1.300739-.531693-.691884-10.102152-17.352398.755569c-1.587671.84367-2.391047 1.960011-2.712177 3.246096l-7.749078 31.034042c-.893074 3.576646-5.52528 4.487948-5.645756 2.51854L14.944648 51.837145 10.0738 51.865042C9.1512445 51.725205 8.6900813 51.193443 8.6900359 50.270011 7.7414981 50.207087 7.2124274 49.75534 6.6974154 49.290577 7.1025225 48.583616 7.6170062 48.007981 8.6070099 48.003327 8.8030177 47.314419 9.1561832 46.748304 10.156826 46.68809l4.455719-.195898-.221401-4.421445C9.5664199 42.126715 5.0674514 42.41759.0 39.999995 5.0674514 37.582404 9.5664199 37.873281 14.391143 37.92924l.221402-4.421445-4.455719-.195889C9.1561832 33.251673 8.8030177 32.685575 8.6070099 31.996668 7.6170062 31.991919 7.1025225 31.416379 6.6974154 30.709419 7.2124274 30.244657 7.7414981 29.792907 8.6900359 29.729982 8.6900813 28.806553 9.1512445 28.274792 10.0738 28.13491l4.870848.02794 1.660517-27.1442859c.120476-1.96940573 4.752682-1.05810276 5.645756 2.5185414l7.749078 31.0340395c.321131 1.286087 1.124506 2.402429 2.712177 3.246113l17.352398.755569.691884-10.102155-1.300739-.531691 8.108855.22387v0l-3.154983.19589c3.790968 1.17477.904059 11.258814 5.590408 11.641258-4.686349.38245-1.79944 10.466491-5.590408 11.641258z"/></svg>