<svg xmlns:rdf="http://www.w3.org/1999/02/22-rdf-syntax-ns#" xmlns:svg="http://www.w3.org/2000/svg" xmlns="http://www.w3.org/2000/svg" viewBox="0 0 60 80" height="80mm" width="60mm"><path d="m56.645602 42.340447v7.355699c0 1.620581-3.801988 1.925367-4.657326.451373l-4.724338-8.141421c-5.667895 1.358537-11.073654 1.147589-16.568688 1.471139-1.221754.07193-2.426795.747186-2.429181 1.638315l-.08771 32.769031c-.0079 2.952544-3.020822 2.692921-3.814457-.02367L16.213755 49.963218h-4.206444l-.544472-.659933c-.19231 4.307717-.666587 4.361621-.703624-.977974-.28149-.01792-.694666-.10007-.670119-.459731.02097-.30698.332265-.457946.636613-.417937.111668-4.889634.552988-4.888965.73713-.877669l.61986-.743928h4.079349V43.410367C11.758784 43.360214 2.5 42.341257 2.5 39.999998c0-2.341259 9.258784-3.360217 13.662048-3.410369v-2.415678h-4.079349l-.61986-.743929c-.184142 4.011296-.625462 4.011965-.73713-.877669-.304348.03999-.615639-.110957-.636613-.417937-.02453-.35966.388629-.44181.670119-.459731.03706-5.339595.511314-5.285691.703624-.977974l.544472-.659933h4.206444L24.3639 2.1390881c.793635-2.71659316 3.80655-2.97621587 3.814458-.023672l.08771 32.7690279c.0027.89113 1.207426 1.566376 2.429181 1.638315 5.495034.32355 10.900792.112602 16.568688 1.471139l4.724337-8.14142c.855337-1.473995 4.657327-1.169209 4.657327.451372v7.355699c-1.161211.812945-.323732 1.588262.854402 2.340449-1.178134.752187-2.015613 1.527504-.854401 2.340449z"/></svg>