<svg xmlns:rdf="http://www.w3.org/1999/02/22-rdf-syntax-ns#" xmlns:svg="http://www.w3.org/2000/svg" xmlns="http://www.w3.org/2000/svg" viewBox="0 0 60 80" height="80mm" width="60mm"><path d="m2.1689888 38.050988c.2416117-9.74426 1.1534677-7.611443 1.6422346-.33769l8.4900416-.491206.123937-.982398.991539-.122808v-.828817l-1.518292.06134.09296-1.65779 1.427732-.03041 1.489886-24.4868843-2.497751.043406V8.5230681L14.909027 8.349409c1.774825-5.7790187 7.43173-3.0470935 8.019096.4775728l4.644939 27.8733692 1.183147 1.215656 22.479758.955161 1.139323-8.032045c1.471314-.474715 2.969912-.570973 4.557303.56441l.394381 7.207138-1.226965 1.172238L60.000004 40l-3.899995.217091 1.226965 1.172238-.394381 7.207138c-1.587391 1.135383-3.085989 1.039125-4.557303.56441l-1.139323-8.032045-22.479758.955161-1.183147 1.215656-4.644939 27.873369c-.587366 3.524666-6.244271 6.256592-8.019096.477573l-2.497755-.173663v-.694664l2.497751.04341-1.489886-24.486883-1.427732-.03041-.09296-1.65779 1.518292.06134V43.883106L12.425202 43.760298 12.301265 42.7779 3.8112234 42.286694C3.3224565 49.560448 2.4106005 51.693264 2.1689888 41.949004 1.259164 41.288973.0 40.766409.0 39.999996.0 39.233583 1.259164 38.711019 2.1689888 38.050988z"/></svg>