<svg xmlns:rdf="http://www.w3.org/1999/02/22-rdf-syntax-ns#" xmlns:svg="http://www.w3.org/2000/svg" xmlns="http://www.w3.org/2000/svg" width="60mm" height="80mm" viewBox="0 0 60 80"
   ><path d="M12.169442 37.776291 13.476903 31.135147 7.643617 30.833278C4.320441 30.661305 4.010176 27.597302 7.744186 27.210835L13.577472 26.607095 17.298707 1.4512468 22.830271 1.25l6.637877 36.526291 22.637922 1.014135 1.137862-9.463147 3.733617.142303 1.849029 1.24515.426698 8.573754C59.8592 39.374537 60 39.65451 60 39.999999c0 .34549-.1408.625463-.746724.711514l-.426698 8.573754-1.849029 1.24515L53.243932 50.67272 52.10607 41.209573 29.468148 42.223707 22.830271 78.75 17.298706 78.548752 13.577472 53.392903 7.744186 52.789163C4.010171 52.402697 4.320438 49.338694 7.643617 49.166721l5.833286-.301869-1.307461-6.641145C8.112962 41.284555.0 41.906544.0 39.999999.0 38.093455 8.112962 38.715444 12.169442 37.776291z"/></svg>