<svg xmlns:rdf="http://www.w3.org/1999/02/22-rdf-syntax-ns#" xmlns:svg="http://www.w3.org/2000/svg" xmlns="http://www.w3.org/2000/svg" viewBox="0 0 60 80" height="80mm" width="60mm"><path d="m59.999997 39.999997-2.674529-.421141 1.516654-.599317-.587091-8.439031c-1.563351-1.051072-3.170862-1.103073-3.848715.226769l-3.946563 7.742529-19.462877-3.089027-.761085-5.635144c1.195266-.133307 2.412063-.214681 3.312451-1.059273l.04892-.890874.587093-.485936-.570785-.56692-.01631-.842287c-1.238788-.942142-2.440868-1.081954-3.6367-1.085248L31.640193 6.260072C30.572661 5.3794193 27.168597 3.8284371 26.274823 6.470643l-6.213389 18.36826c-2.873978-.192657-5.773428-.674479-8.121441 1.06905l-.08154 2.688826c1.928165 1.501518 3.96438 1.285754 6.572172 1.263423l-1.924361 5.50724C10.768933 35.97928 4.8571064 35.955638.0 39.999997c4.8571064 4.044361 10.768933 4.020719 16.506263 4.632557l1.924361 5.50724c-2.607792-.02236-4.644007-.238095-6.572172 1.263423l.08154 2.688826c2.348013 1.743529 5.247463 1.261707 8.121441 1.06905l6.213389 18.368262c.893774 2.64221 4.297838 1.091226 5.36537.210568L29.96046 55.144898c1.195831-.0034 2.397911-.143105 3.636708-1.085245l.01631-.842289.570782-.566919-.587092-.485937-.04892-.890875C32.647856 50.429041 31.43106 50.347666 30.235794 50.214361l.761085-5.635146 19.462877-3.089026 3.946563 7.742528c.677853 1.329844 2.285364 1.277843 3.848714.22677L58.842124 41.020456 57.325471 40.421138 60 39.999997"/></svg>