<svg xmlns:rdf="http://www.w3.org/1999/02/22-rdf-syntax-ns#" xmlns:svg="http://www.w3.org/2000/svg" xmlns="http://www.w3.org/2000/svg" viewBox="0 0 60 80" height="80mm" width="60mm"><path d="M10.044947 37.175176 9.8764074 31.322638 4.6179787 31.356432 4.7191015 30.273871 2.7640444 29.732608 2.3932572 35.855771C1.2969253 34.38722 1.5773668 31.968716 1.8876401 29.529631.81631704 29.008671-.02439961 28.438608 1.82022 27.296875 1.7020032 25.218694 1.1058806 23.064771 2.5955015 21.241362l.2696629 5.751034 1.6179772-.676593.033703-.710418 5.4269672-.304464.033703.575106 1.7528092-.06758.640451-23.0380064c.09493-3.4146423 4.453051-1.2129329 5.191013.9472333L25.247183 26.2144l3 1.894466-1.752808 1.995955 2.528089 7.036571 21.808996 1.420851c2.371076-16.205987 8.286557-19.711233 7.938204 1.200945L60 39.999992 58.769663 40.236808c.348353 20.912178-5.567128 17.406932-7.938204 1.200945l-21.808996 1.420851-2.528089 7.036571 1.752808 1.995955-3 1.894466-7.685396 22.496725c-.737961 2.160168-5.096086 4.361877-5.191012.947234L11.730323 54.191549 9.9775145 54.123957 9.9438116 54.699062 4.5168444 54.394598 4.4831416 53.68418 2.8651644 53.007587 2.5955015 58.758622C1.1058806 56.935212 1.7020075 54.78129 1.82022 52.703108-.02439961 51.561375.81631704 50.991312 1.8876401 50.470352 1.5773668 48.031267 1.2969253 45.612764 2.3932572 44.144212l.3707872 6.123163 1.9550571-.541265-.1011228-1.082561 5.2584287.03379.1685396-5.852538C6.5826259 41.96553 1.4699885 43.358785.0 39.999992 1.4699885 36.641198 6.5826259 38.034453 10.044947 37.175176z"/></svg>