<svg xmlns:rdf="http://www.w3.org/1999/02/22-rdf-syntax-ns#" xmlns:svg="http://www.w3.org/2000/svg" xmlns="http://www.w3.org/2000/svg" viewBox="0 0 60 80" height="80mm" width="60mm"><path d="m3.7512398 41.263298c.6081995.420116 1.2109919.842677 1.2504121 1.519918l7.6811131.09871 1.726761 10.007779c-.307011.163607-.322393.423903-.317565.690874l-2.38174.217139 2.38174.07894c.01553.30525.281052.461319.555739.611918l1.34231 19.643568c.26896 3.936012 8.093618 3.92116 8.75755-.669971l3.592841-24.844752c1.41815-5.546052 14.251404-6.286281 22.09294-7.018548l1.766458 9.356378c.397988 2.108018 4.386919 1.747295 4.406219-.118428l.09924-9.593258-1.111479-.908L59.999998 40l-4.406219-.335565 1.111479-.908001-.09924-9.593257c-.0193-1.865724-4.008231-2.226447-4.406219-.118428l-1.766458 9.356377C42.591805 37.668859 29.758551 36.928631 28.340401 31.382578L24.74756 6.5378254C24.083628 1.9466937 16.25897 1.9318427 15.99001 5.8678545L14.6477 25.511423c-.274687.150598-.540214.306667-.555739.611918l-2.38174.07895 2.38174.217138c-.0048.266972.01055.527267.317565.690874l-1.726761 10.007779-7.6811131.09871C4.9622317 37.894025 4.3594393 38.316587 3.7512398 38.736703 1.6335202 38.504715 1.0398054 39.512809.0 40c1.0398054.487192 1.6335202 1.495286 3.7512398 1.263298z"/></svg>