<svg xmlns:rdf="http://www.w3.org/1999/02/22-rdf-syntax-ns#" xmlns:svg="http://www.w3.org/2000/svg" xmlns="http://www.w3.org/2000/svg" viewBox="0 0 60 80" height="80mm" width="60mm"><path d="m59.999999 38.684514-4.589938-1.829347v-6.865189h-5.25155v6.885744c-1.724179-1.252166-4.307413-1.287195-6.409373-1.15105v.781069H29.441764c-.586611.0-.874098-.33174-.951068-.678296L25.637491 22.980907c-2.217316-.429333-4.397628-.67472-6.450723-.287762l-2.274294 13.010972c-.06945.39734-.10972.798451-.80634.78107C10.407635 36.342995 2.5814514 36.621858.0 40c2.5814514 3.378141 10.407635 3.657004 16.106134 3.514812.69662-.01739.736887.383731.80634.78107l2.274294 13.010972c2.053095.386959 4.233407.141571 6.450723-.287762l2.853205-12.846537c.07697-.346556.364457-.678297.951068-.678297h14.307374v.78107c2.10196.136145 4.685194.101116 6.409373-1.151051v6.885744h5.25155v-6.86519l4.589938-1.829345z"/></svg>