<svg xmlns:rdf="http://www.w3.org/1999/02/22-rdf-syntax-ns#" xmlns:svg="http://www.w3.org/2000/svg" xmlns="http://www.w3.org/2000/svg" viewBox="0 0 60 80" height="80mm" width="60mm"><path d="m7.1519501 37.628218v-1.585821c0-.368799.4083498-.774477 1.0103605-.774477h4.0963614l.12195-3.44176c-1.164156-.0032-1.173325-1.438626.04888-1.379506l.07986-2.253839-.781407-.04485.01705-.481969.781413.04485.893191-25.2086316c.144412-4.0756755 9.69842-3.5987555 10.895096 4.6199422 1.168489 8.0251074 2.358718 16.0538544 3.036339 23.9967844-1.094722 1.954335-3.219191 3.626559-5.201964 5.337602 8.127904.432289 16.231443.742215 24.603278 2.399679l2.723775-9.867838c.422915-1.532164 4.143121-1.707632 4.398228.426116l1.093974 9.150171-3.14797.874651 5.179638.560676-5.179638.560677 3.14797.874651-1.093974 9.15017c-.255107 2.133749-3.975313 1.958281-4.398228.426117l-2.723777-9.867838c-8.371836 1.657463-16.475375 1.96739-24.603278 2.399678 1.982772 1.711044 4.107242 3.383268 5.201963 5.337602-.67762 7.94293-1.86785 15.971681-3.036338 23.996787-1.196676 8.218698-10.750685 8.695618-10.895097 4.619943l-.89319-25.208634-.781413.04485-.01705-.48197.781406-.04485-.07986-2.253838c-1.222201.05912-1.213032-1.376037-.04888-1.379507l-.12195-3.441759H8.1623106c-.6020107.0-1.0103605-.405678-1.0103605-.774477V42.371779C5.6253838 42.081395 3 40.958317 3 39.999998 3 39.04168 5.6253838 37.918602 7.1519501 37.628218z"/></svg>