<svg xmlns:rdf="http://www.w3.org/1999/02/22-rdf-syntax-ns#" xmlns:svg="http://www.w3.org/2000/svg" xmlns="http://www.w3.org/2000/svg" viewBox="0 0 60 80" height="80mm" width="60mm"><path d="m58.13657 29.008967c-.263071-1.523142-4.402623-3.026331-5.151836-.46789L49.970361 38.834672 27.581802 37.623657 21.169413 2.3667241C20.555691-1.0076671 15.145089-.64673851 14.866635 2.641959l-1.125649 13.294587c-5.3023378.546858-5.2460202.842232-.08253.974696l-.892195 10.537349c-13.45558548 1.750244-13.63728856 3.712503-.51909 6.130781l-.3401 4.016766C7.7051779 37.540322.0 38.127325.0 39.999999c0 1.872672 7.7051779 2.459676 11.907074 2.40386l.3401 4.016767c-13.11819856 2.418277-12.93649548 4.380537.51909 6.13078l.892195 10.537349c-5.1634932.132465-5.2198108.427838.08253.974695l1.125649 13.294588c.278454 3.2887 5.689056 3.649629 6.302778.275234l6.412389-35.256932 22.388559-1.211014 3.014373 10.293595c.749213 2.55844 4.893464 1.056061 5.151836-.46789l1.863429-10.991032z"/></svg>