<svg xmlns:rdf="http://www.w3.org/1999/02/22-rdf-syntax-ns#" xmlns:svg="http://www.w3.org/2000/svg" xmlns="http://www.w3.org/2000/svg" viewBox="0 0 60 80" height="80mm" width="60mm"><path d="m58.33802 53.137937c-1.460977 1.048983-4.20224 1.274017-5.804898.502546L50.967485 41.866584 31.625854 44.355376 26.206343 75.680639c-2.251222.956552-8.534796 2.516614-8.695303-.210063L15.993578 49.69193C15.88382 47.827377 14.910468 44.719558 13.548776 44.642553 10.689164 44.480829 5.4037285 44.288417 3.6631043 42.878582 3.2803925 42.568603 3.1832275 41.950428 3.1914895 41.54353 2.1021658 41.316483.0 40.735233.0 40.000001c0-.735234 2.1021658-1.316483 3.1914895-1.543528-.00826-.406899.088903-1.025074.4716148-1.335054 1.7406242-1.409834 7.0260597-1.602247 9.8856717-1.763969 1.361692-.07701 2.335044-3.184826 2.444802-5.04938L17.51104 4.5294249c.160507-2.726679 6.444081-1.1666146 8.695303-.2100625l5.419511 31.3252626 19.341631 2.488792 1.565637-11.773899c1.602658-.771471 4.343921-.546437 5.804898.502546L60 40.000001z"/></svg>