<svg xmlns:rdf="http://www.w3.org/1999/02/22-rdf-syntax-ns#" xmlns:svg="http://www.w3.org/2000/svg" xmlns="http://www.w3.org/2000/svg" viewBox="0 0 60 80" height="80mm" width="60mm"><path d="M57.163998 51.494235 58.999996 51.794 57.164 52.307515l-131e-6 2.006067c-187e-6 2.860381-6.10243 2.811168-6.10243.298196L51.061 52.55149l-10.349969.653255-.03031.827893-6.521925.409467-.121347-.463022-5.536039.34805-2.875695 19.884497c-.763833 5.266747-5.899742 8.290237-6.426449 3.090431L16.93111 54.90998 11.719746 54.693108C5.7285285 54.443778 3.320531 50.876804 11.152708 50.301439l5.535384-.406636-.864061-7.183897C10.594666 42.873559 1 42.337198 1 40 1 37.662801 10.594666 37.12644 15.824031 37.289094l.864061-7.183898-5.535384-.406635C3.320531 29.123195 5.7285285 25.556222 11.719746 25.306892L16.93111 25.090019 19.199267 2.6979377c.526708-5.1998034 5.662616-2.1763152 6.426449 3.0904318l2.875696 19.8844965 5.536038.34805.121348-.46303 6.521924.409476.03031.827892 10.350408.653256v-2.060295c0-2.512974 6.102429-2.562179 6.102429.298202v2.006068L59 28.206 57.164002 28.505764zm-6.103002-22.500513-10.470504.367443-.07388.655325-6.063626.329264-.03751-.633732-5.522589.447386L30.540012 40l-1.647115 9.840583 5.522589.447386.03751-.633724 6.063626.329264.07388.655325 10.470503.367443z"/></svg>