<svg xmlns:rdf="http://www.w3.org/1999/02/22-rdf-syntax-ns#" xmlns:svg="http://www.w3.org/2000/svg" xmlns="http://www.w3.org/2000/svg" width="60mm" height="80mm" viewBox="0 0 60 80"
   ><path d="m3.8479732 42.001357c-.3605219 2.75348-.3685124 5.563218.1684609 8.459935.5637259-2.598909.7454843-5.368148.5053791-8.325509 1.1502635.468463 2.4054918.66411 3.7209772.703138.2627931.405562.5595599.727182.9717591.763601l.094039-.652703.1818158-.0064c.3618993.585124.5405277.613914.8651807.678051l.09091-.668547.17868-.0064c.145526.514494.507556.551519.827563.681222l.125389-.54498.210024-.0095c.0975.43327.437405.481505.761735.554482l.144197-.576659.184949-.003c.08251.337447.362011.517692.761735.602008l.115984-.608347.238236-.01268c.174448.375979.469646.563334.827566.652707l.106579-.551312 1.015645.05703c1.075872.06041 1.495934 1.218308 1.42316 2.262289-.677034.628318-.532683 1.213502.07528 1.774347l.727119 25.880086c.138721 4.936551 6.779498 2.758347 8.027641-.584801 3.555327-9.522941 4.823342-18.664699 6.864375-27.264864 1.643963-1.299969 3.181201-2.338328 4.931891-2.567673l9.86807-1.292738c.533333-.06987 1.153086-.01647 1.329117.582999l2.445076 8.326746c1.039579 3.5403 5.270706 1.688766 5.617397.671716.946489-2.776613 1.163148-5.256859 1.128506-7.94653-.538268-1.134591-1.822185-1.674594-2.84632-2.408039L60 40.000093 55.536173 39.379075c1.024135-.733441 2.308052-1.273447 2.84632-2.408039.03464-2.689671-.182017-5.169917-1.128506-7.94653-.346691-1.017046-4.577818-2.868584-5.617397.671717l-2.445076 8.326746c-.176031.59947-.795784.652865-1.329117.582999L37.994327 37.31309C36.243637 37.083748 34.706399 36.045385 33.062436 34.74542 31.021403 26.14525 29.753388 17.003492 26.198061 7.4805515 24.949918 4.137404 18.309141 1.9591999 18.17042 6.8957505L17.443301 32.775837c-.60796.560844-.752311 1.146028-.07528 1.774345.07277 1.043981-.347288 2.201877-1.42316 2.262289l-1.015645.05704-.106579-.551316c-.35792.08938-.653118.276728-.827566.652707l-.238236-.01268-.115984-.608348c-.399724.08432-.679229.264562-.761735.602009l-.184949-.003-.144197-.576659c-.32433.07298-.664235.121212-.761735.554482l-.210024-.0095-.125389-.544979c-.320007.129703-.682037.166727-.827563.681223l-.17868-.0064-.09091-.668549c-.324653.06414-.503281.09293-.8651803.678055l-.1818158-.0064-.094039-.652707C8.8023503 36.433944 8.5055835 36.755564 8.2427904 37.161125 6.927305 37.200154 5.6720767 37.395805 4.5218132 37.864264 4.7619184 34.906901 4.58016 32.137664 4.0164341 29.538758 3.4794608 32.435472 3.4874513 35.24521 3.8479732 37.99869 2.4787874 38.499899 1.1148373 39.012181.0 40.000021c1.1148373.987843 2.4787874 1.500127 3.8479732 2.001336z"/></svg>