<svg xmlns:rdf="http://www.w3.org/1999/02/22-rdf-syntax-ns#" xmlns:svg="http://www.w3.org/2000/svg" xmlns="http://www.w3.org/2000/svg" viewBox="0 0 60 80" height="80mm" width="60mm"><path d="m0 40.350308c0 .318421.24784269.378715.4460962.376061l1.207287-.01616c.03903.398282.375566.393661.7115687.389765-.8138936.353215-.5199618 4.022867.4548178 9.791502.407163-3.751993 1.4792567-7.623426.048735-9.789049.2561888-.05878.5537875.105669.7210171-.432729l.2904822-.0052-.00518 2.029699c-.0011.424924.8732451.599046 1.3590386.654241l6.3024124.716061.0052-.365757 3.242949.158685.432803.404334.455823 10.779653-2.354781.0037.0117.276733 2.354781-.0037.02515.594807-1.676221.01092.01219.287991 1.676221-.01092.02049.484499-.892195.01029.01239.292948.892192-.01029.02387.564423-.164138.01001.0091.214319.164137-.01001.432406 10.225858c-.01447 2.622089.848088 6.019455 3.589522 6.01697 4.09072-.0037 7.794077-8.259865 8.57958-13.11576.205659.0022.450406-.0196.503155-.267878l.357914-1.684546c.06827-.321318-.246031-.361032-.432724-.434449.942722-4.769688 1.190927-9.553408 1.481824-13.842153.02238-.329995.533922-.842844.982994-.874243l5.626531-.393408 1.496498.182134.01467-.327841 11.869371-1.552165c.891259 2.269256 1.804717 5.360031 2.579421 7.725148.774666 2.365003 1.389962 3.839932 2.908606 3.865762 2.943497.05006 4.247962-6.719158 3.226419-10.756365C58.652686 41.135297 57.13674 40.76238 56.171927 40.453289L60 40.000008 56.171864 39.546675c.964813-.309093 2.480759-.68201 2.832196-2.070911 1.021543-4.037205-.282922-10.806429-3.226419-10.756362-1.518644.02583-2.13394 1.500758-2.908606 3.865761-.774704 2.365117-1.688162 5.455892-2.579421 7.725147l-11.869371-1.552164-.01467-.32784-1.496498.182131-5.626531-.393406c-.449072-.0314-.96061-.544248-.982994-.874243-.290897-4.288746-.539102-9.072464-1.481824-13.842152.186693-.07341.500995-.113131.432724-.43445L28.892538 19.38364C28.839789 19.135376 28.595042 19.113545 28.389383 19.115762 27.60388 14.259867 23.900523 6.0036998 19.809803 6.0000014 17.068369 5.9975154 16.20582 9.3948813 16.220281 12.016973l-.432406 10.225858-.164137-.01001-.0091.214319.164138.01001-.02387.564424-.892192-.01029-.01239.292948.892195.01029-.02049.4845-1.676221-.01092-.01219.28799 1.676221.01093-.02515.594807-2.354781-.0037-.0117.276731 2.354781.0037-.455823 10.779652-.432803.404334-3.242949.158685-.0052-.365758-6.3024124.716059c-.4857935.0552-1.3601233.22932-1.3590386.654243l.00518 2.029698-.2904822-.0052C3.4222922 38.79192 3.1246935 38.956375 2.8685047 38.897588c1.4305217-2.165623.358428-6.037056-.048735-9.789048-.9747796 5.768635-1.2687114 9.438285-.4548178 9.791502-.3360027-.0039-.672539-.0085-.7115687.389765l-1.207287-.01616C.24784269 39.270988.0 39.331286.0 39.649708z"/></svg>