<svg xmlns:rdf="http://www.w3.org/1999/02/22-rdf-syntax-ns#" xmlns:svg="http://www.w3.org/2000/svg" xmlns="http://www.w3.org/2000/svg" viewBox="0 0 60 80" height="80mm" width="60mm"><path d="m6.2128685 37.608756.6394079-.760017 5.2431586-.02533.07673.456013 3.220173-.07538 1.844695-6.628102 1.355484-23.498542c.03799-.658503.379654-1.1160026 1.085113-1.0748267l6.674361.3897528 5.714932 29.9518549 1.211712.949434 15.17351.841944 1.808523-10.35417 4.087264.304534 1.681926 11.160293L60 40.000006l-3.970142.753783-1.681926 11.160293-4.087264.304534-1.808523-10.35417-15.17351.841944-1.211712.949434-5.714932 29.951855-6.674361.389753c-.705459.04118-1.047129-.416324-1.085113-1.074828l-1.355484-23.498541-1.844695-6.628102-3.220173-.07537-.07673.456013-5.2431586-.02533-.6394079-.760016C4.6182728 42.300334 1.506867 42.060058.0 40.000006 1.506867 37.939953 4.6182728 37.699677 6.2128685 37.608756z"/></svg>