<svg xmlns:rdf="http://www.w3.org/1999/02/22-rdf-syntax-ns#" xmlns:svg="http://www.w3.org/2000/svg" xmlns="http://www.w3.org/2000/svg" viewBox="0 0 60 80" height="80mm" width="60mm"><path d="m2.5 39.520071h1.2628486c-.00416-.45597.087281-1.039162.8076357-1.053314l.866373-1.726271h5.8443437l.881056.468144v-2.867356c-1.955896-.08135-1.811145-1.19635.0-1.228873V3.2977103c0-4.3062814 8.622197-4.28269582 8.622197-.5851697V37.538l27.204391 1.530992 3.322675-9.951444c.339278-1.016148 2.347492-1.270127 3.675707-1.427546l1.723636 10.137645-3.509574 1.77926 4.29871.393093-4.29871.393092 3.509574 1.77926-1.723636 10.137645C53.659012 52.152578 51.650798 51.898599 51.31152 50.882451l-3.322675-9.951443-27.204391 1.530991v34.82546c0 3.697526-8.622197 3.721111-8.622197-.58517v-29.81469c-1.811145-.03252-1.955896-1.147499.0-1.228873v-2.867357l-.881056.468144H5.4368573L4.5704843 41.533242C3.8501294 41.519091 3.7587276 40.935899 3.7628486 40.479928H2.5z"/></svg>