<svg xmlns:rdf="http://www.w3.org/1999/02/22-rdf-syntax-ns#" xmlns:svg="http://www.w3.org/2000/svg" xmlns="http://www.w3.org/2000/svg" viewBox="0 0 60 80" height="80mm" width="60mm"><path d="m58.388142 40.410532c-.203901.744925-.912028.938106-1.778601.957909l.305697.465271v8.429599c0 .794134-.649033 1.662284-1.72302 1.14949-5.256144-2.509644-5.851661-6.578568-6.641964-9.715933L30.23622 42.955833c-1.459232.10028-3.327274 1.42746-3.446039 2.682145L26.484484 48.8675c.321332.959913 1.173932 1.095378 1.973135 1.313704-.977758.366469-1.987008.62956-2.751273 1.696867l-4.50788 25.569265c-.703585 3.99082-6.447837 2.930303-6.720625-.61928L12.630652 52.792015H8.8183673c-.5986716.0-.4811442-.608661-.5923356-.941312-.5806344 5.34003-.8938793 5.714819-.8198261-.985278-1.2061248-.0033-1.242345-1.377735.0-1.354757-.196125-6.343701.2467877-6.652782.7920341-1.17686.043509-.519712.3610164-.780011.708663-.780011H12.571698L12.005557 42.873727 2.1954609 42.654776 1.7230199 41.710552C1.2798325 47.186956.89536007 47.162073.87540527 40.780011.31612302 40.821065.0 40.515542.0 40 0 39.484459.31612302 39.178935.87540527 39.219988.89535899 32.837928 1.2798325 32.813044 1.7230199 38.289449l.472441-.944226 9.8100961-.21895.566141-4.68007H8.9069027c-.3476466.0-.665154-.260299-.708663-.780011-.5452464 5.475922-.9881591 5.16684-.7920341-1.17686-1.242345.02299-1.2061248-1.351473.0-1.354757-.074057-6.700098.2391917-6.325309.8198261-.985278.1111914-.332652-.00634-.941312.5923356-.941312h3.8122847l1.847189-24.03604c.272788-3.54958381 6.01704-4.610104 6.720625-.6192799l4.50788 25.5692629c.764265 1.067308 1.773515 1.330399 2.751273 1.696867-.799203.218327-1.651803.353792-1.973135 1.313704l.305697 3.229522c.118765 1.254686 1.986807 2.581866 3.446039 2.682145l18.314034 1.258967c.790303-3.137365 1.38582-7.20629 6.641964-9.715935 1.073987-.512793 1.72302.355357 1.72302 1.149491v8.4296l-.305697.46527c.866573.01981 1.5747.212983 1.778601.957908L59.999999 40z"/></svg>