<svg xmlns:rdf="http://www.w3.org/1999/02/22-rdf-syntax-ns#" xmlns:svg="http://www.w3.org/2000/svg" xmlns="http://www.w3.org/2000/svg" viewBox="0 0 60 80" height="80mm" width="60mm"><path d="m2.0029354 41.698131c-.6338679 4.159929-.2843659 6.004383.242112 7.432116l.2861342-7.520322 2.1790166.396956.5942769 1.036534 1.4526781.06614.044022-.463127.3301538.0441.4842265.639563 1.2765957.198473.066027-.529285.2641231.02205.3961846.573406 1.4086571.154375.08804-1.014471 1.232574.441078v0c-.657263 12.055465.923923 34.833043 5.634629 34.315614 5.978493-.656687 10.135771-19.266176 10.829054-30.787022.114292-1.899364 1.817297-3.62456 4.269993-3.837356l18.048423-1.565844c.231672 6.033508 3.482763 12.087361 6.469353 9.308864.959524-.892667 2.120647-3.144943 1.784498-8.228222L56.456346 40.639496 60 39.999999 56.456346 39.360502 59.383712 37.618247c.336149-5.083279-.824974-7.335555-1.784498-8.228222-2.98659-2.778497-6.237681 3.275357-6.469353 9.308865L33.081438 37.133045C30.628742 36.92025 28.925742 35.195053 28.811445 33.29569 28.118162 21.774844 23.960884 3.1653542 17.982391 2.508667 13.271685 1.9912387 11.690499 24.768817 12.347762 36.824281v0L11.115188 37.26536 11.027148 36.250888 9.618491 36.405264 9.2223064 36.97867 8.9581833 37.00072 8.8921563 36.471435 7.6155606 36.669907 7.1313341 37.30947 6.8011803 37.35357 6.7571583 36.890443 5.3044802 36.956583 4.7102033 37.993116 2.5311867 38.390072 2.2450525 30.86975C1.7185695 32.297484 1.3690675 34.141937 2.0029354 38.301867 1.0181055 38.645446.39872105 39.245337.0 39.999999c.39872105.754662 1.0181055 1.354553 2.0029354 1.698132z"/></svg>