<svg xmlns:rdf="http://www.w3.org/1999/02/22-rdf-syntax-ns#" xmlns:svg="http://www.w3.org/2000/svg" xmlns="http://www.w3.org/2000/svg" viewBox="0 0 60 80" height="80mm" width="60mm"><path d="M1.3541671 38.861247 1.2369794 31.950165 1.6015625 31.544406c.6652811 1.998243.5412235 4.723853.3906254 7.47391l.4296875.01308.2946482-3.070277 3.3513916.296174-.055239 1.591932 2.8542076-.962559 2.5779922-3.14685.107304-1.851005c-.970843-.46868-.820933-.983072.06627-1.14321L13.255208 2.5126204c5.43696-2.05313083 13.066046 2.4348767 12.916666 6.832548l-.364583 10.7331156-.963542 3.769684.09876 6.911592-.718156.740431-3.682848 1.277251c.936918.939188 1.027008 2.224383.147315 3.905798 10.048944-.472891 19.85309.612739 29.61066 1.994897l-.05209-8.547229 1.132813-1.151841 3.802082-.01308.03907-1.544524 1.979167.06549c1.519475.05031 1.952119 1.137923 1.940103 2.1728l-.07812 6.727827-2.513021 2.081179.01302 1.269648 3.437496.26179-3.437499.261789-.01302 1.269649 2.513021 2.081178.07812 6.727828c.01202 1.034877-.420628 2.122523-1.940103 2.172799l-1.979167.06549-.03907-1.544525-3.802082-.01308-1.132813-1.151842.05209-8.547229c-9.75757 1.382159-19.561716 2.467789-29.61066 1.994898.879693 1.681414.789603 2.96661-.147315 3.905798L24.22435 48.5l.718156.740432-.09876 6.911592.963542 3.769684.364583 10.733116c.14938 4.397671-7.479706 8.885678-12.916666 6.832548L11.618454 49.254406c-.887207-.160139-1.037117-.67453-.06627-1.14321L11.44488 46.260191 8.8668874 43.113341 6.0126798 42.150782 6.0679188 43.742713 2.7165272 44.038888 2.421879 40.968611 1.9921915 40.981689c.1505981 2.750056.2746557 5.475666-.3906254 7.47391L1.2369794 48.049838 1.3541671 41.138756C.81555731 40.890686.20777653 40.746925.0 40.000001.20777653 39.253077.81555731 39.109317 1.3541671 38.861247z"/></svg>