<svg xmlns:rdf="http://www.w3.org/1999/02/22-rdf-syntax-ns#" xmlns:svg="http://www.w3.org/2000/svg" xmlns="http://www.w3.org/2000/svg" viewBox="0 0 60 80" height="80mm" width="60mm"><path d="m58.534155 39.766367-1.403937-9.585083c-.0369-.251964-.19909-.51943-.592929-.528615l-.404695-.0094-.141169-.556949 1.37408-.264315c-1.930907-.373938-4.665784-.524081-6.795107-.0283l.950561.19824c.189285.03946.274879.24766.2447.387022l-1.901125 8.778952c-6.074023-.5836-12.280651-.679488-18.503019-.717466-.306201-2.489375-.69158-5.002684-1.132138-7.53267 2.931922-1.026242 3.127342-1.193066-.42787-2.373391-1.557394-8.36809-3.632575-16.89267-5.367261-25.31434-1.936903-2.79925611-4.879599-2.87024502-5.19475-.6694819L15.738417 25.999485H8.9244835c-.5743799.0-1.3458417.266643-1.3458417.7835v.651342c-1.1723075.229649-2.1366349.658428-2.7575726 1.41596.8014462.768965 1.715292 1.277768 2.8422766 1.293243v.707978c0 .444319.5903836.689101.9882053.689101h7.0492209v5.896223C10.269468 37.270814.99999999 38.113155.99999999 40c0 1.886845 9.26946801 2.729186 14.70077201 2.563168v5.896223H8.6515511c-.3978217.0-.9882053.244782-.9882053.689101v.707978c-1.1269846.01548-2.0408304.524278-2.8422766 1.293243.6209377.757532 1.5852651 1.186312 2.7575726 1.41596v.651342c0 .516856.7714618.783499 1.3458417.783499h6.8139335l3.501079 24.448915c.315151 2.200763 3.257847 2.129774 5.19475-.669482 1.734686-8.421669 3.809867-16.94625 5.367261-25.314333 3.555212-1.180326 3.359792-1.34715.42787-2.373392.440558-2.529986.825937-5.043295 1.132138-7.53267 6.222368-.03797 12.428996-.133866 18.503019-.717418l1.901125 8.778954c.03018.139361-.05542.347559-.2447.387021l-.950561.198239c2.129323.49578 4.8642.345637 6.795107-.0283l-1.37408-.264316.141169-.556948.404695-.0094c.393839-.0092.556023-.27665.592929-.528614l1.403937-9.585084.465844-.233632z"/></svg>