<svg xmlns:rdf="http://www.w3.org/1999/02/22-rdf-syntax-ns#" xmlns:svg="http://www.w3.org/2000/svg" xmlns="http://www.w3.org/2000/svg" viewBox="0 0 60 80" height="80mm" width="60mm"><path d="M4.3572289 37.555073C4.5090412 37.010149 4.7843994 36.470957 6.4183239 36.41353L9.5642064 36.303053 10.545422 24.435291 4.2745684 23.87164 10.618551 23.5508 10.97386 19.253355 4.8000846 18.956478 11.03017 18.572283 12.348493 2.6272356c.30041-3.6334468 8.113395-3.52062187 8.750617.4787125l5.073531 31.8425449c.137923.86563.860937 1.634474 2.301181 1.744586l20.096979 1.536287.741492-8.358427c.164764-1.857281 4.60492-1.830695 4.934755-.15622l1.713101 8.696925C56.219776 39.729698 58.277279 39.828029 60 40c-1.722721.171971-3.780224.270302-4.039851 1.588356l-1.713101 8.696925c-.329835 1.674474-4.769991 1.70106-4.934755-.15622L48.570801 41.770633 28.473822 43.30692c-1.440244.110114-2.163258.878958-2.301181 1.744588L21.09911 76.894052c-.637222 3.999334-8.450207 4.112159-8.750617.478713L11.03017 61.427718 4.8000846 61.043521 10.97386 60.746645 10.618551 56.449199 4.2745684 56.128361 10.545422 55.564709 9.5642064 43.696947 6.4183239 43.586469C4.7843994 43.529043 4.5090412 42.989851 4.3572289 42.444927.75068519 41.929113.0 41.021741.0 40 0 38.97826.75068519 38.070888 4.3572289 37.555073z"/></svg>