<svg xmlns:rdf="http://www.w3.org/1999/02/22-rdf-syntax-ns#" xmlns:svg="http://www.w3.org/2000/svg" xmlns="http://www.w3.org/2000/svg" viewBox="0 0 60 80" height="80mm" width="60mm"><path d="m55.563157 41.163399c1.00258.294884 1.885693.710355 2.510527 1.386515l-1.973685 8.590021c-.409147 1.780726-3.184976 1.855336-3.615789.430298l-2.905263-9.609987c-5.212854.773644-10.380356.860679-15.552632 1.019966-1.019088.03136-2.00783.815787-2.210526 1.705254l-6.345322 27.844571c-.632866 2.777148-6.153324 5.095894-6.548674 1.983099C17.693785 64.844401 17.326484 56.416732 15.237394 45.506392 14.81313 44.959551 14.388866 44.726068 13.964602 44.402018l.04466-1.510065-8.6408399.13607C4.0026909 42.011608 2.6831653 41.694737 1.3578947 41.290894L0 40 1.3578947 38.709107c1.3252706-.403843 2.6447962-.720715 4.0105264-1.737129l8.6408399.13607-.04466-1.510065c.424264-.32405.848528-.557533 1.272792-1.104375 2.08909-10.91034 2.456391-19.338008 3.684399-29.006745.39535-3.1127942 5.915808-.7940494 6.548674 1.9830997l6.345322 27.8445713c.202696.889468 1.191438 1.673891 2.210526 1.705254 5.172276.159288 10.339778.246323 15.552632 1.019967l2.905263-9.609988c.430813-1.425037 3.206642-1.350427 3.615789.430299l1.973685 8.590021c-.624834.67616-1.507947 1.091631-2.510527 1.386515L59.999998 40z"/></svg>