<svg xmlns:rdf="http://www.w3.org/1999/02/22-rdf-syntax-ns#" xmlns:svg="http://www.w3.org/2000/svg" xmlns="http://www.w3.org/2000/svg" viewBox="0 0 60 80" height="80mm" width="60mm"><path d="m12.72674 36.49023.940123-4.370852C11.77915 32.205438 10.085236 31.8995 8.4190115 31.537547 7.7964107 39.62696 7.7538425 35.084469 7.6753325 31.324677 5.9591587 30.738472 4.6296081 30.120981 7.5131447 29.16262 7.4855064 21.44538 8.1545837 22.337167 8.2473659 29.08234 10.273196 28.737672 12.233789 28.272459 14.599763 28.499642L20.738832 1.6085537c.461847-2.02303348 3.518025-2.44551465 4.15338.53926l7.352603 34.5410923c5.249895.232523 10.49979.800699 15.749684 1.484793L51.70529 28.119021 50.891695 27.757775c2.34765-.79922 4.696195-.312374 7.044549-.100347l-2.87735.662284 2.123286.722492 1.15094 9.693433c.10902.91819.937624 1.116065 1.666879 1.26436-.729255.148296-1.557859.346171-1.666879 1.264362l-1.15094 9.693433-2.123286.722492 2.87735.662283c-2.348354.212028-4.696899.698875-7.044549-.100347l.813595-.361243-3.710791-10.05468c-5.249894.684096-10.499789 1.252272-15.749684 1.484794l-7.352603 34.541093c-.635355 2.984777-3.691533 2.562295-4.15338.53926L14.599763 51.500352c-2.365974.227183-4.326567-.238029-6.3523971-.582698-.092782 6.745177-.7618559 7.636964-.7342212-.08028-2.8835366-.958361-1.553986-1.575851.1621878-2.162057.07851-3.759791.1210782-8.302283.743679-.21287 1.6662245-.361953 3.3601385-.667888 5.2478515-.581831L12.72674 43.509768C8.7508457 43.84673.0 42.512561.0 39.999998.0 37.487436 8.7508457 36.153267 12.72674 36.49023z"/></svg>