<svg width="2em" height="2em" viewBox="0 0 3 3" style="margin-right: 4px; user-select: none; vertical-align: middle;" xmlns="http://www.w3.org/2000/svg"><rect width="3" height="3" stroke="black" stroke-width="0.2" fill="#000000"/><text style="font-size:1px;font-weight:bold;font-family:sans-serif" fill="white" x="0.3" y="1.1" text-anchor="start">1</text><text style="font-size:1px;font-weight:bold;font-family:sans-serif" fill="white" x="2.7" y="1.1" text-anchor="end">2</text><text style="font-size:1px;font-weight:bold;font-family:sans-serif" fill="white" x="0.3" y="2.6" text-anchor="start">3</text><text style="font-size:1px;font-weight:bold;font-family:sans-serif" fill="white" x="2.7" y="2.6" text-anchor="end">12</text><path d="m 1.1602761,1.4761185 0.02487,-0.126332 -0.110964,-0.0057 c -0.06322,-0.0033 -0.06912,-0.06156 0.0019,-0.06891 l 0.110965,-0.01149 0.07079,-0.47853101 0.105225,-0.0038 0.12627,0.69482701 0.430634,0.01929 0.02164,-0.180014 0.07102,0.0027 0.03517,0.02369 0.0081,0.163096 c 0.01153,0.0016 0.01421,0.007 0.01421,0.01353 0,0.0066 -0.0027,0.0119 -0.01421,0.01353 l -0.0081,0.163096 -0.03517,0.02369 -0.07102,0.0027 -0.02164,-0.180014 -0.430634,0.01929 -0.12627,0.6948269 -0.105225,-0.0038 -0.07079,-0.4785309 -0.110965,-0.01148 c -0.07103,-0.0074 -0.06513,-0.06564 -0.0019,-0.06891 l 0.110964,-0.0057 -0.02487,-0.126332 c -0.07717,-0.01787 -0.23149504,-0.006 -0.23149504,-0.0423 0,-0.03627 0.15433004,-0.02444 0.23149504,-0.0423 z" style="fill:#ffffff;fill-opacity:1;stroke-width:0.0190227" /></svg>