<svg width="2em" height="2em" viewBox="0 0 3 3" style="margin-right: 4px; user-select: none; vertical-align: middle;" xmlns="http://www.w3.org/2000/svg"><rect width="3" height="3" stroke="black" stroke-width="0.2" fill="#f21a12"/><text style="font-size:1px;font-weight:bold;font-family:sans-serif" fill="white" x="0.3" y="1.1" text-anchor="start">3</text><text style="font-size:1px;font-weight:bold;font-family:sans-serif" fill="white" x="2.7" y="1.1" text-anchor="end">3</text><text style="font-size:1px;font-weight:bold;font-family:sans-serif" fill="white" x="0.3" y="2.6" text-anchor="start">1</text><text style="font-size:1px;font-weight:bold;font-family:sans-serif" fill="white" x="2.7" y="2.6" text-anchor="end">52</text><path d="m 0.50124692,1.4969532 0.203474,0.1707164 H 2.4318458 l 0.074389,-0.065336 H 2.2055611 l -0.00178,-0.027617 -0.048553,-0.00267 -0.050335,-0.057462 V 1.4611316 H 1.9855127 l -0.00601,-0.037194 -0.00535,0.037194 h -0.052339 l -0.022272,-0.062807 v -0.026281 h -0.022495 l -0.0078,-0.1305145 -0.0147,0.1305145 h -0.022272 v 0.028508 l -0.01559,0.034299 H 1.69063 L 1.68261,1.4566776 H 1.660785 L 1.630495,1.3297264 1.655001,1.3193114 V 1.2963184 H 1.631378 L 1.618464,1.2544264 1.607332,1.0909492 1.588846,1.2544264 H 1.562119 c 0.01562,-0.064753 -0.062546,-0.053052 -0.042317,0 h -0.01725 l -0.00855,0.031907 v 0.084319 L 1.45436,1.3876614 V 1.3416754 H 1.416563 v 0.040632 L 1.372781,1.4147504 1.352938,1.3845124 1.305692,1.4235694 1.317346,1.4484524 1.260021,1.5057774 H 1.1075737 l -0.016379,0.028978 c -0.022978,-0.00116 -0.041432,-0.00272 -0.00661,-0.00913 0.019337,-0.081307 -0.051829,-0.06134 -0.068665,-0.057011 l -0.078429,-0.079689 0.06205,0.085043 c -0.035634,0.017429 -0.037503,0.034857 -0.025828,0.052286 z" style="fill:#ffffff;fill-opacity:1;stroke:none;stroke-width:0.00681696px;stroke-linecap:butt;stroke-linejoin:miter;stroke-opacity:1"/></svg>