<?xml version="1.0" encoding="UTF-8"?><svg width="60mm" height="60mm" version="1.1" viewBox="0 0 60 60" xmlns="http://www.w3.org/2000/svg"><path d="m8.2053 60c2.4727-6.5179 6.362-6.8037 14.651-7.0223-0.10248-0.88717-0.49859-1.7163 0.11127-2.7444l0.59344 0.28251c-0.11705-1.1529 0.01957-2.4312-0.81598-3.2287l-0.07418-1.8565c0.89504 0.07935 0.44226-0.69685 0.59344-1.0897-1.3121-0.29977-2.3848-1.144-2.9301-3.1883 2.0234-2.8391 3.3595-5.982 3.1526-9.807-2.0658-0.52412-2.9859 0.28143-4.0428 0.92824-0.997-0.18489-1.1554-0.73478-1.1127-1.3722-0.86933 0.41904-1.7509 0.97162-2.485-0.08072-1.8524 1.0531-2.5023-0.62975-3.6719-1.13-6.1408 1.3693-6.2334-3.2825-9.3096-4.9641-1.6438 0.35719-1.2338-1.0548-1.2982-2.0583-1.9583-1.6995-2.4272-3.6916 0.63053-6.3766 0.031415-0.92685-1.0243-0.88582 0.3709-3.0269-0.56592-1.9913 0.11975-3.6976 2.5592-5.0044 3.6748-6.0976 8.3171-7.0039 14.02-2.2197 5.3157-7.9897 17.356-8.1195 21.706 0 5.7029-4.7842 10.345-3.8779 14.02 2.2197 2.4395 1.3068 3.1251 3.0131 2.5592 5.0044 1.3952 2.141 0.33949 2.1 0.3709 3.0269 3.0577 2.685 2.5888 4.6771 0.63053 6.3766-0.0643 1.0035 0.34567 2.4155-1.2982 2.0583-3.0762 1.6816-3.1687 6.3334-9.3096 4.9641-1.1696 0.50028-1.8195 2.1831-3.6719 1.13-0.7341 1.0523-1.6157 0.49976-2.485 0.08072 0.04268 0.6374-0.1157 1.1873-1.1127 1.3722-1.0569-0.64681-1.977-1.4524-4.0428-0.92824-0.20687 3.825 1.1293 6.9679 3.1526 9.807-0.5453 2.0443-1.618 2.8885-2.9301 3.1883 0.15118 0.39282-0.3016 1.169 0.59344 1.0897l-0.07418 1.8565c-0.83555 0.79749-0.69894 2.0758-0.81598 3.2287l0.59344-0.28251c0.60986 1.0281 0.21376 1.8572 0.11127 2.7444 8.2886 0.21864 12.178 0.50441 14.651 7.0223"/></svg>