<?xml version="1.0" encoding="UTF-8"?><svg version="1.1" viewBox="0 0 53 53" xmlns="http://www.w3.org/2000/svg"><circle cx="26.5" cy="26.5" r="26.5" fill="#62666a" opacity=".999" stroke-linecap="round" stroke-linejoin="round" stroke-width=".32009"/><path d="m22.135 10.658c1.7199 4.2415 2.8516 8.7038 3.0996 13.293v0.001953l0.078125 1.3906-1.3906-0.074219h-0.001953c-4.5893-0.24777-9.0531-1.3798-13.295-3.0996v8.6602c4.2418-1.7198 8.7057-2.8518 13.295-3.0996h0.001953l1.3906-0.074219-0.078125 1.3906v0.001953c-0.24799 4.5892-1.3797 9.0515-3.0996 13.293h8.6621c-1.7199-4.2415-2.8516-8.7038-3.0996-13.293l-0.078125-1.3926 1.3906 0.074219h0.001953c4.5898 0.24779 9.0528 1.3795 13.295 3.0996v-8.6602c-4.242 1.7201-8.7051 2.8518-13.295 3.0996h-0.001953l-1.3906 0.074219 0.078125-1.3926c0.24799-4.5892 1.3797-9.0515 3.0996-13.293h-8.6621z" fill="#fff" stroke-width=".42542"/><path d="m19.227 8.6582 0.16016 0.35352 0.32422 0.70898c1.932 4.2297 3.028 8.7772 3.3867 13.412-4.6349-0.35872-9.1825-1.4547-13.412-3.3867l-1.0605-0.48828v14.484l1.0605-0.48828c4.2297-1.932 8.7772-3.028 13.412-3.3867-0.35872 4.6349-1.4547 9.1825-3.3867 13.412l-0.48438 1.0625h14.479l-0.48438-1.0625c-1.932-4.2297-3.028-8.7772-3.3867-13.412 4.6343 0.3589 9.183 1.455 13.412 3.3867l1.0605 0.48828v-14.484l-1.0605 0.48828c-4.2291 1.9318-8.7778 3.0278-13.412 3.3867 0.35872-4.6349 1.4547-9.1825 3.3867-13.412l0.48438-1.0625zm1.5156 1h11.447c-2.0211 4.5344-3.2281 9.3902-3.4961 14.35l-0.01563 0.27734 0.2793-0.01367c4.9592-0.26739 9.8151-1.4737 14.35-3.4941v11.445c-4.5346-2.0205-9.3904-3.2267-14.35-3.4941l-0.2793-0.01367 0.01563 0.27734c0.268 4.9594 1.4749 9.8152 3.4961 14.35h-11.447c2.0211-4.5344 3.2281-9.3902 3.4961-14.35l0.01563-0.27734-0.2793 0.01367c-4.9592 0.26739-9.8151 1.4737-14.35 3.4941v-11.445c4.5346 2.0205 9.3904 3.2267 14.35 3.4941l0.2793 0.01367-0.01563-0.27734c-0.26799-4.9594-1.4749-9.8152-3.4961-14.35z" color="#000000" fill="#fff" style="-inkscape-stroke:none"/></svg>