<?xml version="1.0" encoding="UTF-8"?><svg width="512pt" height="512pt" version="1.1" viewBox="0 0 512 512" xmlns="http://www.w3.org/2000/svg"><path d="m512 256a256 256 0 0 1-256 256 256 256 0 0 1-256-256 256 256 0 0 1 256-256 256 256 0 0 1 256 256z" fill="#e5db6c"/><path d="m348 280.21c19.884 0 36.001 16.119 36.001 36.001v14.482c0 17.5-7.6386 34.126-20.916 45.526-25.049 21.503-60.895 32.014-107.14 32.014-46.234 0-82.056-10.506-107.06-32.006-13.258-11.399-20.885-28.014-20.885-45.499v-14.517c0-19.882 16.118-36.001 36.001-36.001zm-93.675-191.89 1.6278-0.1067c6.0753 0 11.096 4.5147 11.892 10.372l0.10671 1.6278-0.0122 11.984 56.01 9e-3c19.882 0 36.001 16.118 36.001 36.001v72.076c0 19.882-16.119 36.001-36.001 36.001h-136c-19.883 0-36.001-16.119-36.001-36.001v-72.076c0-19.883 16.118-36.001 36.001-36.001l55.994-9e-3 0.0122-11.984c0-6.0753 4.5154-11.096 10.372-11.891l1.6278-0.1067zm-34.389 71.885c-11.04 0-19.989 8.9496-19.989 19.989 0 11.04 8.9494 19.989 19.989 19.989 11.039 0 19.99-8.9496 19.99-19.989 0-11.04-8.9507-19.989-19.99-19.989zm71.886 0c-11.04 0-19.989 8.9496-19.989 19.989 0 11.04 8.949 19.989 19.989 19.989 11.04 0 19.99-8.9496 19.99-19.989 0-11.04-8.9492-19.989-19.99-19.989z" fill="#2abbc7" stroke-width="16"/><path d="m348 280.21c19.884 0 36.001 16.119 36.001 36.001v14.482c0 17.5-7.6386 34.126-20.916 45.526-25.049 21.503-60.895 32.014-107.14 32.014-8e-3 0 0-128.02 0-128.02zm-92.047-191.99c6.0753 0 11.096 4.5147 11.892 10.372l0.10671 1.6278-0.0122 11.984 56.01 9e-3c19.882 0 36.001 16.118 36.001 36.001v72.076c0 19.882-16.119 36.002-36.001 36.002h-67.996zm35.869 71.992c-11.04 0-19.989 8.9496-19.989 19.989 0 11.04 8.949 19.989 19.989 19.989 11.04 0 19.99-8.9496 19.99-19.989 0-11.04-8.9492-19.989-19.99-19.989z" fill="#0cabb9" stroke-width="16"/></svg>