<?xml version="1.0" encoding="UTF-8"?><svg enable-background="new 0 0 512 512" version="1.1" viewBox="0 0 512 512" xmlns="http://www.w3.org/2000/svg"><defs><linearGradient id="a" x1="74.981" x2="437.02" y1="74.981" y2="437.02" gradientUnits="userSpaceOnUse"><stop stop-color="#ff9f00" offset="0"/><stop stop-color="#f77e00" offset="1"/></linearGradient></defs><path d="m512 256c0 141.39-114.61 256-256 256s-256-114.61-256-256 114.61-256 256-256 256 114.61 256 256z" fill="url(#a)"/><rect x="169.6" y="58.667" width="172.8" height="394.67" rx="35.2" ry="35.2" fill="#e5bd02" stroke-width="8.5333"/><path d="m307.2 59.733a34.133 34.133 0 0 1 34.133 34.133v324.27a34.133 34.133 0 0 1-34.133 34.133h-102.4a34.133 34.133 0 0 1-34.133-34.133v-324.27a34.133 34.133 0 0 1 34.133-34.133h102.4m0-2.1333h-102.4a36.308 36.308 0 0 0-36.267 36.267v324.27a36.308 36.308 0 0 0 36.267 36.267h102.4a36.308 36.308 0 0 0 36.267-36.267v-324.27a36.308 36.308 0 0 0-36.267-36.267z" fill="#f8cb00" stroke-width="8.5333"/><rect x="59.733" y="170.67" width="392.53" height="170.67" rx="34.133" ry="34.133" fill="#fdd303" stroke="#ffe600" stroke-miterlimit="10" stroke-width="2.1333px"/><circle cx="194.13" cy="198.4" r="10.667" fill="#e8c002" stroke-width="8.5333"/><circle cx="194.13" cy="198.4" r="4.2667" fill="#957a01" stroke-width="8.5333"/><circle cx="235.38" cy="198.4" r="10.667" fill="#e8c002" stroke-width="8.5333"/><circle cx="235.38" cy="198.4" r="4.2667" fill="#957a01" stroke-width="8.5333"/><circle cx="276.62" cy="198.4" r="10.667" fill="#e8c002" stroke-width="8.5333"/><circle cx="276.62" cy="198.4" r="4.2667" fill="#957a01" stroke-width="8.5333"/><circle cx="317.87" cy="198.4" r="10.667" fill="#e8c002" stroke-width="8.5333"/><circle cx="317.87" cy="198.4" r="4.2667" fill="#957a01" stroke-width="8.5333"/><circle cx="194.13" cy="236.8" r="10.667" fill="#e8c002" stroke-width="8.5333"/><circle cx="194.13" cy="236.8" r="4.2667" fill="#957a01" stroke-width="8.5333"/><circle cx="235.38" cy="236.8" r="10.667" fill="#e8c002" stroke-width="8.5333"/><circle cx="235.38" cy="236.8" r="4.2667" fill="#957a01" stroke-width="8.5333"/><circle cx="276.62" cy="236.8" r="10.667" fill="#e8c002" stroke-width="8.5333"/><circle cx="276.62" cy="236.8" r="4.2667" fill="#957a01" stroke-width="8.5333"/><circle cx="317.87" cy="236.8" r="10.667" fill="#e8c002" stroke-width="8.5333"/><circle cx="317.87" cy="236.8" r="4.2667" fill="#957a01" stroke-width="8.5333"/><circle cx="194.13" cy="275.2" r="10.667" fill="#e8c002" stroke-width="8.5333"/><circle cx="194.13" cy="275.2" r="4.2667" fill="#957a01" stroke-width="8.5333"/><circle cx="235.38" cy="275.2" r="10.667" fill="#e8c002" stroke-width="8.5333"/><circle cx="235.38" cy="275.2" r="4.2667" fill="#957a01" stroke-width="8.5333"/><circle cx="276.62" cy="275.2" r="10.667" fill="#e8c002" stroke-width="8.5333"/><circle cx="276.62" cy="275.2" r="4.2667" fill="#957a01" stroke-width="8.5333"/><circle cx="317.87" cy="275.2" r="10.667" fill="#e8c002" stroke-width="8.5333"/><circle cx="317.87" cy="275.2" r="4.2667" fill="#957a01" stroke-width="8.5333"/><circle cx="194.13" cy="313.6" r="10.667" fill="#e8c002" stroke-width="8.5333"/><circle cx="194.13" cy="313.6" r="4.2667" fill="#957a01" stroke-width="8.5333"/><circle cx="235.38" cy="313.6" r="10.667" fill="#e8c002" stroke-width="8.5333"/><circle cx="235.38" cy="313.6" r="4.2667" fill="#957a01" stroke-width="8.5333"/><circle cx="276.62" cy="313.6" r="10.667" fill="#e8c002" stroke-width="8.5333"/><circle cx="276.62" cy="313.6" r="4.2667" fill="#957a01" stroke-width="8.5333"/><circle cx="317.87" cy="313.6" r="10.667" fill="#e8c002" stroke-width="8.5333"/><circle cx="317.87" cy="313.6" r="4.2667" fill="#957a01" stroke-width="8.5333"/><rect x="162.13" y="179.2" width="8.5333" height="145.07" fill="#e5bd02" stroke-width="8.5333"/><rect x="341.33" y="179.2" width="8.5333" height="145.07" fill="#e5bd02" stroke-width="8.5333"/></svg>