<?xml version="1.0" encoding="UTF-8"?><svg height="18" version="1.1" width="18" xmlns="http://www.w3.org/2000/svg" xmlns:svg="http://www.w3.org/2000/svg"><defs/><g transform="matrix(0.75,0,0,0.75,0,-771.3)" ><path d="M 22,12 A 10,10 0 1 1 2,12 10,10 0 1 1 22,12 Z" fill="#2980b9" transform="translate(0,1029.4)"/><path d="M 22,12 A 10,10 0 1 1 2,12 10,10 0 1 1 22,12 Z" fill="#3498db" transform="translate(0,1028.4)"/><path d="m 11,1040.9735 v 3.1999 h 2 v -2 c 2.39046,-0.1202 3.70393,-1.5332 3.578186,-3.9537 -0.27145,-5.2252 -6.214,-3.9843 -7.365007,-3.2082 v 1.5066 c 2.413322,-0.566 5.591244,-0.9715 5.560265,1.8479 -0.02591,2.3579 -2.474699,2.4348 -3.773444,2.6075 z m 0,5.0362 v 2 h 2 v -2 z" style="fill:#2980b9;fill-opacity:1"/><path d="m 11,1039.9735 v 3.1999 h 2 v -2 c 2.39046,-0.1202 3.70393,-1.5332 3.578186,-3.9537 -0.27145,-5.2252 -6.214,-3.9843 -7.365007,-3.2082 v 1.5066 c 2.413322,-0.566 5.591244,-0.9715 5.560265,1.8479 -0.02591,2.3579 -2.474699,2.4348 -3.773444,2.6075 z m 0,5.0362 v 2 h 2 v -2 z" style="fill:#ecf0f1;fill-opacity:1"/></g></svg>