<?xml version="1.0" encoding="UTF-8"?><svg height="18" version="1.1" width="18" xmlns="http://www.w3.org/2000/svg" xmlns:svg="http://www.w3.org/2000/svg"><defs/><g transform="matrix(0.75,0,0,0.75,0,-771.3)" ><path d="M 22,12 A 10,10 0 1 1 2,12 10,10 0 1 1 22,12 Z" fill="#2980b9" transform="translate(0,1029.4)"/><path d="M 22,12 A 10,10 0 1 1 2,12 10,10 0 1 1 22,12 Z" fill="#3498db" transform="translate(0,1028.4)"/><path d="m 11,1035.4 v 2 h 2 v -2 z m -1,4 -1,1 h 2 v 6 H 9 v 1 h 1 4 1 v -1 h -2 v -7 z" fill="#2980b9"/><path d="m 11,6 v 2 h 2 V 6 Z m -1,4 -1,1 h 2 v 6 H 9 v 1 h 1 4 1 v -1 h -2 v -7 z" fill="#ecf0f1" transform="translate(0,1028.4)"/></g></svg>