<?xml version="1.0" encoding="UTF-8"?><svg width="512pt" height="512pt" version="1.1" viewBox="0 0 512 512" xmlns="http://www.w3.org/2000/svg"><defs><marker id="b" overflow="visible" orient="auto"><path transform="scale(.6) rotate(180) translate(0)" d="m8.7186 4.0337-10.926-4.0177 10.926-4.0177c-1.7455 2.3721-1.7354 5.6175-6e-7 8.0354z" fill="#53a84d" fill-rule="evenodd" stroke="#53a84d" stroke-linejoin="round" stroke-width=".625"/></marker><linearGradient id="a" x1="74.981" x2="437.02" y1="74.981" y2="437.02" gradientUnits="userSpaceOnUse"><stop stop-color="#e3f8fa" offset="0"/><stop stop-color="#aff7ff" offset="1"/></linearGradient></defs><path d="m512 256c0 141.39-114.61 256-256 256s-256-114.61-256-256 114.61-256 256-256 256 114.61 256 256z" fill="url(#a)"/><path d="m264 173.34h-96c-10.47 0-21.336 11.919-21.336 21.336v149.32c0 9.2747 10.561 21.336 21.336 21.336l149.33-2e-3c10.471-1.4e-4 21.344-11.632 21.344-21.336v-96" fill="none" stroke="#53a84d" stroke-linecap="round" stroke-width="15"/><path d="m356.88 155.12-130.22 130.2" fill="none" marker-end="url(#b)" stroke="#53a84d" stroke-linecap="round" stroke-width="15"/></svg>