<?xml version="1.0" encoding="UTF-8"?><svg width="464pt" height="464pt" version="1.1" viewBox="0 -104 464 464" xmlns="http://www.w3.org/2000/svg"><path d="m168 32 8 8h120v-8c0-17.672-14.328-32-32-32h-64c-17.672 0-32 14.328-32 32z" fill="#4b9c2e"/><path d="m440 32h-128v32h128z" fill="#4b9c2e"/><path d="m320 32h-176v72h176z" fill="#4b9c2e"/><path d="m464 24h-32v48h32z" fill="#4b9c2e"/><path d="m64 144v8h304v-8l-12.352-37.055c-2.1758-6.5391-8.293-10.945-15.184-10.945h-248.93c-6.8945-0.0078-13.02 4.4023-15.199 10.945z" fill="#4b9c2e"/><path d="m16 192v32l64 24h296l80-64-18.129-30.207c-3.6406-6.0781-10.203-9.7969-17.285-9.793h-372.86c-9.3906 0-17.73 6.0078-20.703 14.922z" fill="#4b9c2e"/><path d="m272 256c22.09 0 40-17.91 40-40s-17.91-40-40-40-40 17.91-40 40c0.0273 22.082 17.918 39.973 40 40zm0-64c13.254 0 24 10.746 24 24s-10.746 24-24 24-24-10.746-24-24 10.746-24 24-24z" fill="#62666a"/><path d="m88 256c22.09 0 40-17.91 40-40s-17.91-40-40-40c-22.09 0-40 17.91-40 40 0.02734 22.082 17.918 39.973 40 40zm0-64c13.254 0 24 10.746 24 24s-10.746 24-24 24c-13.254 0-24-10.746-24-24s10.746-24 24-24z" fill="#62666a"/><path d="m176 256c22.09 0 40-17.91 40-40s-17.91-40-40-40-40 17.91-40 40c0.0273 22.082 17.918 39.973 40 40zm0-64c13.254 0 24 10.746 24 24s-10.746 24-24 24-24-10.746-24-24 10.746-24 24-24z" fill="#62666a"/><path d="m360 256c22.09 0 40-17.91 40-40s-17.91-40-40-40-40 17.91-40 40c0.0273 22.082 17.918 39.973 40 40zm0-64c13.254 0 24 10.746 24 24s-10.746 24-24 24-24-10.746-24-24 10.746-24 24-24z" fill="#62666a"/><path d="m91.938 256h272.48c9.3555-8e-3 18.414-3.2891 25.602-9.2734l39.105-32.582-10.242-12.289-39.102 32.586c-4.3125 3.6016-9.7461 5.582-15.363 5.5976h-272.48c-1.9609 0-3.9102-0.23828-5.8086-0.71094l-51.914-14.977-4.4297 15.375 52.184 15.043c3.2578 0.82813 6.6055 1.2422 9.9688 1.2305z" fill="#62666a"/><path d="m424.49 167.99-0.98047-15.969-392 24.004 0.97656 15.969z" fill="#62666a"/><path d="m424 216c17.672 0 32-14.328 32-32 0-17.672-14.328-32-32-32-17.672 0-32 14.328-32 32 0 17.672 14.328 32 32 32zm0-48c8.8359 0 16 7.1641 16 16s-7.1641 16-16 16-16-7.1641-16-16 7.1641-16 16-16z" fill="#62666a"/><path d="m32 240c17.672 0 32-14.328 32-32 0-17.672-14.328-32-32-32s-32 14.328-32 32c0 17.672 14.328 32 32 32zm0-48c8.8359 0 16 7.1641 16 16s-7.1641 16-16 16-16-7.1641-16-16 7.1641-16 16-16z" fill="#62666a"/></svg>