<?xml version="1.0" encoding="UTF-8"?><svg width="512pt" height="512pt" version="1.1" viewBox="0 0 512 512" xmlns="http://www.w3.org/2000/svg"><linearGradient id="a" x1="74.981" x2="437.02" y1="74.981" y2="437.02" gradientTransform="scale(1)" gradientUnits="userSpaceOnUse"><stop stop-color="#ff9f00" offset="0"/><stop stop-color="#f77e00" offset="1"/></linearGradient><path d="m512 256c0 141.39-114.61 256-256 256s-256-114.61-256-256 114.61-256 256-256 256 114.61 256 256z" fill="url(#a)"/><path d="m408.27 238.52h-43.841c-11.136 0-21.921 8.7353-21.921 21.921 0 10.445 8.2202 21.921 21.921 21.921h14.621c-12.078 34.678-46.833 76.831-102.3 85.852v-107.77h21.921c12.1 0 21.921-9.8204 21.921-21.921s-9.8204-21.921-21.921-21.921h-21.921v-25.746c25.516-9.0422 43.841-33.319 43.841-61.936 0-36.311-29.45-65.762-65.762-65.762s-65.762 29.45-65.762 65.762c0 28.617 18.315 52.894 43.841 61.936v25.746h-21.921c-12.1 0-21.921 9.8204-21.921 21.921s9.8204 21.921 21.921 21.921h21.921v107.77c-55.47-9.0203-90.225-51.173-102.29-85.852h14.61c13.7 0 21.921-11.475 21.921-21.921 0-13.185-10.785-21.921-21.921-21.921h-43.841c-4.1101 0-21.921 2.2249-21.921 24.145 0 39.731 55.656 151.22 175.36 151.22s175.36-111.49 175.36-151.22c0-21.921-17.81-24.145-21.921-24.145zm-153.44-131.52c12.1 0 21.921 9.8204 21.921 21.921 0 12.1-9.8204 21.921-21.921 21.921s-21.921-9.8204-21.921-21.921c0-12.1 9.8204-21.921 21.921-21.921z" stroke-width="10.96"/></svg>