<?xml version="1.0" encoding="UTF-8"?><svg version="1.1" viewBox="0 0 48 48" xmlns="http://www.w3.org/2000/svg"><path d="m28.798 0.01039h-19.192c-2.6389 0-4.7739 2.1591-4.7739 4.7979l-0.02399 38.383c0 2.6389 2.1351 4.7979 4.7739 4.7979h28.812c2.6389 0 4.7979-2.1591 4.7979-4.7979v-28.788zm-4.7979 38.383c-4.9179 0-9.128-2.9627-10.987-7.1969h4.1022c1.5233 2.1711 4.0303 3.5984 6.873 3.5984 4.642 0 8.3964-3.7544 8.3964-8.3964s-3.7544-8.3964-8.3964-8.3964c-3.2506 0-6.0334 1.8592-7.4248 4.57l3.8383 3.8263h-9.5958v-9.5958l3.1186 3.1186c2.1351-3.3106 5.8415-5.5176 10.076-5.5176 6.6211 0 11.995 5.3737 11.995 11.995 0 6.6211-5.3737 11.995-11.995 11.995z" fill="#33cc71" stroke-width="1.1995"/><path d="M0 0h48v48H0z" fill="none"/></svg>