<?xml version="1.0" encoding="UTF-8"?><svg enable-background="new 0 0 300 300" version="1.1" viewBox="0 0 300 300" xml:space="preserve" xmlns="http://www.w3.org/2000/svg"><defs><linearGradient id="a" x1="74.981" x2="437.02" y1="74.981" y2="437.02" gradientTransform="scale(.58594)" gradientUnits="userSpaceOnUse"><stop stop-color="#ff9f00" offset="0"/><stop stop-color="#f77e00" offset="1"/></linearGradient></defs><path d="m300 150c0 82.846-67.154 150-150 150s-150-67.154-150-150 67.154-150 150-150 150 67.154 150 150z" fill="url(#a)" stroke-width=".58594"/><polygon points="42.042 224.9 245.83 224.9 245.83 204.29 60.256 204.29" fill="#b22d43"/><rect x="178.39" y="94.663" width="67.44" height="109.62" fill="#2AC669"/><rect x="60.256" y="146.21" width="113.4" height="58.077" fill="#2AC669"/><rect x="170.87" y="79.2" width="82.474" height="20.617" fill="#b22d43"/><rect x="62.059" y="79.2" width="41.756" height="20.617" fill="#b22d43"/><rect x="118.5" y="125.59" width="26.805" height="20.62" fill="#1D1E21"/><rect x="69.533" y="99.817" width="26.806" height="46.394" fill="#1D1E21"/><path d="m60.256 163.43-3.349-7.772c-7.403 0-10.826 6.69-10.826 14.949 0 8.253 3.423 14.948 10.826 14.948l3.349-7.773z" fill="#fbdaa5"/><circle cx="212.11" cy="127.72" r="23.304" fill="#1D1E21"/><circle cx="98.948" cy="214.6" r="32.475" fill="#1D1E21"/><path d="m115.79 214.6c0 9.302-7.54 16.836-16.839 16.836s-16.838-7.534-16.838-16.836c0-9.3 7.539-16.836 16.838-16.836s16.839 7.536 16.839 16.836z" fill="#D6DAE5"/><circle cx="208.23" cy="214.6" r="32.476" fill="#1D1E21"/><path d="m225.06 214.6c0 9.302-7.54 16.836-16.838 16.836-9.3 0-16.839-7.534-16.839-16.836 0-9.3 7.539-16.836 16.839-16.836 9.298 0 16.838 7.536 16.838 16.836z" fill="#D6DAE5"/><rect x="245.83" y="209.44" width="13.402" height="10.31" fill="#D6DAE5"/><polygon points="60.256 177.78 60.256 163.43 56.907 155.66 56.907 185.56" fill="#D6DAE5"/></svg>