<?xml version="1.0" encoding="UTF-8" standalone="no"?><svg xmlns:svg="http://www.w3.org/2000/svg" xmlns="http://www.w3.org/2000/svg" version="1.1" viewBox="0 0 80 60" height="60mm" width="80mm"><path d="m 47.198081,23.73735 h 3.400941 l 0.122249,-4.743276 0.226161,4.743276 h 1.748447 c 0.342323,-2.397005 2.638927,-1.119858 1.43496,0.743413 h -1.196854 v 2.93043 h 1.352452 v -0.631037 h 1.011387 v 1.210208 l 1.201563,0.544593 -1.045965,2.679744 h 3.570112 l -0.484083,1.962265 h 21.334224 l 0.12102,1.365806 c -1.071897,0.339116 -2.143795,1.533805 -3.215692,2.697033 v 3.63062 H 9.9582762 C 8.511671,38.250117 4.6505214,38.710442 1.4425428,38.337407 L 1.0268948,36.674816 0.4645477,36.625916 0.4400978,35.574573 0.95354522,34.914424 -0.13830939,33.176966 H 44.846821 l -0.242042,-1.331228 h 2.593302 l -0.484083,-0.639681 h 1.322583 v -2.204306 h 2.532791 v -1.590558 h 0.89762 v -2.843987 z" style="fill:#000000;stroke:none;stroke-width:0.264583px;stroke-linecap:butt;stroke-linejoin:miter;stroke-opacity:1;fill-opacity:1" /></svg>