<?xml version="1.0" encoding="UTF-8"?><svg width="80mm" height="60mm" version="1.1" viewBox="0 0 80 60" xmlns="http://www.w3.org/2000/svg"><path d="m23.858 37.577 4.0222 3.3747h34.141l1.4705-1.2916h-5.9437l-0.03522-0.54594-0.95979-0.05283-0.99501-1.1359v-1.0566h-2.3599l-0.11887-0.73525-0.10566 0.73525h-1.0346l-0.44027-1.2416v-0.51952h-0.44467l-0.1541-2.58-0.29058 2.58h-0.44027v0.56355l-0.30819 0.67802h-2.4919l-0.1585 0.43146h-0.43146l-0.59877-2.5095 0.48442-0.20589v-0.45452h-0.46698l-0.25528-0.82811-0.22005-3.2316-0.36542 3.2316h-0.52832c0.30878-1.28-1.2364-1.0487-0.83651 0h-0.34099l-0.16901 0.63074v1.6668l-0.78363 0.33622v-0.90905h-0.74716v0.8032l-0.86547 0.64132-0.39226-0.59773-0.93395 0.77207 0.23037 0.49188-1.1332 1.1332h-3.0136l-0.32377 0.57283c-0.45423-0.02286-0.81903-0.05384-0.13075-0.18056 0.38225-1.6073-1.0245-1.2126-1.3573-1.127l-1.5504-1.5753 1.2266 1.6811c-0.70441 0.34453-0.74135 0.68905-0.51056 1.0336z"/><path d="m6.0021 24.237 4.0222 3.3747h34.141l1.4705-1.2916h-5.9437l-0.03522-0.54594-0.95979-0.05283-0.99501-1.1359v-1.0566h-2.3599l-0.11887-0.73525-0.10566 0.73525h-1.0346l-0.44027-1.2416v-0.51952h-0.44467l-0.1541-2.58-0.29058 2.58h-0.44027v0.56355l-0.30819 0.67802h-2.4919l-0.1585 0.43146h-0.43146l-0.59877-2.5095 0.48442-0.20589v-0.45452h-0.46698l-0.25528-0.82811-0.22005-3.2316-0.36542 3.2316h-0.52832c0.30878-1.28-1.2364-1.0487-0.83651 0h-0.34099l-0.16901 0.63074v1.6668l-0.78363 0.33622v-0.90905h-0.74716v0.8032l-0.86547 0.64132-0.39226-0.59773-0.93395 0.77207 0.23037 0.49188-1.1332 1.1332h-3.0136l-0.32377 0.57283c-0.45423-0.02286-0.81903-0.05384-0.13075-0.18056 0.38225-1.6073-1.0245-1.2126-1.3573-1.127l-1.5504-1.5753 1.2266 1.6811c-0.70441 0.34453-0.74135 0.68905-0.51056 1.0336z"/><path d="m3.9815 52.226 4.0222 3.3747h34.141l1.4705-1.2916h-5.9437l-0.03522-0.54594-0.95979-0.05283-0.99501-1.1359v-1.0566h-2.3599l-0.11887-0.73525-0.10566 0.73525h-1.0346l-0.44027-1.2416v-0.51952h-0.44467l-0.1541-2.58-0.29058 2.58h-0.44027v0.56355l-0.30819 0.67802h-2.4919l-0.1585 0.43146h-0.43146l-0.59877-2.5095 0.48442-0.20589v-0.45452h-0.46698l-0.25528-0.82811-0.22005-3.2316-0.36542 3.2316h-0.52832c0.30878-1.28-1.2364-1.0487-0.83651 0h-0.34099l-0.16901 0.63074v1.6668l-0.78363 0.33622v-0.90905h-0.74716v0.8032l-0.86547 0.64132-0.39226-0.59773-0.93395 0.77207 0.23037 0.49188-1.1332 1.1332h-3.0136l-0.32377 0.57283c-0.45423-0.02286-0.81903-0.05384-0.13075-0.18056 0.38225-1.6073-1.0245-1.2126-1.3573-1.127l-1.5504-1.5753 1.2266 1.6811c-0.70441 0.34453-0.74135 0.68905-0.51056 1.0336z"/></svg>