<?xml version="1.0" encoding="UTF-8"?><svg xmlns:svg="http://www.w3.org/2000/svg" xmlns="http://www.w3.org/2000/svg" version="1.1" viewBox="0 0 80 60" height="60mm" width="80mm"><path d="m 1.1735941,34.792176 7.8973099,6.625915 h 67.03384 l 2.887207,-2.535865 H 67.322096 L 67.252946,37.81033 65.36848,37.706598 63.41486,35.476359 v -2.07464 h -4.633368 l -0.233397,-1.443604 -0.207464,1.443604 H 56.309212 L 55.444778,30.964012 V 29.94398 H 54.5717 l -0.302552,-5.065582 -0.570526,5.065582 h -0.864435 v 1.106477 l -0.605102,1.331227 h -4.892696 l -0.311195,0.847146 h -0.847145 l -1.175631,-4.927272 0.951126,-0.404252 v -0.892418 h -0.916871 l -0.501221,-1.625918 -0.432044,-6.344943 -0.71748,6.344943 h -1.037321 c 0.606264,-2.51323 -2.42757,-2.059056 -1.642424,0 h -0.669508 l -0.331829,1.238401 v 3.272602 l -1.538587,0.660146 v -1.784842 h -1.466993 v 1.577018 l -1.699268,1.25917 -0.77017,-1.173596 -1.83374,1.515893 0.452321,0.965771 -2.224936,2.224937 h -5.916872 l -0.635697,1.124696 c -0.891846,-0.04488 -1.608096,-0.105717 -0.256723,-0.354523 0.750524,-3.155702 -2.011606,-2.380746 -2.665037,-2.212716 l -3.04401,-3.092907 2.408313,3.300732 c -1.383057,0.676447 -1.455575,1.352894 -1.002445,2.029341 z" style="fill:#000000;stroke:none;stroke-width:0.264583px;stroke-linecap:butt;stroke-linejoin:miter;stroke-opacity:1;fill-opacity:1" /></svg>