<?xml version="1.0" encoding="UTF-8"?><svg xmlns:svg="http://www.w3.org/2000/svg" xmlns="http://www.w3.org/2000/svg" version="1.1" viewBox="0 0 80 60" height="60mm" width="80mm"><path d="m 10.338627,43.359995 h 50.828702 c 3.05227,0 5.209051,-1.191064 7.399552,-1.832599 l 2.627879,1.763445 1.901753,-0.518662 -1.901753,-2.178373 3.184951,-1.763443 c -0.422676,3.906514 0.833553,2.56886 0.480248,-0.311197 0.4035,-3.794221 -0.804708,-3.528397 -0.484082,-0.449506 l -2.939076,-1.625135 0.276619,-5.705263 -3.699775,-0.03458 -1.521404,4.183859 C 64.65202,34.525601 63.069086,33.820939 60.959864,33.816643 L 43.982388,33.782063 43.15253,27.177791 H 40.794619 V 26.83374 H 38.814181 V 16.925997 H 38.569683 V 26.83374 H 36.699266 V 23.129573 H 36.283619 V 26.83374 H 35.91687 v 0.41565 H 35.281174 V 21.070539 H 34.87775 v 6.178851 h -2.506112 l -1.597797,6.532678 H 11.756298 c -11.40417546,0 -11.73075699,9.577927 -1.417671,9.577927 z" style="fill:#000000;stroke:none;stroke-width:0.264583px;stroke-linecap:butt;stroke-linejoin:miter;stroke-opacity:1;fill-opacity:1"/></svg>