<svg version="1.1" xmlns="http://www.w3.org/2000/svg" xmlns:xlink="http://www.w3.org/1999/xlink" x="0px" y="0px" viewBox="0 0 512 512" style="enable-background:new 0 0 512 512;" xml:space="preserve"><defs><linearGradient id="a" x1="74.981003" x2="437.01999" y1="74.981003" y2="437.01999" gradientUnits="userSpaceOnUse"><stop stop-color="#ffffff55" offset="0"/><stop stop-color="#00000055" offset="1"/></linearGradient></defs><path d="M 512,256 C 512,397.38999 397.38999,512 256,512 114.61,512 0,397.38999 0,256 0,114.61 114.60999,0 256,0 397.38999,0 512,114.61 512,256 Z" fill="url(#a)"/><g transform="scale(8)"><path d="m 32,55.114 c -0.385,0 -0.751,-0.146 -1.031,-0.411 L 8,32 12,30 32,51.549 54.567,30.886 c 0.176,0.222 -0.177,-2 0,-1.614 C 54.819,29.824 55.686,31.553 56,32 L 33.03,54.704 c -0.279,0.264 -0.645,0.41 -1.03,0.41 z" fill="#231f20" opacity="0.2"/><path d="m 32,53.5 c -0.385,0 -0.751,-0.146 -1.031,-0.411 L 8,32 12.29,31.974 32,49.935 54.567,29.272 c 0.176,0.222 0.43,0.777 0.607,1.163 C 55.427,30.987 55.686,31.553 56,32 L 33.03,53.09 C 32.751,53.354 32.385,53.5 32,53.5 Z" fill="#4f5d73"/><path d="m 46,31 c -0.068,-0.508 -0.7,-0.839 -1,-1 -0.221,-0.119 -1.25,2 -1.498,2 -0.555,0 -0.621,0.54 -0.883,1.027 L 32,51.755 21.381,33.027 C 21.119,32.54 21.555,30 21,30 c -0.249,0 -0.779,-1.119 -1,-1 -0.299,0.161 -0.932,-0.508 -1,0 -0.069,0.51 -3.209,-0.391 -3,0 l 13.95,25.316 c 1.399,-0.285 2.844,-0.306 4.292,-0.336 L 47,31 c 0.209,-0.391 -0.931,0.51 -1,0 z" fill="#231f20"/><path d="m 32,53.5 c -0.554,0 -1.06,-0.303 -1.322,-0.791 L 19,32 c -0.209,-0.391 0.143,-1.187 0.212,-1.697 0.068,-0.508 0.279,-0.891 0.579,-1.052 0.221,-0.119 0.459,-0.179 0.708,-0.179 0.555,0 0.621,0.54 0.883,1.027 L 32,48.828 42.619,30.1 c 0.262,-0.488 0.329,-1.027 0.883,-1.027 0.249,0 0.486,0.06 0.707,0.179 0.3,0.161 0.511,0.544 0.579,1.052 C 44.857,30.813 45.209,31.609 45,32 L 33.322,52.709 C 33.06,53.197 32.554,53.5 32,53.5 Z" fill="#4f5d73"/><g opacity="0.2"><path d="m 45,34 h 8.822 L 56,32 C 54.984,19.681 44.581,10 32,10 c 7.18,0 13,10.745 13,24 z" fill="#231f20"/><path d="M 32,10 C 19.574,10 9.229,19.898 8,32 l 2.178,2 H 19 C 19,20.745 24.82,10 32,10 Z" fill="#231f20"/><path d="M 19,34 H 45 C 45,20.745 39.18,10 32,10 24.82,10 19,20.745 19,34 Z" fill="#231f20"/></g><path d="M 45,32 H 56 C 56,18.745 45.255,8 32,8 39.18,8 45,18.745 45,32 Z" fill="#c75c5c"/><path d="M 32,8 C 18.745,8 8,18.745 8,32 H 19 C 19,18.745 24.82,8 32,8 Z" fill="#c75c5c"/><path d="M 19,32 H 45 C 45,18.745 39.18,8 32,8 24.82,8 19,18.745 19,32 Z" fill="#ffffff" /><circle opacity="0.2" cx="32" cy="54" fill="#231f20" r="4"/><circle cx="32" cy="52" fill="#e0e0d1" r="4"/></g></svg>