<svg enable-background="new 0 0 512 512" version="1.1" viewBox="0 0 512 512" xml:space="preserve" xmlns="http://www.w3.org/2000/svg"><defs><linearGradient id="a" x1="74.981" x2="437.02" y1="74.981" y2="437.02" gradientUnits="userSpaceOnUse"><stop stop-color="#ff880055" offset="0"/><stop stop-color="#aa000055" offset="1"/></linearGradient><linearGradient gradientTransform="matrix(0.7071,0.7071,-0.7071,0.7071,-1549.0148,-556.7651)" gradientUnits="userSpaceOnUse" id="b" x1="1851.0674" x2="1851.0674" y1="-972.16162" y2="-502.26019"><stop offset="0" stop-color="#FFFFFF"/><stop offset="1" stop-color="#C7DAFF"/></linearGradient><linearGradient gradientTransform="matrix(0.7071,0.7071,-0.7071,0.7071,-1549.0148,-556.7651)" gradientUnits="userSpaceOnUse" id="c" x1="1865.0898" x2="1865.0898" y1="-603.30322" y2="-970.09497"><stop offset="0" stop-color="#819FEA"/><stop offset="1" stop-color="#A7C1FC"/></linearGradient></defs><path d="m512 256c0 141.39-114.61 256-256 256s-256-114.61-256-256 114.61-256 256-256 256 114.61 256 256z" fill="url(#a)"/><g transform="matrix(0.78895805,0,0,0.82775258,56.874363,49.928555)"><polygon points="151.996,333.365 64.291,421.07 77.61,434.391 90.929,447.71 178.635,360.004 165.316,346.685" fill="#b75798"/><path fill="#ffd9be" d="M 98.834,442.717 92.45,419.549 69.283,413.166 c -2.672,-0.736 -5.533,0.02 -7.493,1.979 l -13.201,13.202 c -2.592,2.591 -2.592,6.794 0,9.386 l 12.839,12.84 12.839,12.839 c 2.592,2.592 6.794,2.592 9.386,0 l 13.201,-13.201 c 1.961,-1.961 2.716,-4.822 1.98,-7.494 z"/><polygon points="178.635,360.004 165.316,346.685 151.996,333.365 137.104,348.258 163.743,374.896" fill="#7f2467"/><rect y="377.00601" x="111.274" width="37.673" transform="matrix(-0.7071,-0.7071,0.7071,-0.7071,-47.9208,743.9301)" height="9.7670002" fill="#7f2467"/><rect y="400.772" x="87.509003" width="37.673" transform="matrix(-0.7071,-0.7071,0.7071,-0.7071,-105.2994,767.6941)" height="9.7670002" fill="#7f2467"/><path fill="#ffbf76" d="m 53.969,443.112 7.459,7.46 12.839,12.839 c 2.592,2.592 6.794,2.592 9.386,0 L 96.854,450.21 c 1.96,-1.96 2.715,-4.821 1.979,-7.493 l -6.384,-23.168 -16.447,16.448 c 0.001,0 -8.621,9.733 -22.033,7.115 z"/><path fill="url(#b)" d="m 457.373,46.666 -26.05,1.916 c -5.269,0.388 -10.222,2.655 -13.957,6.391 l -266.519,266.52 19.831,19.83 19.83,19.83 266.52,-266.519 c 3.734,-3.735 6.004,-8.688 6.391,-13.957 l 1.916,-26.05 c 0.333,-4.528 -3.435,-8.294 -7.962,-7.961 z"/><path fill="#c7daff" d="m 223.397,248.941 -72.55,72.551 19.831,19.83 113.163,-113.163 c -24.536,13.713 -46.294,18.891 -60.444,20.782 z"/><path fill="#c7daff" d="m 375.885,137.868 c 0.574,-1.126 1.147,-2.282 1.714,-3.467 l -93.758,93.758 c 15.681,-8.764 32.487,-20.991 49.184,-38.139 l 16.856,-16.856 c 10.391,-10.392 19.318,-22.207 26.004,-35.296 z"/><path fill="#c7daff" d="m 457.373,46.666 -26.05,1.916 c -5.269,0.388 -10.222,2.655 -13.957,6.391 l -27.133,27.133 c -0.014,20.159 -5.896,38.207 -12.635,52.295 l 85.578,-85.578 c -1.465,-1.466 -3.539,-2.324 -5.803,-2.157 z"/><path fill="url(#c)" d="m 457.027,94.634 c 2.416,-2.416 4.139,-5.37 5.215,-8.56 -4.43,0.065 -10.313,0.653 -17.621,2.421 -18.714,4.527 -35.653,14.538 -49.268,28.153 l -224.675,224.674 19.83,19.83 z"/><path fill="#ffd9be" d="m 251.494,419.528 c 1.663,-4.069 4.682,-13.362 3.523,-25.045 -0.302,-3.04 -3.5,-4.808 -6.221,-3.417 -5.36,2.74 -13.884,5.289 -20.431,-1.258 l -39.741,-39.196 -2.318,-24.918 -24.918,-2.317 -39.196,-39.742 c -6.547,-6.547 -3.999,-15.07 -1.258,-20.43 1.391,-2.721 -0.376,-5.92 -3.417,-6.222 -11.683,-1.159 -20.976,1.86 -25.045,3.522 -1.418,0.58 -2.614,1.614 -3.342,2.963 -6.205,11.494 -6.861,23.543 -6.396,31.338 0.178,2.974 3.711,4.448 5.974,2.51 7.566,-6.485 15.789,-2.867 15.789,-2.867 l 56.527,56.527 56.527,56.527 c 0,0 3.618,8.223 -2.867,15.789 -1.938,2.262 -0.464,5.795 2.51,5.973 7.794,0.467 19.844,-0.19 31.337,-6.395 1.349,-0.727 2.383,-1.924 2.963,-3.342 z"/><path fill="#ffbf76" d="m 217.551,407.504 c 0,0 3.618,8.223 -2.867,15.789 -1.938,2.262 -0.464,5.795 2.51,5.973 7.794,0.467 19.844,-0.19 31.337,-6.395 1.349,-0.729 2.383,-1.925 2.962,-3.343 1.663,-4.069 4.682,-13.362 3.523,-25.045 -0.302,-3.04 -3.5,-4.808 -6.221,-3.417 -5.36,2.74 -13.884,5.289 -20.431,-1.258 l -39.741,-39.196 -2.318,-24.918 -25.283,25.282 z"/><polygon points="141.193,331.146 155.243,317.096 141.245,302.931 127.111,317.064" fill="#fffcff"/><polygon points="117.654,307.607 131.836,293.425 123.733,285.209 109.495,299.447" fill="#fffcff"/></g></svg>