<svg height="464pt" viewBox="0 0 464 464" width="464pt" xmlns="http://www.w3.org/2000/svg"><defs><linearGradient id="a" x1="74.981003" x2="437.01999" y1="74.981003" y2="437.01999" gradientUnits="userSpaceOnUse"><stop stop-color="#ffffff55" offset="0"/><stop stop-color="#00000055" offset="1"/></linearGradient></defs><path d="M464,232 C 464,360.13468 360.13468,464 232,464 103.86531,464 0,360.13468 0,232 0,103.86531 103.8653,0 232,0 360.13468,0 464,103.86531 464,232Z" fill="url(#a)"/><g transform="matrix(0.92948795,0,0,0.92948795,-175.37235,-90.88074)"><g transform="matrix(0.74999998,0,0,0.74999998,241.02183,149.63473)"><polygon fill="#ffb74d" points="92.449,299.769 329.792,324.097 319.589,506.709 114.653,461.955"/><polygon fill="#e6a545" points="408.407,271.839 329.792,324.097 319.589,506.709 394.603,407.596"/><polygon fill="#e6a545" points="235.276,261.325 92.449,299.769 5.434,274.842 167.764,243.604"/><polygon fill="#e6a545" points="408.407,271.839 426.11,219.276 257.778,213.87 235.276,261.325"/><polygon fill="#e6a545" points="329.792,324.097 469.319,352.931 506.524,288.957 408.407,271.839"/><polygon fill="none" points="92.449,299.769 329.792,324.097 408.407,271.839 235.276,261.325"/><polygon fill="#cf953e" points="235.276,261.325 235.573,314.487 92.449,299.769"/><polygon fill="#cf953e" points="329.792,324.097 408.407,271.839 235.276,261.325 235.573,314.487"/><path d="m287.784,271.236v48.656l-5.702,-0.599v-53.162h34.508l-27.906,-44.754-27.902,-44.75-27.906,44.75-27.906,44.754h34.508v48.656l-5.702,-0.603V271.235H204.97c-1.798,0-3.597,-0.9-4.802,-2.701-0.895,-1.503-0.895,-3.304 0,-5.108l55.813,-89.202c0.899,-1.803 2.703,-2.703 4.802,-2.703 2.101,0 3.899,0.9 4.799,2.703l55.812,89.202c1.201,1.805 1.201,3.605 0,5.108-0.899,1.801-2.702,2.701-4.802,2.701h-28.808Z" fill="#4e5a62"/><polygon fill="#99cccc" points="282.082,266.132 282.082,360.141 239.477,360.141 239.477,266.132 204.969,266.132 232.875,221.378 260.781,176.628 288.684,221.378 316.59,266.132"/><path d="m393.402,208.464-24.903,86.2c-0.899,2.701-3.898,4.204-6.902,3.605l-41.104,-10.213c-3.003,-0.9-4.802,-3.605-3.902,-6.307l24.902,-86.202-27.902,-6.907c-2.1,-0.302-3.3,-1.803-3.902,-3.605-0.599,-1.8 0,-3.603 1.502,-5.104l78.615,-72.686c1.497,-1.501 3.598,-2.102 5.4,-1.501 2.1,0.601 3.598,1.802 4.2,3.603l28.806,99.716c0.301,1.803 0,3.604-1.502,5.106-1.498,1.2-3.602,1.801-5.4,1.2Zm0.301,-97.612 14.704,49.856 14.402,49.559-33.307,-8.111-26.404,91.005-41.108,-10.209 26.404,-91.007-33.307,-8.111 39.31,-36.641Z" fill="#4e5a62"/><polygon fill="#99cccc" points="389.503,202.156 363.099,293.161 321.99,282.952 348.395,191.945 315.088,183.834 354.397,147.193 393.703,110.852 408.407,160.708 422.81,210.267"/><path d="m167.161,248.11 39.606,63.375-6.898,-0.603-40.506,-64.575 30.002,-15.918-48.308,-25.83 L 92.75,178.73v51.659 51.361l29.705,-15.92 24.602,39.646-6.898,-0.599-19.803,-31.84-24.903,13.215c-1.803,0.904-3.903,0.904-5.404,0-1.799,-0.9-3,-2.399-3,-4.502V178.73c0,-1.802 1.201,-3.605 3,-4.505 1.501,-0.9 3.602,-0.9 5.404,0l96.616,51.659c1.799,0.902 2.702,2.404 2.702,4.506 0,1.802-0.903,3.304-2.702,4.206Z" fill="#4e5a62"/><polygon fill="#99cccc" points="159.363,246.307 210.374,327.702 173.465,347.524 122.455,265.83 92.75,281.75 92.75,230.389 92.75,178.73 141.058,204.56 189.366,230.389"/><polygon fill="#e6a545" points="18.937,359.538 272.481,399.485 325.291,323.795 92.449,299.769"/><path d="m511.322,286.554c-0.598,-1.499-2.1,-2.403-3.898,-2.701l-91.817,-15.92 15.604,-47.153c0.603,-1.503 0.301,-3.004-0.599,-4.506-0.903,-1.202-2.4,-2.102-3.902,-2.102 1.502,-1.503 1.803,-3.304 1.502,-5.106 L 399.406,109.35c-0.603,-1.801-2.101,-3.002-4.2,-3.603-1.803,-0.601-3.903,0-5.4,1.501l-78.615,72.686c-1.502,1.501-2.101,3.304-1.502,5.104 0.603,1.803 1.803,3.304 3.902,3.605l27.902,6.907-4.497,15.619-49.211,-1.501-22.204,-35.441c-0.899,-1.803-2.698,-2.703-4.799,-2.703-2.1,0-3.903,0.9-4.802,2.703l-46.81,74.785-29.404,-7.807 12.303,-6.607c1.799,-0.902 2.702,-2.404 2.702,-4.206 0,-2.102-0.903,-3.604-2.702,-4.506 L 95.453,174.227c-1.803,-0.9-3.903,-0.9-5.404,0-1.799,0.9-3,2.703-3,4.505v75.087 L 4.534,269.733c-2.702,0.301-4.501,2.403-4.501,4.807-0.301,2.403 1.498,4.506 3.899,5.104l77.415,22.527-66.313,53.464c-1.498,1.201-2.1,3.304-1.498,5.405 0.598,1.801 2.1,3.304 4.501,3.605l79.213,12.612 11.705,85.3c0.297,2.403 2.1,3.902 4.2,4.506l204.936,44.749c2.4,0.604 4.501,-0.301 5.998,-2.102l75.014,-99.114c0.603,-0.899 0.899,-1.8 0.899,-2.704l6.602,-62.471 61.514,12.616c2.401,0.599 5.1,-0.603 6.3,-2.705l36.904,-63.974c0.905,-1.501 0.905,-3.301 0,-4.804Zm-42.003,66.377-67.814,-14.115-6.902,68.78-75.014,99.113 L 114.653,461.955 102.35,372.753 18.936,359.538 92.448,299.768 5.434,274.842 92.75,258.022V230.39 178.73l48.308,25.83 48.308,25.83-26.706,14.117 5.104,-0.902 44.107,11.714 21.004,-33.94 27.906,-44.75 23.702,38.143 56.712,1.803 7.199,-24.628-33.307,-8.111 39.31,-36.641 39.306,-36.341 14.704,49.856 14.402,49.559-33.307,-8.111-4.501,15.918 41.108,1.202-17.703,52.563 98.117,17.118Zm-54.913,-139.36-22.205,-0.601 1.201,-4.505Z" fill="#4e5a62"/><polygon fill="none" points="393.402,208.464 392.201,212.97 414.406,213.571"/></g><g transform="matrix(2.1309353,0,0,2.1309353,372.91744,157.9524)"><rect y="18.5" x="22.1" width="7" height="2" fill="#c6bf66"/><circle r="2.2" fill="#c6bf66" cy="38.900002" cx="10"/><polygon points="36.3,30.3 36.3,22.5 30.1,22.5 21.1,22.5 14.9,22.5 14.9,30.3 " fill="#c6bf66"/><circle r="2.2" fill="#c6bf66" cy="38.900002" cx="20.4"/><path fill="#515e27" d="M14.9,32.3H11c-3.6,0-6.6,2.9-6.6,6.6 0,3.6 2.9,6.6 6.6,6.6h29.5c3.6,0 6.6,-2.9 6.6,-6.6 0,-3.6-2.9,-6.6-6.6,-6.6H36.3Z M10,43.1c-2.3,0-4.2,-1.9-4.2,-4.2 0,-2.3 1.9,-4.2 4.2,-4.2 2.3,0 4.2,1.9 4.2,4.2-0.1,2.3-1.9,4.2-4.2,4.2Zm10.4,0c-2.3,0-4.2,-1.9-4.2,-4.2 0,-2.3 1.9,-4.2 4.2,-4.2 2.3,0 4.2,1.9 4.2,4.2 0,2.3-1.9,4.2-4.2,4.2Zm10.5,0c-2.3,0-4.2,-1.9-4.2,-4.2 0,-2.3 1.9,-4.2 4.2,-4.2 2.3,0 4.2,1.9 4.2,4.2-0.1,2.3-1.9,4.2-4.2,4.2Zm10.4,-8.4c2.3,0 4.2,1.9 4.2,4.2 0,2.3-1.9,4.2-4.2,4.2-2.3,0-4.2,-1.9-4.2,-4.2 0,-2.3 1.9,-4.2 4.2,-4.2Z"/><circle r="2.2" fill="#c6bf66" cy="38.900002" cx="41.299999"/><circle r="2.2" fill="#c6bf66" cy="38.900002" cx="30.9"/><path fill="#1f2310" d="m10,34.7c-2.3,0-4.2,1.9-4.2,4.2 0,2.3 1.9,4.2 4.2,4.2 2.3,0 4.2,-1.9 4.2,-4.2-0.1,-2.3-1.9,-4.2-4.2,-4.2Zm0,6.4c-1.2,0-2.2,-1-2.2,-2.2 0,-1.2 1,-2.2 2.2,-2.2 1.2,0 2.2,1 2.2,2.2-0.1,1.2-1,2.2-2.2,2.2Z"/><path fill="#1f2310" d="m20.4,34.7c-2.3,0-4.2,1.9-4.2,4.2 0,2.3 1.9,4.2 4.2,4.2 2.3,0 4.2,-1.9 4.2,-4.2 0,-2.3-1.9,-4.2-4.2,-4.2Zm0,6.4c-1.2,0-2.2,-1-2.2,-2.2 0,-1.2 1,-2.2 2.2,-2.2 1.2,0 2.2,1 2.2,2.2 0,1.2-1,2.2-2.2,2.2Z"/><path fill="#1f2310" d="m30.9,34.7c-2.3,0-4.2,1.9-4.2,4.2 0,2.3 1.9,4.2 4.2,4.2 2.3,0 4.2,-1.9 4.2,-4.2-0.1,-2.3-1.9,-4.2-4.2,-4.2Zm0,6.4c-1.2,0-2.2,-1-2.2,-2.2 0,-1.2 1,-2.2 2.2,-2.2 1.2,0 2.2,1 2.2,2.2-0.1,1.2-1,2.2-2.2,2.2Z"/><path fill="#1f2310" d="m41.3,43.1c2.3,0 4.2,-1.9 4.2,-4.2 0,-2.3-1.9,-4.2-4.2,-4.2-2.3,0-4.2,1.9-4.2,4.2 0,2.3 1.9,4.2 4.2,4.2Zm0,-6.4c1.2,0 2.2,1 2.2,2.2 0,1.2-1,2.2-2.2,2.2-1.2,0-2.2,-1-2.2,-2.2 0,-1.2 1,-2.2 2.2,-2.2Z"/><path fill="#1f2310" d="m60.4,23.9-22.1,2.2v-3.6c0,-1.1-0.9,-2-2,-2h-5.2v-3c0,-0.6-0.4,-1-1,-1h-9c-0.6,0-1,0.4-1,1v3h-5.2c-1.1,0-2,0.9-2,2v7.8H11c-4.7,0-8.6,3.8-8.6,8.6 0,4.7 3.8,8.6 8.6,8.6h29.5c4.7,0 8.6,-3.8 8.6,-8.6 0,-4.7-3.8,-8.6-8.6,-8.6h-2.2v-2.2l22.3,-2.2c0.5,-0.1 1,-0.5 0.9,-1.1 C 61.4,24.3 61,23.9 60.4,23.9Z M22.1,18.5h7v2h-7Zm-7.2,4h6.2 9 6.2v7.8H14.9Zm25.6,9.8c3.6,0 6.6,2.9 6.6,6.6 0,3.6-2.9,6.6-6.6,6.6H11.1c-3.6,0-6.6,-2.9-6.6,-6.6 0,-3.6 2.9,-6.6 6.6,-6.6H15 36.4Z"/></g><g transform="matrix(1.4452856,-0.350014,0.350014,1.4452856,259.54249,206.09523)"><rect fill="#c6bf66" height="2" width="7" x="22.1" y="18.5"/><circle cx="10" cy="38.900002" fill="#c6bf66" r="2.2"/><polygon fill="#c6bf66" points="21.1,22.5 14.9,22.5 14.9,30.3 36.3,30.3 36.3,22.5 30.1,22.5"/><circle cx="20.4" cy="38.900002" fill="#c6bf66" r="2.2"/><path d="M14.9,32.3H11c-3.6,0-6.6,2.9-6.6,6.6 0,3.6 2.9,6.6 6.6,6.6h29.5c3.6,0 6.6,-2.9 6.6,-6.6 0,-3.6-2.9,-6.6-6.6,-6.6H36.3Z M10,43.1c-2.3,0-4.2,-1.9-4.2,-4.2 0,-2.3 1.9,-4.2 4.2,-4.2 2.3,0 4.2,1.9 4.2,4.2-0.1,2.3-1.9,4.2-4.2,4.2Zm10.4,0c-2.3,0-4.2,-1.9-4.2,-4.2 0,-2.3 1.9,-4.2 4.2,-4.2 2.3,0 4.2,1.9 4.2,4.2 0,2.3-1.9,4.2-4.2,4.2Zm10.5,0c-2.3,0-4.2,-1.9-4.2,-4.2 0,-2.3 1.9,-4.2 4.2,-4.2 2.3,0 4.2,1.9 4.2,4.2-0.1,2.3-1.9,4.2-4.2,4.2Zm10.4,-8.4c2.3,0 4.2,1.9 4.2,4.2 0,2.3-1.9,4.2-4.2,4.2-2.3,0-4.2,-1.9-4.2,-4.2 0,-2.3 1.9,-4.2 4.2,-4.2Z" fill="#515e27"/><circle cx="41.299999" cy="38.900002" fill="#c6bf66" r="2.2"/><circle cx="30.9" cy="38.900002" fill="#c6bf66" r="2.2"/><path d="m10,34.7c-2.3,0-4.2,1.9-4.2,4.2 0,2.3 1.9,4.2 4.2,4.2 2.3,0 4.2,-1.9 4.2,-4.2-0.1,-2.3-1.9,-4.2-4.2,-4.2Zm0,6.4c-1.2,0-2.2,-1-2.2,-2.2 0,-1.2 1,-2.2 2.2,-2.2 1.2,0 2.2,1 2.2,2.2-0.1,1.2-1,2.2-2.2,2.2Z" fill="#1f2310"/><path d="m20.4,34.7c-2.3,0-4.2,1.9-4.2,4.2 0,2.3 1.9,4.2 4.2,4.2 2.3,0 4.2,-1.9 4.2,-4.2 0,-2.3-1.9,-4.2-4.2,-4.2Zm0,6.4c-1.2,0-2.2,-1-2.2,-2.2 0,-1.2 1,-2.2 2.2,-2.2 1.2,0 2.2,1 2.2,2.2 0,1.2-1,2.2-2.2,2.2Z" fill="#1f2310"/><path d="m30.9,34.7c-2.3,0-4.2,1.9-4.2,4.2 0,2.3 1.9,4.2 4.2,4.2 2.3,0 4.2,-1.9 4.2,-4.2-0.1,-2.3-1.9,-4.2-4.2,-4.2Zm0,6.4c-1.2,0-2.2,-1-2.2,-2.2 0,-1.2 1,-2.2 2.2,-2.2 1.2,0 2.2,1 2.2,2.2-0.1,1.2-1,2.2-2.2,2.2Z" fill="#1f2310"/><path d="m41.3,43.1c2.3,0 4.2,-1.9 4.2,-4.2 0,-2.3-1.9,-4.2-4.2,-4.2-2.3,0-4.2,1.9-4.2,4.2 0,2.3 1.9,4.2 4.2,4.2Zm0,-6.4c1.2,0 2.2,1 2.2,2.2 0,1.2-1,2.2-2.2,2.2-1.2,0-2.2,-1-2.2,-2.2 0,-1.2 1,-2.2 2.2,-2.2Z" fill="#1f2310"/><path d="m60.4,23.9-22.1,2.2v-3.6c0,-1.1-0.9,-2-2,-2h-5.2v-3c0,-0.6-0.4,-1-1,-1h-9c-0.6,0-1,0.4-1,1v3h-5.2c-1.1,0-2,0.9-2,2v7.8H11c-4.7,0-8.6,3.8-8.6,8.6 0,4.7 3.8,8.6 8.6,8.6h29.5c4.7,0 8.6,-3.8 8.6,-8.6 0,-4.7-3.8,-8.6-8.6,-8.6h-2.2v-2.2l22.3,-2.2c0.5,-0.1 1,-0.5 0.9,-1.1 C 61.4,24.3 61,23.9 60.4,23.9Z M22.1,18.5h7v2h-7Zm-7.2,4h6.2 9 6.2v7.8H14.9Zm25.6,9.8c3.6,0 6.6,2.9 6.6,6.6 0,3.6-2.9,6.6-6.6,6.6H11.1c-3.6,0-6.6,-2.9-6.6,-6.6 0,-3.6 2.9,-6.6 6.6,-6.6H15 36.4Z" fill="#1f2310"/></g><g transform="matrix(1.5448204,0.59119891,-0.59119891,1.5448204,537.15624,129.69627)"><rect fill="#c6bf66" height="2" width="7" x="22.1" y="18.5"/><circle cx="10" cy="38.900002" fill="#c6bf66" r="2.2"/><polygon fill="#c6bf66" points="14.9,30.3 36.3,30.3 36.3,22.5 30.1,22.5 21.1,22.5 14.9,22.5"/><circle cx="20.4" cy="38.900002" fill="#c6bf66" r="2.2"/><path d="M14.9,32.3H11c-3.6,0-6.6,2.9-6.6,6.6 0,3.6 2.9,6.6 6.6,6.6h29.5c3.6,0 6.6,-2.9 6.6,-6.6 0,-3.6-2.9,-6.6-6.6,-6.6H36.3Z M10,43.1c-2.3,0-4.2,-1.9-4.2,-4.2 0,-2.3 1.9,-4.2 4.2,-4.2 2.3,0 4.2,1.9 4.2,4.2-0.1,2.3-1.9,4.2-4.2,4.2Zm10.4,0c-2.3,0-4.2,-1.9-4.2,-4.2 0,-2.3 1.9,-4.2 4.2,-4.2 2.3,0 4.2,1.9 4.2,4.2 0,2.3-1.9,4.2-4.2,4.2Zm10.5,0c-2.3,0-4.2,-1.9-4.2,-4.2 0,-2.3 1.9,-4.2 4.2,-4.2 2.3,0 4.2,1.9 4.2,4.2-0.1,2.3-1.9,4.2-4.2,4.2Zm10.4,-8.4c2.3,0 4.2,1.9 4.2,4.2 0,2.3-1.9,4.2-4.2,4.2-2.3,0-4.2,-1.9-4.2,-4.2 0,-2.3 1.9,-4.2 4.2,-4.2Z" fill="#515e27"/><circle cx="41.299999" cy="38.900002" fill="#c6bf66" r="2.2"/><circle cx="30.9" cy="38.900002" fill="#c6bf66" r="2.2"/><path d="m10,34.7c-2.3,0-4.2,1.9-4.2,4.2 0,2.3 1.9,4.2 4.2,4.2 2.3,0 4.2,-1.9 4.2,-4.2-0.1,-2.3-1.9,-4.2-4.2,-4.2Zm0,6.4c-1.2,0-2.2,-1-2.2,-2.2 0,-1.2 1,-2.2 2.2,-2.2 1.2,0 2.2,1 2.2,2.2-0.1,1.2-1,2.2-2.2,2.2Z" fill="#1f2310"/><path d="m20.4,34.7c-2.3,0-4.2,1.9-4.2,4.2 0,2.3 1.9,4.2 4.2,4.2 2.3,0 4.2,-1.9 4.2,-4.2 0,-2.3-1.9,-4.2-4.2,-4.2Zm0,6.4c-1.2,0-2.2,-1-2.2,-2.2 0,-1.2 1,-2.2 2.2,-2.2 1.2,0 2.2,1 2.2,2.2 0,1.2-1,2.2-2.2,2.2Z" fill="#1f2310"/><path d="m30.9,34.7c-2.3,0-4.2,1.9-4.2,4.2 0,2.3 1.9,4.2 4.2,4.2 2.3,0 4.2,-1.9 4.2,-4.2-0.1,-2.3-1.9,-4.2-4.2,-4.2Zm0,6.4c-1.2,0-2.2,-1-2.2,-2.2 0,-1.2 1,-2.2 2.2,-2.2 1.2,0 2.2,1 2.2,2.2-0.1,1.2-1,2.2-2.2,2.2Z" fill="#1f2310"/><path d="m41.3,43.1c2.3,0 4.2,-1.9 4.2,-4.2 0,-2.3-1.9,-4.2-4.2,-4.2-2.3,0-4.2,1.9-4.2,4.2 0,2.3 1.9,4.2 4.2,4.2Zm0,-6.4c1.2,0 2.2,1 2.2,2.2 0,1.2-1,2.2-2.2,2.2-1.2,0-2.2,-1-2.2,-2.2 0,-1.2 1,-2.2 2.2,-2.2Z" fill="#1f2310"/><path d="m60.4,23.9-22.1,2.2v-3.6c0,-1.1-0.9,-2-2,-2h-5.2v-3c0,-0.6-0.4,-1-1,-1h-9c-0.6,0-1,0.4-1,1v3h-5.2c-1.1,0-2,0.9-2,2v7.8H11c-4.7,0-8.6,3.8-8.6,8.6 0,4.7 3.8,8.6 8.6,8.6h29.5c4.7,0 8.6,-3.8 8.6,-8.6 0,-4.7-3.8,-8.6-8.6,-8.6h-2.2v-2.2l22.3,-2.2c0.5,-0.1 1,-0.5 0.9,-1.1 C 61.4,24.3 61,23.9 60.4,23.9Z M22.1,18.5h7v2h-7Zm-7.2,4h6.2 9 6.2v7.8H14.9Zm25.6,9.8c3.6,0 6.6,2.9 6.6,6.6 0,3.6-2.9,6.6-6.6,6.6H11.1c-3.6,0-6.6,-2.9-6.6,-6.6 0,-3.6 2.9,-6.6 6.6,-6.6H15 36.4Z" fill="#1f2310"/></g></g></svg>