<svg height="512pt" viewBox="0 0 512 512" width="512pt" xmlns="http://www.w3.org/2000/svg"><defs><linearGradient id="a" x1="74.981003" x2="437.01999" y1="74.981003" y2="437.01999" gradientUnits="userSpaceOnUse"><stop stop-color="#ffffff55" offset="0"/><stop stop-color="#00000055" offset="1"/></linearGradient><marker orient="auto" id="b" overflow="visible"><path d="M 0.0,0.0 L 5.0,-5.0 L -12.5,0.0 L 5.0,5.0 L 0.0,0.0 z" stroke="#9331b2" stroke-width="1pt" fill="#9331b2" transform="scale(0.2) rotate(180) translate(6,0)"/></marker><marker orient="auto" id="c" overflow="visible"><path d="M 0.0,0.0 L 5.0,-5.0 L -12.5,0.0 L 5.0,5.0 L 0.0,0.0 z" stroke="#fff5cb" stroke-width="1pt" fill="#fff5cb" transform="scale(0.2) rotate(180) translate(6,0)"/></marker></defs><path d="M 512,256 C 512,397.38999 397.38999,512 256,512 114.61,512 0,397.38999 0,256 0,114.61 114.60999,0 256,0 397.38999,0 512,114.61 512,256 Z" fill="url(#a)"/><path d="M 112.86388,237.32291 C 1.3814737,91.362287 193.88692,115.75378 298.00842,170.233 438.63778,243.81415 572.68604,499.86527 206.17593,314.52143" fill="none" stroke="#9331b2" stroke-width="22.5" stroke-linecap="butt" stroke-linejoin="miter" stroke-miterlimit="4" marker-end="url(#b)"/><path d="M 238.46059,388.94385 C 92.499971,500.42626 116.89146,307.92081 171.37069,203.79931 244.95183,63.169951 499.96462,-72.978316 314.62078,293.53179" fill="none" stroke="#fff5cb" stroke-width="22.5" stroke-linecap="butt" stroke-linejoin="miter" stroke-miterlimit="4" marker-end="url(#c)"/></svg>