<svg enable-background="new 0 0 511.999 511.999" version="1.1" viewBox="0 0 512 512" xml:space="preserve" xmlns="http://www.w3.org/2000/svg"><defs><linearGradient id="a" x1="74.981003" x2="437.01999" y1="74.981003" y2="437.01999" gradientUnits="userSpaceOnUse"><stop stop-color="#ffffff55" offset="0"/><stop stop-color="#00000055" offset="1"/></linearGradient></defs><path d="M 512,256 C 512,397.38999 397.38999,512 256,512 114.61,512 0,397.38999 0,256 0,114.61 114.60999,0 256,0 397.38999,0 512,114.61 512,256 Z" fill="url(#a)"/><g transform="matrix(4.662016,0,0,4.662016,106.80927,90.943797)" fill="#2fcc63"><path d="m 14.0776,13.3492 c 5.32,-0.46 8.15,1.45 9.26,2.49 a 19.2363,19.2363 0 0 0 8.51,2.06 17.8676,17.8676 0 0 0 8.7,-2.28 c 1.24,-1.05 4.04,-2.7 9.02,-2.27 a 1.8121,1.8121 0 0 0 0.32,-3.61 16.0253,16.0253 0 0 0 -10.67,2.37 l 1.97,-6.19 a 2.5449,2.5449 0 0 0 -2.43,-3.31 h -13.86 a 2.5405,2.5405 0 0 0 -2.41,3.37 l 2.14,6.27 c -2.03,-1.43 -5.52,-2.98 -10.86,-2.51 a 1.8116429,1.8116429 0 1 0 0.31,3.61 z" /><path d="m 58.7678,51.0493 -3.26,-6.81 a 11.7345,11.7345 0 0 1 -1.14,-5.31 c 0.12,-5.52 -0.79,-18.25 -11.17,-21.72 a 20.8409,20.8409 0 0 1 -11.23,3.35 22.6776,22.6776 0 0 1 -11.48,-3.24 c -10.09,3.61 -10.97,16.15 -10.85,21.61 a 11.7472,11.7472 0 0 1 -1.15,5.31 l -3.25,6.81 a 7.0607,7.0607 0 0 0 6.37,10.11 h 40.78 a 7.0657,7.0657 0 0 0 6.38,-10.11 z M 33.72,49.9775 h -0.3946 v 3.31 a 1.5,1.5 0 1 1 -3,0 v -3.31 h -4.3843 a 1.5,1.5 0 0 1 0,-3 H 33.72 a 2.49,2.49 0 0 0 0,-4.98 h -3.49 a 5.7893,5.7893 0 0 1 0,-11.5786 h 0.0947 v -3.6636 a 1.5,1.5 0 0 1 3,0 v 3.6641 h 3.6885 a 1.5,1.5 0 1 1 0,3 H 30.23 a 2.7893,2.7893 0 0 0 0,5.5786 h 3.49 a 5.49,5.49 0 0 1 0,10.98 z" /></g></svg>