<svg version="1.1" xmlns="http://www.w3.org/2000/svg" xmlns:xlink="http://www.w3.org/1999/xlink" x="0px" y="0px" viewBox="0 0 512 512" style="enable-background:new 0 0 512 512;" xml:space="preserve"><defs><linearGradient id="a" x1="74.981003" x2="437.01999" y1="74.981003" y2="437.01999" gradientUnits="userSpaceOnUse"><stop stop-color="#ffffff55" offset="0"/><stop stop-color="#00000055" offset="1"/></linearGradient></defs><path d="M 512,256 C 512,397.38999 397.38999,512 256,512 114.61,512 0,397.38999 0,256 0,114.61 114.60999,0 256,0 397.38999,0 512,114.61 512,256 Z" fill="url(#a)"/><g transform="matrix(14.335268,0,0,14.335268,83.976784,-14654.054)"><path d="m 3,1031.4 v 10 c 0,4.2 3.6322,8 9,10 5.368,-2 9,-5.8 9,-10 v -10 z" fill="#7f8c8d"/><path d="m 3,1030.4 v 10 c 0,4.2 3.6322,8 9,10 5.368,-2 9,-5.8 9,-10 v -10 z" fill="#bdc3c7"/><path d="m 3,1030.4 v 10 c 0,4.2 3.6322,8 9,10 v -20 z" fill="#95a5a6"/><path d="m 5,1032.4 v 8 c 0,3.4 2.8251,6.4 7,8 4.175,-1.6 7,-4.6 7,-8 v -8 z" fill="#ecf0f1"/><path d="m 5,1040.4 c 0,3.4 2.8251,6.4 7,8 v -8 z" fill="#2980b9"/><rect fill="#3498db" height="8" transform="translate(0,1028.4)" width="7" x="12" y="4"/><rect fill="#bdc3c7" height="8" transform="translate(0,1028.4)" width="7" x="5" y="4"/></g></svg>