<svg width="464pt" height="464pt" version="1.1" viewBox="0 -104 464 464" xmlns="http://www.w3.org/2000/svg" xmlns:svg="http://www.w3.org/2000/svg"><defs><linearGradient id="a" x1="74.981003" x2="437.01999" y1="74.981003" y2="437.01999" gradientUnits="userSpaceOnUse"><stop stop-color="#ff880055" offset="0"/><stop stop-color="#aa000055" offset="1"/></linearGradient></defs><path d="M 464,128 C 464,256.13468 360.13468,360 232,360 103.86531,360 0,256.13468 0,128 0,-0.1346875 103.8653,-104 232,-104 c 128.13468,0 232,103.8653125 232,232 z" fill="url(#a)"/><path d="m 187.87724,61.815857 5.51534,5.515345 h 82.73018 v -5.515345 c 0,-12.183398 -9.87798,-22.061381 -22.06138,-22.061381 h -44.12276 c -12.1834,0 -22.06138,9.877983 -22.06138,22.061381 z" fill="#4b9c2e" style="stroke-width:0.689418"/><path d="m 375.39898,61.815857 h -88.24553 v 22.061381 h 88.24553 z" fill="#4b9c2e" style="stroke-width:0.689418"/><path d="M 292.6688,61.815857 H 171.3312 v 49.638103 h 121.3376 z" fill="#4b9c2e" style="stroke-width:0.689418"/><path d="m 391.94501,56.300512 h -22.06138 v 33.092071 h 22.06138 z" fill="#4b9c2e" style="stroke-width:0.689418"/><path d="m 116.17775,139.03069 v 5.51535 h 209.58312 v -5.51535 l -8.51569,-25.54639 c -1.50004,-4.50817 -5.71735,-7.54568 -10.46813,-7.54568 H 135.16019 c -4.75319,-0.005 -8.97623,3.03502 -10.47847,7.54568 z" fill="#4b9c2e" style="stroke-width:0.689418"/><path d="m 83.085677,172.12276 v 22.06138 l 44.122763,16.54604 h 204.06778 l 55.15345,-44.12276 -12.49846,-20.82526 c -2.5099,-4.19035 -7.03414,-6.75416 -11.9166,-6.75147 H 104.95816 c -6.474052,0 -12.223386,4.14189 -14.273026,10.2875 z" fill="#4b9c2e" style="stroke-width:0.689418"/><path d="m 259.57673,216.24552 c 15.22924,0 27.57672,-12.34747 27.57672,-27.57672 0,-15.22925 -12.34748,-27.57673 -27.57672,-27.57673 -15.22925,0 -27.57673,12.34748 -27.57673,27.57673 0.0188,15.22373 12.35299,27.55811 27.57673,27.57672 z m 0,-44.12276 c 9.13754,0 16.54603,7.40849 16.54603,16.54604 0,9.13755 -7.40849,16.54603 -16.54603,16.54603 -9.13755,0 -16.54604,-7.40848 -16.54604,-16.54603 0,-9.13755 7.40849,-16.54604 16.54604,-16.54604 z" fill="#62666a" style="stroke-width:0.689418"/><path d="m 132.72378,216.24552 c 15.22925,0 27.57673,-12.34747 27.57673,-27.57672 0,-15.22925 -12.34748,-27.57673 -27.57673,-27.57673 -15.22924,0 -27.57672,12.34748 -27.57672,27.57673 0.0189,15.22373 12.35299,27.55811 27.57672,27.57672 z m 0,-44.12276 c 9.13755,0 16.54604,7.40849 16.54604,16.54604 0,9.13755 -7.40849,16.54603 -16.54604,16.54603 -9.13754,0 -16.54603,-7.40848 -16.54603,-16.54603 0,-9.13755 7.40849,-16.54604 16.54603,-16.54604 z" fill="#62666a" style="stroke-width:0.689418"/><path d="m 193.39258,216.24552 c 15.22925,0 27.57673,-12.34747 27.57673,-27.57672 0,-15.22925 -12.34748,-27.57673 -27.57673,-27.57673 -15.22924,0 -27.57672,12.34748 -27.57672,27.57673 0.0188,15.22373 12.35299,27.55811 27.57672,27.57672 z m 0,-44.12276 c 9.13755,0 16.54604,7.40849 16.54604,16.54604 0,9.13755 -7.40849,16.54603 -16.54604,16.54603 -9.13755,0 -16.54603,-7.40848 -16.54603,-16.54603 0,-9.13755 7.40848,-16.54604 16.54603,-16.54604 z" fill="#62666a" style="stroke-width:0.689418"/><path d="m 320.24552,216.24552 c 15.22925,0 27.57673,-12.34747 27.57673,-27.57672 0,-15.22925 -12.34748,-27.57673 -27.57673,-27.57673 -15.22924,0 -27.57672,12.34748 -27.57672,27.57673 0.0188,15.22373 12.35299,27.55811 27.57672,27.57672 z m 0,-44.12276 c 9.13755,0 16.54604,7.40849 16.54604,16.54604 0,9.13755 -7.40849,16.54603 -16.54604,16.54603 -9.13754,0 -16.54603,-7.40848 -16.54603,-16.54603 0,-9.13755 7.40849,-16.54604 16.54603,-16.54604 z" fill="#62666a" style="stroke-width:0.689418"/><path d="m 135.43871,216.24552 h 187.85266 c 6.44986,-0.006 12.69495,-2.26756 17.65049,-6.39325 l 26.95969,-22.46262 -7.06102,-8.47226 -26.95762,22.46538 c -2.97312,2.48301 -6.71914,3.84833 -10.59154,3.85909 H 135.43871 c -1.35188,0 -2.69576,-0.16428 -4.00455,-0.49014 l -35.790455,-10.32541 -3.053916,10.5998 35.976601,10.37092 c 2.24598,0.57093 4.55395,0.8564 6.87267,0.84833 z" fill="#62666a" style="stroke-width:0.689418"/><path d="m 364.7061,155.56983 -0.67595,-11.00932 -270.251921,16.5488 0.673258,11.00932 z" fill="#62666a" style="stroke-width:0.689418"/><path d="m 364.36829,188.6688 c 12.18339,0 22.06138,-9.87799 22.06138,-22.06138 0,-12.1834 -9.87799,-22.06138 -22.06138,-22.06138 -12.1834,0 -22.06138,9.87798 -22.06138,22.06138 0,12.18339 9.87798,22.06138 22.06138,22.06138 z m 0,-33.09207 c 6.09163,0 11.03069,4.93906 11.03069,11.03069 0,6.09163 -4.93906,11.03069 -11.03069,11.03069 -6.09163,0 -11.03069,-4.93906 -11.03069,-11.03069 0,-6.09163 4.93906,-11.03069 11.03069,-11.03069 z" fill="#62666a" style="stroke-width:0.689418"/><path d="m 94.116368,205.21483 c 12.183402,0 22.061382,-9.87798 22.061382,-22.06138 0,-12.18339 -9.87798,-22.06138 -22.061382,-22.06138 -12.183398,0 -22.061381,9.87799 -22.061381,22.06138 0,12.1834 9.877983,22.06138 22.061381,22.06138 z m 0,-33.09207 c 6.091632,0 11.030692,4.93906 11.030692,11.03069 0,6.09163 -4.93906,11.03069 -11.030692,11.03069 -6.09163,0 -11.030691,-4.93906 -11.030691,-11.03069 0,-6.09163 4.939061,-11.03069 11.030691,-11.03069 z" fill="#62666a" style="stroke-width:0.689418"/></svg>