<svg enable-background="new 0 0 512 512" height="512" viewBox="0 0 512 512" width="512" xmlns="http://www.w3.org/2000/svg"><defs><linearGradient id="a" x1="74.981003" x2="437.01999" y1="74.981003" y2="437.01999" gradientUnits="userSpaceOnUse"><stop stop-color="#ffffff55" offset="0"/><stop stop-color="#00000055" offset="1"/></linearGradient></defs><path d="M 512,256 C 512,397.38999 397.38999,512 256,512 114.61,512 0,397.38999 0,256 0,114.61 114.60999,0 256,0 397.38999,0 512,114.61 512,256 Z" fill="url(#a)"/><path d="m 321.1555,292.68802 c -4.17041,0 -8.34081,-1.59318 -11.52133,-4.7737 -6.36103,-6.36104 -6.36103,-16.67576 0,-23.04265 L 352.99584,221.51 c 16.03145,-16.03146 16.03145,-42.11405 0,-58.14552 -16.03146,-16.03145 -42.11406,-16.03145 -58.14552,0 l -18.56181,18.56182 c -6.36103,6.36104 -16.67576,6.36104 -23.04266,0 -6.36103,-6.36104 -6.36103,-16.67576 0,-23.04265 l 18.56182,-18.56182 c 13.92282,-13.91697 32.42606,-21.58419 52.11247,-21.58419 19.68643,0 38.18967,7.66722 52.11249,21.58419 28.73596,28.73596 28.73596,75.48901 0,104.22497 l -43.36166,43.36166 c -3.17467,3.19224 -7.34506,4.77956 -11.51547,4.77956 z" fill="#08475e" /><path d="m 196.69353,393.37517 c -19.68642,0 -38.18966,-7.66722 -52.11248,-21.58418 -13.91697,-13.91697 -21.58418,-32.42606 -21.58418,-52.11248 0,-19.68642 7.66721,-38.19552 21.58418,-52.11249 l 43.36166,-43.36166 c 6.36104,-6.36104 16.67576,-6.36104 23.04265,0 6.36104,6.36104 6.36104,16.67577 0,23.04265 l -43.36166,43.36167 c -16.03145,16.03146 -16.03145,42.11406 0,58.14551 7.76679,7.7668 18.08738,12.04263 29.06983,12.04263 10.98246,0 21.30303,-4.27583 29.06982,-12.04263 l 18.56182,-18.56181 c 6.36104,-6.36105 16.67576,-6.36105 23.04265,0 6.36105,6.36103 6.36105,16.67576 0,23.04266 l -18.5618,18.56181 c -13.91697,13.9111 -32.42607,21.57832 -52.11249,21.57832 z" fill="#08475e"/><path d="m 272.18254,281.67628 74.0364,75.86973 c 6.33175,6.4899 6.20874,16.88663 -0.28116,23.21838 -6.4899,6.33176 -16.88663,6.20875 -23.21838,-0.28115 -0.95474,-0.97817 -1.80405,-2.12035 -2.46592,-3.25081 l -53.03209,-91.78404 c -0.86687,-1.49947 -0.35144,-3.42068 1.14804,-4.29341 1.26518,-0.73802 2.83493,-0.4803 3.81311,0.5213 z" fill="#fbbd00"/><path d="m 324.42388,306.32384 69.43841,19.29984 c 8.81525,2.44835 13.9814,11.58575 11.52718,20.40101 -2.44835,8.81525 -11.58575,13.9814 -20.40102,11.52718 -2.00319,-0.55645 -3.86581,-1.49947 -5.44144,-2.66508 l -57.85849,-42.96921 c -1.40576,-1.0426 -1.69862,-3.02824 -0.65602,-4.434 0.79659,-1.07188 2.16719,-1.4936 3.39138,-1.15974 z" fill="#fbbd00" /><path d="M 196.23666,201.68301 117.96543,179.2378 c -8.76253,-2.5128 -13.83496,-11.65605 -11.32218,-20.41859 2.51279,-8.76253 11.65605,-13.83496 20.41858,-11.32218 1.75134,0.50373 3.40896,1.31204 4.83228,2.28435 l 67.00763,46.26103 c 1.43504,0.98989 1.79819,2.95795 0.80245,4.39299 -0.78488,1.14803 -2.20236,1.60491 -3.46753,1.24761 z" fill="#fbbd00"/><path d="m 238.45615,215.7054 -56.62847,-70.28185 c -5.70503,-7.08149 -4.59213,-17.44893 2.48935,-23.15394 7.08149,-5.70502 17.44893,-4.59214 23.15395,2.48935 1.01917,1.26518 1.85091,2.71193 2.43664,4.14697 l 33.91968,83.64238 c 0.65602,1.61077 -0.12301,3.44996 -1.73376,4.10598 -1.31789,0.52716 -2.78223,0.10542 -3.63739,-0.94889 z" fill="#fbbd00"/></svg>