<svg width="512pt" height="512pt" viewBox="0 0 512 512" xmlns="http://www.w3.org/2000/svg" xmlns:xlink="http://www.w3.org/1999/xlink"><linearGradient id="j" x1="74.981" x2="437.02" y1="74.981" y2="437.02" gradientUnits="userSpaceOnUse"><stop stop-color="#ffffff55" offset="0"/><stop stop-color="#00000055" offset="1"/></linearGradient><linearGradient id="f"><stop stop-color="#4ad2f5" offset="0"/><stop stop-color="#00abe9" offset="1"/></linearGradient><linearGradient id="i" x1="201.7" x2="324.06" y1="81.528" y2="203.89" gradientUnits="userSpaceOnUse" xlink:href="#f"/><linearGradient id="h" x1="176.65" x2="274.28" y1="216.9" y2="314.53" gradientUnits="userSpaceOnUse" xlink:href="#f"/><linearGradient id="g" x1="158.87" x2="353.13" y1="298.26" y2="492.52" gradientUnits="userSpaceOnUse"><stop stop-color="#0065a3" offset="0"/><stop stop-color="#005285" offset="1"/></linearGradient><path d="m512 256c0 141.39-114.61 256-256 256s-256-114.61-256-256 114.61-256 256-256 256 114.61 256 256z" fill="url(#j)"/><path d="m 292.09553,220.12488 -37.96908,-72.54383 c -4.17764,-8.00309 -12.03498,-16.25511 -17.58492,-18.42894 l -10.71732,-4.17763 c -3.10286,-1.21443 -5.22204,1.43302 -2.48351,10.58981 l 15.22893,63.79995" fill="url(#f)"/><path fill="url(#g)" d="m72.492 384.64h367.02v21.504h-367.02z" /><path d="m 236.29864,253.92232 -80.34653,54.16955 c -8.20345,4.86985 -8.44027,8.25203 -5.33133,9.47861 l 10.71732,4.17156 c 5.53779,2.16168 16.92912,1.43909 25.40583,-1.63948 l 114.59946,-41.32697" fill="url(#f)" stroke="none"/><path stroke="none" fill="#deecf1" d="m 407.93371,307.07175 c 4.87593,-12.49039 -5.72603,-43.86513 -43.13647,-58.48076 0,0 -188.18771,-73.48494 -193.95624,-75.73163 -5.75032,-2.24062 -6.60042,-7.08619 -7.52945,-13.56516 -1.63341,-11.23953 -3.97726,-27.57965 -4.60268,-32.78347 -1.03227,-8.19739 -14.91318,-17.66385 -18.93293,-7.38372 -4.01976,10.26799 -16.51622,42.28637 -21.25249,54.40028 -6.94652,17.80958 24.48893,43.95621 96.68666,72.16121 6.57005,2.56245 13.6441,5.33134 21.08853,8.23382 l 65.04475,24.85327 c 53.35589,19.78302 103.4996,36.24459 106.59032,28.29616 z"/></svg>