<svg height="512pt" viewBox="0 0 512 512" width="512pt" xmlns="http://www.w3.org/2000/svg"><defs><linearGradient id="a" x1="74.981003" x2="437.01999" y1="74.981003" y2="437.01999" gradientUnits="userSpaceOnUse"><stop stop-color="#ff880055" offset="0"/><stop stop-color="#aa000055" offset="1"/></linearGradient></defs><path d="M 512,256 C 512,397.38999 397.38999,512 256,512 114.61,512 0,397.38999 0,256 0,114.61 114.60999,0 256,0 397.38999,0 512,114.61 512,256 Z" fill="url(#a)"/><path d="m 216.22237,254.16511 h -39.77774 v 59.66663 l -19.88888,-13.20746 -19.88887,13.20746 V 254.16511 H 96.889138 c -10.93889,0 -19.88889,8.95 -19.88889,19.88887 v 99.44437 c 0,10.93889 8.95,19.88888 19.88889,19.88888 H 216.22237 c 10.93888,0 19.88888,-8.94999 19.88888,-19.88888 v -99.44437 c 0,-10.93887 -8.95,-19.88887 -19.88888,-19.88887 z M 196.3335,214.38737 h 119.33324 c 10.93889,0 19.88888,-8.94999 19.88888,-19.88887 V 95.054129 c 0,-10.93888 -8.94999,-19.888873 -19.88888,-19.888873 h -39.77775 v 59.666624 l -19.88888,-13.20746 -19.88886,13.20746 V 75.165256 H 196.3335 c -10.93888,0 -19.88887,8.949993 -19.88887,19.888873 V 194.4985 c 0,10.93888 8.94999,19.88887 19.88887,19.88887 z m 218.77761,39.77774 h -39.77775 v 59.66663 l -19.88887,-13.20746 -19.88887,13.20746 v -59.66663 h -39.77775 c -10.93889,0 -19.88888,8.95 -19.88888,19.88887 v 99.44437 c 0,10.93889 8.94999,19.88888 19.88888,19.88888 h 119.33324 c 10.93889,0 19.88888,-8.94999 19.88888,-19.88888 v -99.44437 c 0,-10.93887 -8.94999,-19.88887 -19.88888,-19.88887 z" fill="#ffce00"/><path d="m 335.55562,254.16511 h 39.77775 v 59.66663 l -19.88888,-13.20746 -19.88887,13.20746 z" fill="#ff9500"/><path d="m 136.66688,254.16511 h 39.77775 v 59.66663 l -19.88888,-13.20746 -19.88887,13.20746 z" fill="#ff9500"/><path d="m 236.11124,75.165256 h 39.77775 v 59.666634 l -19.88888,-13.20746 -19.88887,13.20746 z" fill="#ff9500"/></svg>