<svg enable-background="new 0 0 512 512" height="512" viewBox="0 0 512 512" width="512" version="1.1" xmlns="http://www.w3.org/2000/svg" xmlns:svg="http://www.w3.org/2000/svg"><defs><linearGradient id="a" x1="74.981003" x2="437.01999" y1="74.981003" y2="437.01999" gradientUnits="userSpaceOnUse"><stop stop-color="#ffffff55" offset="0"/><stop stop-color="#00000055" offset="1"/></linearGradient></defs><path d="M 512,256 C 512,397.38999 397.38999,512 256,512 114.61,512 0,397.38999 0,256 0,114.61 114.60999,0 256,0 397.38999,0 512,114.61 512,256 Z" fill="url(#a)"/><g transform="matrix(6.6918896,0,0,6.6918896,63.119176,81.16461)"><rect fill="#c6bf66" height="2" width="7" x="22.1" y="18.5"/><circle cx="10" cy="38.900002" fill="#c6bf66" r="2.2"/><polygon fill="#c6bf66" points="14.9,22.5 14.9,30.3 36.3,30.3 36.3,22.5 30.1,22.5 21.1,22.5"/><circle cx="20.4" cy="38.900002" fill="#c6bf66" r="2.2"/><path d="M 14.9,32.3 H 11 c -3.6,0 -6.6,2.9 -6.6,6.6 0,3.6 2.9,6.6 6.6,6.6 h 29.5 c 3.6,0 6.6,-2.9 6.6,-6.6 0,-3.6 -2.9,-6.6 -6.6,-6.6 H 36.3 Z M 10,43.1 c -2.3,0 -4.2,-1.9 -4.2,-4.2 0,-2.3 1.9,-4.2 4.2,-4.2 2.3,0 4.2,1.9 4.2,4.2 -0.1,2.3 -1.9,4.2 -4.2,4.2 z m 10.4,0 c -2.3,0 -4.2,-1.9 -4.2,-4.2 0,-2.3 1.9,-4.2 4.2,-4.2 2.3,0 4.2,1.9 4.2,4.2 0,2.3 -1.9,4.2 -4.2,4.2 z m 10.5,0 c -2.3,0 -4.2,-1.9 -4.2,-4.2 0,-2.3 1.9,-4.2 4.2,-4.2 2.3,0 4.2,1.9 4.2,4.2 -0.1,2.3 -1.9,4.2 -4.2,4.2 z m 10.4,-8.4 c 2.3,0 4.2,1.9 4.2,4.2 0,2.3 -1.9,4.2 -4.2,4.2 -2.3,0 -4.2,-1.9 -4.2,-4.2 0,-2.3 1.9,-4.2 4.2,-4.2 z" fill="#515e27"/><circle cx="41.299999" cy="38.900002" fill="#c6bf66" r="2.2"/><circle cx="30.9" cy="38.900002" fill="#c6bf66" r="2.2"/><path d="m 10,34.7 c -2.3,0 -4.2,1.9 -4.2,4.2 0,2.3 1.9,4.2 4.2,4.2 2.3,0 4.2,-1.9 4.2,-4.2 -0.1,-2.3 -1.9,-4.2 -4.2,-4.2 z m 0,6.4 c -1.2,0 -2.2,-1 -2.2,-2.2 0,-1.2 1,-2.2 2.2,-2.2 1.2,0 2.2,1 2.2,2.2 -0.1,1.2 -1,2.2 -2.2,2.2 z" fill="#1f2310"/><path d="m 20.4,34.7 c -2.3,0 -4.2,1.9 -4.2,4.2 0,2.3 1.9,4.2 4.2,4.2 2.3,0 4.2,-1.9 4.2,-4.2 0,-2.3 -1.9,-4.2 -4.2,-4.2 z m 0,6.4 c -1.2,0 -2.2,-1 -2.2,-2.2 0,-1.2 1,-2.2 2.2,-2.2 1.2,0 2.2,1 2.2,2.2 0,1.2 -1,2.2 -2.2,2.2 z" fill="#1f2310"/><path d="m 30.9,34.7 c -2.3,0 -4.2,1.9 -4.2,4.2 0,2.3 1.9,4.2 4.2,4.2 2.3,0 4.2,-1.9 4.2,-4.2 -0.1,-2.3 -1.9,-4.2 -4.2,-4.2 z m 0,6.4 c -1.2,0 -2.2,-1 -2.2,-2.2 0,-1.2 1,-2.2 2.2,-2.2 1.2,0 2.2,1 2.2,2.2 -0.1,1.2 -1,2.2 -2.2,2.2 z" fill="#1f2310"/><path d="m 41.3,43.1 c 2.3,0 4.2,-1.9 4.2,-4.2 0,-2.3 -1.9,-4.2 -4.2,-4.2 -2.3,0 -4.2,1.9 -4.2,4.2 0,2.3 1.9,4.2 4.2,4.2 z m 0,-6.4 c 1.2,0 2.2,1 2.2,2.2 0,1.2 -1,2.2 -2.2,2.2 -1.2,0 -2.2,-1 -2.2,-2.2 0,-1.2 1,-2.2 2.2,-2.2 z" fill="#1f2310"/><path d="m 60.4,23.9 -22.1,2.2 v -3.6 c 0,-1.1 -0.9,-2 -2,-2 h -5.2 v -3 c 0,-0.6 -0.4,-1 -1,-1 h -9 c -0.6,0 -1,0.4 -1,1 v 3 h -5.2 c -1.1,0 -2,0.9 -2,2 v 7.8 H 11 c -4.7,0 -8.6,3.8 -8.6,8.6 0,4.7 3.8,8.6 8.6,8.6 h 29.5 c 4.7,0 8.6,-3.8 8.6,-8.6 0,-4.7 -3.8,-8.6 -8.6,-8.6 h -2.2 v -2.2 l 22.3,-2.2 c 0.5,-0.1 1,-0.5 0.9,-1.1 C 61.4,24.3 61,23.9 60.4,23.9 Z M 22.1,18.5 h 7 v 2 h -7 z m -7.2,4 h 6.2 9 6.2 v 7.8 H 14.9 Z m 25.6,9.8 c 3.6,0 6.6,2.9 6.6,6.6 0,3.6 -2.9,6.6 -6.6,6.6 H 11.1 c -3.6,0 -6.6,-2.9 -6.6,-6.6 0,-3.6 2.9,-6.6 6.6,-6.6 H 15 36.4 Z" fill="#1f2310"/></g><g transform="matrix(0.58767175,0,0,0.58767175,-90.861541,140.33474)"><path d="m 528.83125,67.82515 c 0,0 -22.14375,-58.6317267 -76.91126,-58.6317267 -54.76752,0 -69.51044,77.1379007 -19.21391,111.0978167 l 82.89352,17.17518 31.10014,-37.646935 z" fill="#4981c8" stroke="#1f2310" stroke-width="20" stroke-miterlimit="4"/><path d="m 564.57029,67.82515 c 0,0 22.14374,-58.6317267 76.91126,-58.6317267 54.76752,0 69.51044,77.1379007 19.21391,111.0978167 L 577.80194,137.46539 546.7018,99.818455 Z" fill="#4981c8" stroke="#1f2310" stroke-width="20" stroke-miterlimit="4"/><g transform="matrix(1.0301811,0,0,1.0301811,241.24177,-29.56405)"><path d="m 296.505,133.092 c -1.64,0 -3.291,-0.535 -4.672,-1.637 -0.419,-0.331 -28.853,-22.475 -72.215,-26.498 -4.125,-0.383 -7.158,-4.036 -6.775,-8.161 0.383,-4.124 4.03,-7.157 8.161,-6.775 48.141,4.467 78.905,28.685 80.191,29.714 3.234,2.588 3.759,7.307 1.171,10.542 -1.48,1.852 -3.66,2.815 -5.861,2.815 z"  fill="#599cde" stroke="#1f2310" stroke-width="19.4141" stroke-miterlimit="4"/></g><g transform="matrix(1.0301811,0,0,1.0301811,241.24177,-29.56405)"><path d="m 296.52,133.085 c -2.206,0 -4.39,-0.966 -5.87,-2.823 -2.578,-3.235 -2.056,-7.942 1.175,-10.526 1.286,-1.029 32.049,-25.248 80.19,-29.714 4.117,-0.383 7.778,2.651 8.161,6.775 0.383,4.124 -2.65,7.778 -6.775,8.161 -43.468,4.033 -71.935,26.276 -72.217,26.5 -1.38,1.095 -3.028,1.627 -4.664,1.627 z" fill="#599cde" stroke="#1f2310" stroke-width="19.4141" stroke-miterlimit="4"/></g><path d="m 546.70077,62.171517 v 0 c -17.17621,0 -31.10014,13.923927 -31.10014,31.100137 v 44.193736 h 62.20131 V 93.271654 c 0,-17.17621 -13.92496,-31.100137 -31.10117,-31.100137 z" fill="#599cde" stroke="#1f2310" stroke-width="20" stroke-miterlimit="4"/></g></svg> 